<?xml version="1.0" encoding="UTF-8"?>
<svg width="24px" height="24px" viewBox="0 0 24 24" version="1.1" xmlns="http://www.w3.org/2000/svg" xmlns:xlink="http://www.w3.org/1999/xlink">
    <!-- Generator: Sketch 53.1 (72631) - https://sketchapp.com -->
    <title>Slice 1</title>
    <desc>Created with Sketch.</desc>
    <g id="Page-1" stroke="none" stroke-width="1" fill="none" fill-rule="evenodd" stroke-linecap="round" stroke-linejoin="round">
        <g id="icon" transform="translate(1.000000, 1.000000)" stroke="#10EBF4">
            <path d="M18.9545529,6.53969412 C19.3660824,7.23981176 19.6857294,8.00075294 19.8979647,8.8044" id="Stroke-1"></path>
            <path d="M13.4526118,2.35788235 C14.2666118,2.56752941 14.9822588,2.87294118 15.6901412,3.28576471" id="Stroke-3"></path>
            <path d="M6.57321176,3.28615294 C7.26685882,2.88238824 8.01744706,2.56791765 8.81074118,2.35827059" id="Stroke-5"></path>
            <path d="M2.36603529,8.80504706 C2.57568235,8.01045882 2.89015294,7.25857647 3.29521176,6.56492941" id="Stroke-7"></path>
            <path d="M3.29495294,15.6819882 C2.89118824,14.9883412 2.57542353,14.2364588 2.36577647,13.4418706" id="Stroke-9"></path>
            <path d="M8.81578824,19.8898118 C8.01990588,19.6801647 7.26802353,19.3656941 6.57308235,18.9606353" id="Stroke-11"></path>
            <path d="M15.6907882,18.9608941 C14.9958471,19.3646588 14.2439647,19.6804235 13.4480824,19.8900706" id="Stroke-13"></path>
            <path d="M19.9118118,13.3888118 C19.7021647,14.2028118 19.3825176,14.9728118 18.9684,15.6819882" id="Stroke-15"></path>
            <path d="M14.2671294,11.1234588 C14.2671294,12.8549882 12.8643059,14.2591059 11.1314824,14.2591059 C9.39995294,14.2591059 7.99712941,12.8549882 7.99712941,11.1234588 C7.99712941,9.39192941 9.39995294,7.98781176 11.1314824,7.98781176 C12.8643059,7.98781176 14.2671294,9.39192941 14.2671294,11.1234588 Z" id="Stroke-17"></path>
            <path d="M12.4997529,11.1234588 C12.4997529,11.8779294 11.8876353,12.4913412 11.1318706,12.4913412 C10.3761059,12.4913412 9.76398824,11.8779294 9.76398824,11.1234588 C9.76398824,10.3676941 10.3761059,9.75557647 11.1318706,9.75557647 C11.8876353,9.75557647 12.4997529,10.3676941 12.4997529,11.1234588 Z" id="Stroke-19"></path>
            <path d="M8.81138824,2.35788235 C9.01068235,1.21517647 9.98256471,0.388235294 11.1317412,0.388235294 C12.2679765,0.388235294 13.2346824,1.20094118 13.4520941,2.35788235" id="Stroke-21"></path>
            <path d="M8.81138824,19.9061176 C9.01068235,21.0488235 9.98256471,21.8757647 11.1317412,21.8757647 C12.2679765,21.8757647 13.2346824,21.0630588 13.4520941,19.9061176" id="Stroke-23"></path>
            <path d="M19.9061176,8.80258824 C21.0488235,9.00188235 21.8757647,9.97376471 21.8757647,11.1229412 C21.8757647,12.2591765 21.2636471,13.1741176 19.9112941,13.3889412" id="Stroke-25"></path>
            <path d="M2.35775294,8.80258824 C1.21504706,9.00188235 0.388105882,9.97376471 0.388105882,11.1229412 C0.388105882,12.2591765 1.20081176,13.2258824 2.35775294,13.4432941" id="Stroke-27"></path>
            <path d="M15.6951882,3.27851765 C16.6437765,2.61075294 17.9158941,2.71298824 18.7286,3.52569412 C19.5322471,4.32934118 19.6409529,5.58722353 18.9770706,6.5604" id="Stroke-29"></path>
            <path d="M3.28667059,15.6863882 C2.61890588,16.6349765 2.72114118,17.9070941 3.53514118,18.7198 C4.33878824,19.5234471 5.59667059,19.6321529 6.56855294,18.9682706" id="Stroke-31"></path>
            <path d="M18.9772,15.6863882 C19.6449647,16.6349765 19.5427294,17.9070941 18.7287294,18.7198 C17.9250824,19.5234471 16.6672,19.6321529 15.6953176,18.9682706" id="Stroke-33"></path>
            <path d="M6.56881176,3.27851765 C5.62022353,2.61075294 4.34810588,2.71298824 3.5354,3.52569412 C2.73175294,4.32934118 2.62304706,5.58722353 3.28692941,6.5604" id="Stroke-35"></path>
            <path d="M13.3489529,8.90611765 L15.9488353,6.30623529" id="Stroke-37"></path>
            <path d="M6.31542353,15.9397765 L8.91530588,13.3398941" id="Stroke-39"></path>
            <path d="M13.3489529,13.3401529 L15.9488353,15.9400353" id="Stroke-41"></path>
            <path d="M6.31542353,6.30662353 L8.91530588,8.90650588" id="Stroke-43"></path>
            <path d="M14.2671294,11.1234588 L17.9437176,11.1234588" id="Stroke-45"></path>
            <path d="M4.31989412,11.1234588 L7.99648235,11.1234588" id="Stroke-47"></path>
            <path d="M11.1316118,14.2589765 L11.1316118,17.9355647" id="Stroke-49"></path>
            <path d="M11.1316118,4.31174118 L11.1316118,7.98832941" id="Stroke-51"></path>
        </g>
    </g>
</svg>