<?xml version="1.0" encoding="UTF-8"?>
<svg width="18px" height="18px" viewBox="0 0 18 18" version="1.1" xmlns="http://www.w3.org/2000/svg" xmlns:xlink="http://www.w3.org/1999/xlink">
    <!-- Generator: Sketch 53.1 (72631) - https://sketchapp.com -->
    <title>Slice 1</title>
    <desc>Created with Sketch.</desc>
    <g id="Page-1" stroke="none" stroke-width="1" fill="none" fill-rule="evenodd" stroke-linecap="round" stroke-linejoin="round">
        <g id="icon" transform="translate(1.000000, 1.000000)" stroke="#03143D">
            <path d="M13.7851294,4.75614118 C14.0844235,5.26531765 14.3168941,5.81872941 14.4712471,6.4032" id="Stroke-1"></path>
            <path d="M9.78371765,1.71482353 C10.3757176,1.86729412 10.8961882,2.08941176 11.4110118,2.38964706" id="Stroke-3"></path>
            <path d="M4.78051765,2.38992941 C5.28498824,2.09628235 5.83087059,1.86757647 6.40781176,1.71510588" id="Stroke-5"></path>
            <path d="M1.72075294,6.40367059 C1.87322353,5.82578824 2.10192941,5.27896471 2.39651765,4.77449412" id="Stroke-7"></path>
            <path d="M2.39632941,11.4050824 C2.10268235,10.9006118 1.87303529,10.3537882 1.72056471,9.77590588" id="Stroke-9"></path>
            <path d="M6.41148235,14.4653176 C5.83265882,14.3128471 5.28583529,14.0841412 4.78042353,13.7895529" id="Stroke-11"></path>
            <path d="M11.4114824,13.7897412 C10.9060706,14.0833882 10.3592471,14.3130353 9.78042353,14.4655059" id="Stroke-13"></path>
            <path d="M14.4813176,9.73731765 C14.3288471,10.3293176 14.0963765,10.8893176 13.7952,11.4050824" id="Stroke-15"></path>
            <path d="M10.3760941,8.08978824 C10.3760941,9.34908235 9.35585882,10.3702588 8.09562353,10.3702588 C6.83632941,10.3702588 5.81609412,9.34908235 5.81609412,8.08978824 C5.81609412,6.83049412 6.83632941,5.80931765 8.09562353,5.80931765 C9.35585882,5.80931765 10.3760941,6.83049412 10.3760941,8.08978824 Z" id="Stroke-17"></path>
            <path d="M9.09072941,8.08978824 C9.09072941,8.63849412 8.64555294,9.08461176 8.09590588,9.08461176 C7.54625882,9.08461176 7.10108235,8.63849412 7.10108235,8.08978824 C7.10108235,7.54014118 7.54625882,7.09496471 8.09590588,7.09496471 C8.64555294,7.09496471 9.09072941,7.54014118 9.09072941,8.08978824 Z" id="Stroke-19"></path>
            <path d="M6.40828235,1.71482353 C6.55322353,0.883764706 7.26004706,0.282352941 8.09581176,0.282352941 C8.92216471,0.282352941 9.62522353,0.873411765 9.78334118,1.71482353" id="Stroke-21"></path>
            <path d="M6.40828235,14.4771765 C6.55322353,15.3082353 7.26004706,15.9096471 8.09581176,15.9096471 C8.92216471,15.9096471 9.62522353,15.3185882 9.78334118,14.4771765" id="Stroke-23"></path>
            <path d="M14.4771765,6.40188235 C15.3082353,6.54682353 15.9096471,7.25364706 15.9096471,8.08941176 C15.9096471,8.91576471 15.4644706,9.58117647 14.4809412,9.73741176" id="Stroke-25"></path>
            <path d="M1.71472941,6.40188235 C0.883670588,6.54682353 0.282258824,7.25364706 0.282258824,8.08941176 C0.282258824,8.91576471 0.873317647,9.61882353 1.71472941,9.77694118" id="Stroke-27"></path>
            <path d="M11.4146824,2.38437647 C12.1045647,1.89872941 13.0297412,1.97308235 13.6208,2.56414118 C14.2052706,3.14861176 14.2843294,4.06343529 13.8015059,4.7712" id="Stroke-29"></path>
            <path d="M2.39030588,11.4082824 C1.90465882,12.0981647 1.97901176,13.0233412 2.57101176,13.6144 C3.15548235,14.1988706 4.07030588,14.2779294 4.77712941,13.7951059" id="Stroke-31"></path>
            <path d="M13.8016,11.4082824 C14.2872471,12.0981647 14.2128941,13.0233412 13.6208941,13.6144 C13.0364235,14.1988706 12.1216,14.2779294 11.4147765,13.7951059" id="Stroke-33"></path>
            <path d="M4.77731765,2.38437647 C4.08743529,1.89872941 3.16225882,1.97308235 2.5712,2.56414118 C1.98672941,3.14861176 1.90767059,4.06343529 2.39049412,4.7712" id="Stroke-35"></path>
            <path d="M9.70832941,6.47717647 L11.5991529,4.58635294" id="Stroke-37"></path>
            <path d="M4.59303529,11.5925647 L6.48385882,9.70174118" id="Stroke-39"></path>
            <path d="M9.70832941,9.70192941 L11.5991529,11.5927529" id="Stroke-41"></path>
            <path d="M4.59303529,4.58663529 L6.48385882,6.47745882" id="Stroke-43"></path>
            <path d="M10.3760941,8.08978824 L13.0499765,8.08978824" id="Stroke-45"></path>
            <path d="M3.14174118,8.08978824 L5.81562353,8.08978824" id="Stroke-47"></path>
            <path d="M8.09571765,10.3701647 L8.09571765,13.0440471" id="Stroke-49"></path>
            <path d="M8.09571765,3.13581176 L8.09571765,5.80969412" id="Stroke-51"></path>
        </g>
    </g>
</svg>