<?xml version="1.0" encoding="UTF-8"?>
<svg width="166px" height="40px" viewBox="0 0 166 40" version="1.1" xmlns="http://www.w3.org/2000/svg" xmlns:xlink="http://www.w3.org/1999/xlink">
    <!-- Generator: Sketch 53.1 (72631) - https://sketchapp.com -->
    <title>logo</title>
    <desc>Created with Sketch.</desc>
    <defs>
        <polygon id="path-1" points="0.510433387 0.246097962 12.1796825 0.246097962 12.1796825 14.8825679 0.510433387 14.8825679"></polygon>
    </defs>
    <g id="Page-1" stroke="none" stroke-width="1" fill="none" fill-rule="evenodd">
        <g id="站点地图" transform="translate(-65.000000, -23.000000)">
            <g id="导航">
                <g id="logo" transform="translate(65.000000, 23.000000)">
                    <path d="M28.5758095,23.6170794 L28.5758095,23.6215238 C26.8393016,23.6215238 25.1027937,23.6215238 23.3669206,23.6221587 C23.2989841,23.6221587 23.2316825,23.620254 23.164381,23.6259683 C23.0132698,23.6386667 22.9104127,23.7059683 22.8907302,23.8704127 C22.8615238,24.1180317 22.8494603,24.3681905 22.7815238,24.6088254 C22.7364444,24.7675556 22.6748571,24.9224762 22.6932698,25.0926349 C22.6945397,25.1059683 22.6773968,25.1199365 22.6754921,25.1351746 C22.6393016,25.3789841 22.5364444,25.6145397 22.5415238,25.8621587 C22.5440635,25.9967619 22.5339048,26.1205714 22.483746,26.2412063 C22.4475556,26.3288254 22.4246984,26.4170794 22.4005714,26.507873 C22.3154921,26.8291429 22.2812063,27.1593016 22.219619,27.4850159 C22.1681905,27.7529524 22.0659683,28.0139048 22.1129524,28.2958095 C22.1193016,28.3332698 22.099619,28.3777143 22.083746,28.4158095 C21.996127,28.6291429 21.9504127,28.8500952 21.9440635,29.0812063 C21.9389841,29.2735873 21.8297778,29.3650159 21.6399365,29.4069206 C21.4462857,29.4500952 21.2621587,29.3929524 21.0735873,29.3948571 C19.9675556,29.404381 18.8621587,29.4094603 17.7567619,29.4240635 C17.4507302,29.4285079 17.1459683,29.4113651 16.8393016,29.4151746 C15.4526349,29.4335873 14.0646984,29.4215238 12.6767619,29.4462857 C12.3104127,29.4526349 11.940254,29.4240635 11.572,29.4246984 C11.3694603,29.4253333 11.1688254,29.467873 10.9656508,29.4513651 C10.3015238,29.4005714 9.6367619,29.4158095 8.97263492,29.4539048 C8.93263492,29.4564444 8.88501587,29.4481905 8.86025397,29.4907302 C8.83231746,29.5408889 8.86279365,29.5840635 8.89390476,29.6170794 C9.08311111,29.8164444 9.27739683,30.0100952 9.46469841,30.212 C9.52692063,30.2786667 9.64374603,30.2805714 9.67485714,30.3434286 C9.72120635,30.4380317 9.80819048,30.4900952 9.85898413,30.5821587 C9.97263492,30.7866032 10.2215238,30.8729524 10.3510476,31.0735873 C10.3694603,31.1015238 10.412,31.1123175 10.4412063,31.1339048 C10.5212063,31.1910476 10.6018413,31.2462857 10.6793016,31.3072381 C10.9300952,31.5053333 11.1612063,31.7262857 11.436127,31.8951746 C11.5085079,31.939619 11.5897778,31.8951746 11.6373968,31.9434286 C11.7827937,32.0913651 11.9300952,32.2297778 12.0983492,32.3573968 C12.3415238,32.540254 12.6012063,32.6793016 12.8723175,32.803746 C12.9180317,32.8246984 12.9440635,32.8932698 12.9973968,32.8748571 C13.1358095,32.8259683 13.212,32.9212063 13.2945397,32.9948571 C13.396127,33.0831111 13.4932698,33.1567619 13.6348571,33.1923175 C13.707873,33.2100952 13.8304127,33.2412063 13.8672381,33.2824762 C14.0558095,33.4913651 14.3256508,33.5383492 14.5586667,33.6031111 C14.8786667,33.692 15.1497778,33.900254 15.4831111,33.9421587 C15.700254,33.9688254 15.8793016,34.1294603 16.0983492,34.1415238 C16.2939048,34.1529524 16.459619,34.3097778 16.6659683,34.2481905 C16.8900952,34.4145397 17.1713651,34.3739048 17.4215238,34.4266032 C17.7085079,34.4881905 18.0069206,34.5370794 18.3059683,34.564381 C18.636127,34.5948571 18.9656508,34.6469206 19.2977143,34.660254 C19.9415238,34.6856508 20.5866032,34.6615238 21.2291429,34.6234286 C21.6310476,34.5993016 22.0291429,34.5275556 22.4227937,34.4342222 C22.6405714,34.3827937 22.8640635,34.3313651 23.0824762,34.3129524 C23.2799365,34.2951746 23.4666032,34.2494603 23.6564444,34.2113651 C23.8754921,34.1669206 24.076127,34.0710476 24.284381,33.9935873 C24.5777143,33.884381 24.8780317,33.7859683 25.1789841,33.6964444 C25.2894603,33.6640635 25.3523175,33.5415238 25.4773968,33.5624762 C25.5593016,33.5764444 25.6310476,33.5599365 25.7015238,33.5205714 C25.7821587,33.4748571 25.8589841,33.4132698 25.9459683,33.3910476 C26.2031111,33.3256508 26.4335873,33.1954921 26.6545397,33.0640635 C26.8977143,32.9193016 27.1427937,32.7694603 27.3942222,32.6488254 C27.5624762,32.5681905 27.7358095,32.4780317 27.8621587,32.3650159 C28.0691429,32.1815238 28.3364444,32.1091429 28.5377143,31.9250159 C28.7193016,31.7580317 28.9573968,31.6627937 29.1015238,31.4418413 C29.1504127,31.3662857 29.2094603,31.2424762 29.324381,31.2456508 C29.4469206,31.2481905 29.5167619,31.1815238 29.5885079,31.1085079 C29.7193016,30.9745397 29.8297778,30.8151746 29.9777143,30.7072381 C30.1408889,30.5891429 30.2888254,30.4621587 30.3986667,30.2977143 C30.4989841,30.1466032 30.6932698,30.1135873 30.7885079,29.9529524 C30.8589841,29.8348571 30.9440635,29.7256508 31.0532698,29.6285079 C31.3586667,29.3548571 31.5700952,28.9993016 31.8373968,28.6913651 C31.9408889,28.5732698 31.9472381,28.4100952 32.0348571,28.2951746 C32.1542222,28.139619 32.276127,27.9885079 32.3846984,27.8221587 C32.556127,27.5586667 32.716127,27.2875556 32.8958095,27.0297778 C32.9218413,26.9916825 32.9275556,26.9580317 32.9269206,26.9142222 C32.9256508,26.8469206 32.8545397,26.7294603 33.0221587,26.7580317 C33.0424762,26.7612063 33.0570794,26.7212063 33.0539048,26.6945397 C33.0488254,26.644381 33.0615238,26.5967619 33.0951746,26.564381 C33.3262857,26.3370794 33.3199365,25.9948571 33.4951746,25.7427937 C33.6208889,25.5612063 33.660254,25.3440635 33.7466032,25.1459683 C33.8513651,24.9046984 33.8907302,24.6367619 34.0151746,24.3986667 C34.1015238,24.2342222 34.0723175,24.0418413 34.1154921,23.8666032 C34.1631111,23.6697778 34.1288254,23.6170794 33.9250159,23.6170794 L28.5758095,23.6170794 Z M8.79549206,29.3935873 C8.80501587,29.1662857 8.8304127,28.9923175 8.85009524,28.819619 C8.92438095,28.179619 9.10469841,27.5593016 9.19485714,26.9224762 C9.212,26.7999365 9.21136508,26.6773968 9.24501587,26.5542222 C9.31866667,26.2786667 9.38025397,25.9993016 9.41898413,25.7173968 C9.46215873,25.4094603 9.51993651,25.1034286 9.57453968,24.7999365 C9.66850794,24.2831111 9.73707937,23.7599365 9.8672381,23.2488254 C9.91485714,23.0627937 9.87485714,22.8659683 9.94787302,22.6799365 C10.0462857,22.4285079 10.0583492,22.1554921 10.1066032,21.8913651 C10.1446984,21.6812063 10.1275556,21.4666032 10.2253333,21.259619 C10.292,21.1180317 10.3612063,21.0627937 10.5123175,21.0615238 C12.403746,21.0481905 14.2945397,21.0685079 16.1866032,21.0405714 C18.4158095,21.0088254 20.6462857,21.0335873 22.876127,21.0329524 C22.9129524,21.0329524 22.9491429,21.0342222 22.9853333,21.0323175 C23.1980317,21.0227937 23.276127,20.9275556 23.2386667,20.7205714 C23.2323175,20.6881905 23.2266032,20.6532698 23.2475556,20.6310476 C23.364381,20.5072381 23.3281905,20.3466032 23.3548571,20.2018413 C23.3897778,20.0164444 23.3529524,19.9770794 23.1681905,19.9745397 C22.7681905,19.9688254 22.3688254,19.996127 21.9694603,19.9980317 C20.4050159,20.0062857 18.8412063,19.9904127 17.2773968,19.9789841 C15.0685079,19.9624762 12.859619,19.979619 10.6500952,19.9846984 C10.5700952,19.9853333 10.4970794,19.9427937 10.4939048,19.8850159 C10.4869206,19.7815238 10.4431111,19.6691429 10.4900952,19.5726349 C10.5631111,19.4240635 10.5713651,19.2577143 10.6081905,19.1040635 C10.6983492,18.724381 10.7250159,18.3307302 10.8246984,17.9504127 C10.9167619,17.6024762 10.9180317,17.2412063 10.980254,16.8881905 C11.0183492,16.667873 11.1148571,16.4634286 11.1523175,16.2418413 C11.1732698,16.116127 11.1116825,15.9923175 11.1593016,15.8716825 C11.2494603,15.6431111 11.2900952,15.3999365 11.339619,15.163746 C11.4456508,14.6564444 11.5104127,14.140254 11.6094603,13.6304127 C11.6729524,13.3046984 11.6869206,12.9707302 11.7866032,12.6488254 C11.8640635,12.3973968 11.9059683,12.1326349 11.8913651,11.8640635 C11.8856508,11.7529524 11.9383492,11.6659683 12.0393016,11.6310476 C12.1453333,11.5948571 12.2615238,11.5631111 12.372,11.5675556 C13.0418413,11.5967619 13.7123175,11.579619 14.3827937,11.580254 C15.187873,11.5808889 15.9929524,11.5700952 16.7973968,11.563746 C17.2773968,11.5593016 17.7586667,11.6024762 18.2418413,11.5866032 C18.8183492,11.5669206 19.396127,11.5859683 19.9726349,11.5815238 C21.5675556,11.5694603 23.1631111,11.6113651 24.7580317,11.5529524 C24.924381,11.5472381 25.0215238,11.483746 25.0132698,11.3193016 C25.0031111,11.1332698 25.1148571,10.9567619 25.0456508,10.7681905 C25.0380317,10.7459683 25.060254,10.7091429 25.0754921,10.6831111 C25.1142222,10.6139048 25.1307302,10.5364444 25.139619,10.459619 C25.1669206,10.2253333 25.196127,9.99739683 25.2634286,9.76565079 C25.3929524,9.31866667 25.3986667,8.84374603 25.5205714,8.39231746 C25.5739048,8.19549206 25.4989841,7.97580952 25.5948571,7.79485714 C25.6691429,7.6551746 25.6462857,7.50533333 25.6881905,7.36311111 C25.7427937,7.17834921 25.7497778,6.96755556 25.7986667,6.77136508 C25.8532698,6.55168254 25.8170794,6.43231746 25.6005714,6.37644444 C25.4539048,6.33834921 25.3345397,6.23739683 25.1948571,6.21834921 C25.0107302,6.1935873 24.8691429,6.08057143 24.699619,6.03104762 C24.644381,6.01453968 24.5866032,6.01073016 24.5339048,5.9935873 C24.4627937,5.97136508 24.3129524,6.11739683 24.323746,5.90342857 C24.324381,5.89644444 24.2894603,5.88311111 24.2697778,5.87993651 C23.9726349,5.83739683 23.6926349,5.71485714 23.3904127,5.6951746 C23.3085079,5.69073016 23.2526349,5.58787302 23.1510476,5.63612698 C23.0805714,5.66850794 23.0088254,5.64628571 22.947873,5.59549206 C22.8812063,5.53961905 22.7967619,5.50977778 22.716127,5.51231746 C22.523746,5.51866667 22.3472381,5.44946032 22.163746,5.42088889 C21.523746,5.32057143 20.8748571,5.28374603 20.2272381,5.25263492 C19.676127,5.2272381 19.1288254,5.29009524 18.579619,5.33263492 C18.036127,5.37580952 17.5072381,5.50279365 16.9681905,5.57009524 C16.924381,5.57580952 16.884381,5.6088254 16.8412063,5.62596825 C16.7929524,5.64438095 16.7408889,5.68120635 16.6964444,5.6735873 C16.4964444,5.64120635 16.3142222,5.72819048 16.1339048,5.772 C15.8881905,5.83104762 15.6577143,5.9472381 15.4056508,6.012 C15.1840635,6.06914286 14.9586667,6.15485714 14.740254,6.24565079 C14.339619,6.41136508 13.924381,6.54215873 13.5516825,6.772 C13.4983492,6.80501587 13.4399365,6.82025397 13.3758095,6.82787302 C13.2989841,6.83612698 13.2189841,6.86660317 13.2012063,6.95549206 C13.1929524,6.99739683 13.163746,6.9904127 13.1446984,7.00755556 C13.0354921,7.10533333 12.8481905,7.04374603 12.7694603,7.1967619 C12.5180317,7.17707937 12.4373968,7.4672381 12.2145397,7.50215873 C12.1866032,7.50660317 12.1586667,7.53707937 12.1669206,7.57326984 C12.1821587,7.64438095 12.1453333,7.6272381 12.107873,7.612 C12.0640635,7.5935873 12.0240635,7.60120635 11.996127,7.63866667 C11.9180317,7.74215873 11.7123175,7.71612698 11.7186667,7.9104127 C11.7186667,7.92438095 11.6577143,7.94025397 11.6259683,7.95612698 C11.4266032,8.06025397 11.2081905,8.13961905 11.0583492,8.31485714 C10.9370794,8.45580952 10.7993016,8.5688254 10.636127,8.65326984 C10.4799365,8.73326984 10.4450159,8.96247619 10.2348571,8.97834921 C10.2100952,8.98025397 10.172,9.01453968 10.1681905,9.03866667 C10.1231111,9.29707937 9.80819048,9.29961905 9.71104762,9.52501587 C9.67739683,9.60247619 9.53898413,9.67104762 9.45834921,9.7535873 C9.32247619,9.89326984 9.21898413,10.076127 9.06088889,10.1789841 C8.80184127,10.3485079 8.6704127,10.6183492 8.49961905,10.8462857 C8.40247619,10.9758095 8.24374603,11.0545397 8.1872381,11.220254 C8.16184127,11.2939048 8.02152381,11.3269206 8.12057143,11.443746 C8.14279365,11.4704127 8.10469841,11.5008889 8.0735873,11.5104127 C7.89771429,11.563746 7.83422222,11.716127 7.77390476,11.8646984 C7.72692063,11.9815238 7.64628571,12.0945397 7.57136508,12.1656508 C7.48628571,12.2475556 7.42596825,12.3307302 7.3751746,12.4285079 C7.33073016,12.5142222 7.31168254,12.6380317 7.25961905,12.6875556 C7.09136508,12.8488254 7.012,13.059619 6.92247619,13.2545397 C6.80565079,13.5059683 6.66850794,13.7459683 6.55231746,13.9980317 C6.47866667,14.1586667 6.44946032,14.3434286 6.36946032,14.4862857 C6.19739683,14.7942222 6.16311111,15.1421587 6.01707937,15.4545397 C5.87866667,15.7485079 5.812,16.0691429 5.72247619,16.3808889 C5.6672381,16.5713651 5.64755556,16.7739048 5.59231746,16.9669206 C5.58406349,16.9954921 5.58850794,17.0304127 5.59612698,17.060254 C5.61961905,17.1497778 5.60247619,17.2373968 5.57707937,17.3212063 C5.38406349,17.9681905 5.31866667,18.6304127 5.30152381,19.3021587 C5.2951746,19.5459683 5.33326984,19.7935873 5.29834921,20.0310476 C5.2488254,20.3713651 5.33136508,20.7008889 5.32501587,21.0380317 C5.31803175,21.4234286 5.38914286,21.8107302 5.43803175,22.196127 C5.45771429,22.3548571 5.51739683,22.507873 5.53898413,22.6659683 C5.54850794,22.7370794 5.64692063,22.6989841 5.63739683,22.7973968 C5.61263492,23.0481905 5.63612698,23.2977143 5.72692063,23.5421587 C5.75993651,23.6310476 5.8672381,23.6900952 5.83612698,23.8031111 C5.79612698,23.9485079 5.86025397,24.0773968 5.89898413,24.2113651 C5.95231746,24.3967619 6.04565079,24.5662857 6.10596825,24.7466032 C6.18850794,24.9904127 6.28438095,25.2285079 6.36628571,25.4716825 C6.41390476,25.6151746 6.52438095,25.7288254 6.55993651,25.8666032 C6.60819048,26.0564444 6.71104762,26.2170794 6.77771429,26.3942222 C6.84311111,26.5675556 7.00247619,26.6805714 7.05644444,26.8564444 C7.21326984,27.3681905 7.57834921,27.7573968 7.84438095,28.2056508 C7.97073016,28.4170794 8.12374603,28.6107302 8.26914286,28.8094603 C8.41961905,29.0139048 8.60374603,29.1713651 8.79549206,29.3935873 L8.79549206,29.3935873 Z M7.09771429,4.55422222 C7.21390476,4.60692063 7.28755556,4.57009524 7.35866667,4.50596825 C7.59104762,4.29961905 7.83930159,4.1135873 8.08501587,3.92374603 C8.34406349,3.72438095 8.59739683,3.52438095 8.88120635,3.35739683 C9.06660317,3.24819048 9.26914286,3.14215873 9.412,2.96184127 C9.46342857,2.89707937 9.55295238,2.85326984 9.6335873,2.82279365 C9.89644444,2.72247619 10.1453333,2.59422222 10.387873,2.45136508 C10.5612063,2.34914286 10.7256508,2.2272381 10.9072381,2.14279365 C11.0862857,2.05961905 11.2697778,1.98977778 11.443746,1.892 C11.6177143,1.79485714 11.8145397,1.73771429 11.9967619,1.65453968 C12.2558095,1.53707937 12.5173968,1.42533333 12.7821587,1.32184127 C13.0716825,1.2088254 13.372,1.12501587 13.6672381,1.02787302 C13.6964444,1.01834921 13.7326349,1.01263492 13.7529524,0.992952381 C13.9205714,0.834222222 14.1389841,0.855174603 14.3408889,0.805650794 C14.5199365,0.76247619 14.7027937,0.721206349 14.8786667,0.660888889 C15.0100952,0.614539683 15.139619,0.555492063 15.2850159,0.567555556 C15.3053333,0.569460317 15.3307302,0.571365079 15.3466032,0.561206349 C15.6621587,0.366920635 16.0348571,0.403111111 16.3770794,0.323111111 C16.6608889,0.257079365 16.9567619,0.198031746 17.2583492,0.188507937 C17.4742222,0.18152381 17.7027937,0.171365079 17.9059683,0.0634285714 C17.9231111,0.0545396825 17.9459683,0.0500952381 17.9662857,0.052 C18.5948571,0.104063492 19.2183492,-0.0102222222 19.8475556,0.00120634921 C20.460254,0.0113650794 21.0735873,0.0342222222 21.6856508,0.0507301587 C21.9605714,0.0577142857 22.2412063,0.0932698413 22.5154921,0.168190476 C22.7326349,0.227873016 22.9681905,0.217714286 23.1923175,0.257079365 C23.4729524,0.306603175 23.7554921,0.335809524 24.0354921,0.394222222 C24.5916825,0.511047619 25.1307302,0.697714286 25.684381,0.810095238 C26.1123175,0.897079365 26.4907302,1.09771429 26.9027937,1.21326984 C27.0646984,1.25834921 27.1370794,1.44692063 27.1224762,1.62406349 C27.0951746,1.94469841 27.1053333,2.26787302 27.1205714,2.58977778 C27.123746,2.67295238 27.1339048,2.75549206 27.1370794,2.83803175 C27.1497778,3.20692063 27.1535873,3.5751746 27.1669206,3.94406349 C27.180254,4.32057143 27.1542222,4.69834921 27.1986667,5.0767619 C27.2151746,5.21771429 27.1777143,5.36565079 27.1751746,5.5104127 C27.1726349,5.70215873 27.2640635,5.78152381 27.452,5.78914286 C28.667873,5.83866667 29.884381,5.80438095 31.100254,5.80819048 C33.1275556,5.8151746 35.1548571,5.81136508 37.1821587,5.8088254 C37.4646984,5.80819048 37.7466032,5.78406349 38.0297778,5.78152381 C38.1897778,5.77961905 38.2094603,5.88819048 38.1897778,5.97580952 C38.1091429,6.34025397 38.0951746,6.71295238 38.0259683,7.07930159 C37.9523175,7.47422222 37.8481905,7.8672381 37.8158095,8.26914286 C37.7973968,8.50533333 37.692,8.7167619 37.6691429,8.95104762 C37.6158095,9.492 37.476127,10.019619 37.3916825,10.556127 C37.3370794,10.9034286 37.2577143,11.243746 37.2354921,11.5973968 C37.2234286,11.7808889 37.1053333,11.9580317 37.107873,12.1529524 C37.1116825,12.4977143 36.9770794,12.819619 36.9516825,13.1624762 C36.9339048,13.404381 36.8513651,13.644381 36.8221587,13.8926349 C36.8094603,13.996127 36.7288254,14.1142222 36.5650159,14.1148571 C36.4354921,14.1154921 36.3059683,14.1091429 36.1764444,14.1104127 C35.3091429,14.116127 34.4412063,14.1370794 33.5751746,14.1269206 C32.5980317,14.1154921 31.6215238,14.1224762 30.6450159,14.1129524 C30.2824762,14.1097778 29.9173968,14.1523175 29.5567619,14.1313651 C29.0989841,14.1053333 28.6412063,14.0939048 28.1859683,14.1186667 C27.660254,14.1472381 27.1364444,14.0824762 26.6139048,14.1154921 C26.1300952,14.1459683 25.6475556,14.1300952 25.164381,14.1377143 C25.0215238,14.140254 24.8780317,14.0862857 24.7351746,14.1523175 C24.6932698,14.1707302 24.660254,14.1859683 24.652,14.2316825 C24.6075556,14.460254 24.5275556,14.684381 24.5256508,14.9193016 C24.523746,15.1872381 24.6050159,15.236127 24.8723175,15.2177143 C25.3694603,15.1821587 25.8691429,15.1954921 26.3675556,15.2107302 C26.4558095,15.2132698 26.5434286,15.2266032 26.6316825,15.2266032 C29.4386667,15.227873 32.2462857,15.2316825 35.0532698,15.2227937 C35.4627937,15.2215238 35.8735873,15.1980317 36.283746,15.2005714 C36.5339048,15.2018413 36.5726349,15.2450159 36.5269206,15.4831111 C36.4424762,15.9256508 36.3339048,16.3624762 36.2685079,16.8088254 C36.2577143,16.8818413 36.2456508,16.9529524 36.2627937,17.0246984 C36.2767619,17.0831111 36.276127,17.1377143 36.2424762,17.1897778 C36.1700952,17.3015238 36.1504127,17.4177143 36.2018413,17.5453333 C36.2240635,17.5993016 36.227873,17.659619 36.1523175,17.6862857 C36.1199365,17.6983492 36.0977143,17.7256508 36.1008889,17.7573968 C36.1224762,17.9910476 35.9993016,18.2005714 35.9967619,18.4316825 C35.9948571,18.6107302 35.8875556,18.7700952 35.8666032,18.9523175 C35.8500952,19.1015238 35.8132698,19.2469206 35.8107302,19.3986667 C35.8056508,19.6342222 35.6793016,19.8450159 35.6659683,20.0812063 C35.6627937,20.1453333 35.6418413,20.2100952 35.6513651,20.2780317 C35.6659683,20.387873 35.6500952,20.4913651 35.6081905,20.5973968 C35.4793016,20.9224762 35.4640635,21.2742222 35.3897778,21.612 C35.2793016,22.1218413 35.2316825,22.644381 35.0888254,23.1485079 C35.052,23.2773968 35.1612063,23.4056508 35.2945397,23.4056508 C36.5942222,23.4050159 37.8939048,23.4050159 39.1935873,23.403746 C39.2926349,23.403746 39.3910476,23.4126349 39.4869206,23.436127 C39.6126349,23.4672381 39.659619,23.6018413 39.6399365,23.724381 C39.6062857,23.9427937 39.4939048,24.147873 39.540254,24.3808889 C39.564381,24.5034286 39.4850159,24.6075556 39.4323175,24.7142222 C39.3224762,24.9345397 39.2970794,25.1758095 39.2646984,25.4151746 C39.2615238,25.4405714 39.2729524,25.4723175 39.2621587,25.4913651 C39.1510476,25.6907302 39.1529524,25.9421587 39.0526349,26.1199365 C38.8608889,26.4615238 38.8418413,26.8577143 38.6424762,27.187873 C38.5980317,27.2627937 38.6424762,27.356127 38.6107302,27.4450159 C38.5504127,27.612 38.3916825,27.7059683 38.3377143,27.8767619 C38.2869206,28.0367619 38.1777143,28.1745397 38.1986667,28.3612063 C38.2056508,28.419619 38.1808889,28.5097778 38.0723175,28.5256508 C37.9999365,28.5364444 37.9967619,28.6285079 37.9707302,28.6881905 C37.9015238,28.8513651 37.8507302,29.0272381 37.7567619,29.1745397 C37.6672381,29.3148571 37.5726349,29.4431111 37.5688254,29.6158095 C37.5681905,29.6532698 37.5313651,29.6615238 37.5104127,29.6824762 C37.3897778,29.8005714 37.3294603,29.9542222 37.2532698,30.1021587 C37.1999365,30.2056508 37.140254,30.300254 37.1300952,30.4183492 C37.1294603,30.4266032 37.1180317,30.436127 37.1091429,30.4399365 C37.0367619,30.4685079 37.036127,30.467873 37.0266032,30.5523175 C37.0240635,30.5732698 37.0246984,30.5948571 36.9993016,30.6031111 C36.8513651,30.6494603 36.7904127,30.7205714 36.7739048,30.8793016 C36.7688254,30.924381 36.7751746,30.9605714 36.7097778,30.9548571 C36.6481905,30.9491429 36.6069206,31.0005714 36.5923175,31.043746 C36.484381,31.3707302 36.220254,31.6005714 36.0577143,31.8958095 C35.9948571,32.0107302 35.9135873,32.1694603 35.7573968,32.2310476 C35.7212063,32.2456508 35.6926349,32.283746 35.6964444,32.3313651 C35.7072381,32.4767619 35.659619,32.5427937 35.5180317,32.5675556 C35.4126349,32.5859683 35.4100952,32.6856508 35.3739048,32.7523175 C35.3218413,32.8450159 35.2272381,32.9027937 35.179619,32.9758095 C35.0742222,33.1364444 34.9040635,33.2335873 34.8145397,33.4012063 C34.747873,33.5262857 34.6500952,33.6164444 34.5370794,33.7066032 C34.3631111,33.844381 34.1548571,33.996127 34.0685079,34.1783492 C33.9510476,34.4246984 33.692,34.4513651 33.5542222,34.6469206 C33.4266032,34.827873 33.2132698,34.9288254 33.0685079,35.1129524 C32.9605714,35.2513651 32.8221587,35.4075556 32.6354921,35.4742222 C32.4786667,35.5307302 32.3497778,35.6386667 32.2481905,35.7529524 C32.1446984,35.8697778 32.0240635,35.9408889 31.8970794,36.0139048 C31.8640635,36.0335873 31.8393016,36.0583492 31.8373968,36.0989841 C31.8354921,36.139619 31.8132698,36.1707302 31.7783492,36.1846984 C31.3935873,36.3300952 31.0875556,36.6081905 30.732,36.8012063 C30.6335873,36.8545397 30.6735873,36.9466032 30.6158095,36.9929524 C30.5567619,37.0412063 30.4869206,36.9097778 30.4100952,37.0005714 C30.3275556,37.0977143 30.2031111,37.147873 30.1104127,37.243746 C30.0393016,37.3167619 29.8900952,37.2888254 29.804381,37.3834286 C29.7853333,37.4031111 29.7459683,37.4183492 29.7173968,37.4399365 C29.6405714,37.4958095 29.5853333,37.6050159 29.4608889,37.5573968 C29.4570794,37.5554921 29.4488254,37.5586667 29.4462857,37.5624762 C29.2983492,37.7370794 29.0672381,37.7631111 28.8780317,37.8608889 C28.723746,37.940254 28.6094603,38.0850159 28.4189841,38.1129524 C28.243746,38.1389841 28.076127,38.2386667 27.9269206,38.3199365 C27.6189841,38.4875556 27.2939048,38.5846984 26.9675556,38.6913651 C26.9300952,38.7040635 26.8951746,38.7300952 26.8627937,38.7548571 C26.7853333,38.8151746 26.7142222,38.8393016 26.6012063,38.8348571 C26.4551746,38.8291429 26.3015238,38.9021587 26.1567619,38.9567619 C25.8316825,39.0799365 25.4894603,39.1504127 25.1624762,39.2627937 C24.6805714,39.4285079 24.1624762,39.4393016 23.6881905,39.6329524 C23.5821587,39.676127 23.4526349,39.6666032 23.3339048,39.6685079 C23.0856508,39.6716825 22.8367619,39.732 22.6031111,39.7789841 C22.3573968,39.8285079 22.0932698,39.7491429 21.8627937,39.8850159 C21.8221587,39.9085079 21.7593016,39.907873 21.7104127,39.900254 C21.3294603,39.8393016 20.956127,39.9523175 20.5770794,39.940254 C20.0075556,39.9224762 19.4354921,39.9688254 18.8672381,39.8881905 C18.8005714,39.8780317 18.7326349,39.8716825 18.6659683,39.8754921 C18.2653333,39.900254 17.8646984,39.852 17.476127,39.7929524 C17.0697778,39.7300952 16.6583492,39.6875556 16.252,39.5948571 C15.8418413,39.5015238 15.4354921,39.3688254 15.0094603,39.3326349 C14.8393016,39.3180317 14.6786667,39.220254 14.5085079,39.1726349 C14.2862857,39.1091429 14.0615238,39.0526349 13.8475556,38.9542222 C13.7370794,38.9040635 13.5986667,38.9669206 13.4735873,38.9021587 C13.427873,38.8780317 13.3789841,38.8672381 13.3345397,38.8272381 C13.1986667,38.7046984 13.0189841,38.6723175 12.8481905,38.644381 C12.7688254,38.6310476 12.6881905,38.6246984 12.6310476,38.5770794 C12.500254,38.4704127 12.3389841,38.4526349 12.187873,38.4031111 C12.1053333,38.3758095 11.9986667,38.3789841 11.9650159,38.2659683 C11.9618413,38.2558095 11.940254,38.2481905 11.9256508,38.243746 C11.6900952,38.172 11.4824762,38.0393016 11.2640635,37.932 C10.9650159,37.7834286 10.6386667,37.684381 10.3732698,37.4735873 C10.2824762,37.4018413 10.1656508,37.4380317 10.0710476,37.3656508 C9.8335873,37.1859683 9.58088889,37.0272381 9.33580952,36.8570794 C9.27422222,36.8139048 9.21390476,36.779619 9.13580952,36.7827937 C9.08755556,36.7846984 9.052,36.7789841 9.04755556,36.707873 C9.04120635,36.6056508 8.92057143,36.6259683 8.86025397,36.5700952 C8.7504127,36.4672381 8.61326984,36.3815238 8.42660317,36.3916825 C8.49834921,36.2754921 8.41326984,36.2310476 8.33009524,36.1929524 C8.13707937,36.1034286 7.96692063,35.9935873 7.80628571,35.844381 C7.70977778,35.7542222 7.61453968,35.6310476 7.47231746,35.5745397 C7.36247619,35.532 7.30469841,35.4088254 7.21707937,35.332 C7.0488254,35.1846984 6.86025397,35.059619 6.67803175,34.9281905 C6.64946032,34.907873 6.63295238,34.8881905 6.62977778,34.8551746 C6.62342857,34.7980317 6.58660317,34.7472381 6.54279365,34.7326349 C6.30596825,34.6545397 6.21136508,34.4139048 6.01771429,34.2862857 C5.9135873,34.2170794 5.81073016,34.1307302 5.76374603,34.0005714 C5.75612698,33.9789841 5.73136508,33.9580317 5.70914286,33.9497778 C5.53453968,33.8850159 5.44692063,33.7389841 5.36120635,33.5885079 C5.33009524,33.5326349 5.32374603,33.4132698 5.20184127,33.4926349 C5.17263492,33.5110476 5.15803175,33.4742222 5.1504127,33.4507302 C5.07485714,33.203746 4.88438095,33.0373968 4.72438095,32.8507302 C4.55866667,32.6570794 4.38850794,32.467873 4.21898413,32.2793016 C4.17961905,32.2348571 4.16374603,32.1783492 4.132,32.1326349 C4.08311111,32.0621587 4.07549206,31.9427937 3.94596825,31.9542222 C3.93771429,31.9548571 3.92184127,31.9459683 3.92120635,31.940254 C3.89834921,31.6856508 3.63803175,31.5770794 3.56247619,31.3554921 C3.56120635,31.3504127 3.56057143,31.340254 3.55930159,31.340254 C3.36311111,31.3262857 3.47485714,31.1129524 3.36628571,31.0386667 C3.33834921,31.019619 3.32438095,30.9827937 3.28501587,30.9726349 C3.26088889,30.9669206 3.21834921,30.9491429 3.21961905,30.9421587 C3.25771429,30.6977143 3.00057143,30.6272381 2.92501587,30.443746 C2.87485714,30.3212063 2.8304127,30.1726349 2.68946032,30.0913651 C2.62152381,30.0532698 2.71104762,29.9459683 2.65898413,29.8875556 C2.46596825,29.6716825 2.41136508,29.3758095 2.22406349,29.1573968 C2.12946032,29.0469206 2.12057143,28.8907302 2.03422222,28.772 C1.86088889,28.5358095 1.79612698,28.2469206 1.67739683,27.9846984 C1.58279365,27.7770794 1.50279365,27.5567619 1.40946032,27.3446984 C1.24501587,26.9700952 1.16755556,26.5624762 0.966920635,26.1999365 C0.905333333,26.0894603 0.933904762,25.9491429 0.892634921,25.8221587 C0.827873016,25.620254 0.723111111,25.4259683 0.690095238,25.2234286 C0.645650794,24.9510476 0.565015873,24.6900952 0.503428571,24.4240635 C0.441206349,24.1593016 0.43168254,23.8818413 0.307873016,23.6316825 C0.290095238,23.5967619 0.290730159,23.5510476 0.286285714,23.5104127 C0.243111111,23.1135873 0.20247619,22.716127 0.156126984,22.3193016 C0.149777778,22.2589841 0.163746032,22.179619 0.0704126984,22.1554921 C0.0354920635,22.1466032 0.0405714286,22.1046984 0.045015873,22.0742222 C0.0932698413,21.7434286 0.0608888889,21.4107302 0.0335873016,21.0824762 C-0.014031746,20.516127 -0.00133333333,19.9497778 0.0132698413,19.3840635 C0.0202539683,19.1186667 -0.00958730159,18.8469206 0.0615238095,18.5840635 C0.0704126984,18.5504127 0.0761269841,18.5072381 0.0640634921,18.4754921 C-0.0248253968,18.2462857 0.0627936508,18.0259683 0.103428571,17.8069206 C0.224698413,17.1497778 0.283746032,16.4824762 0.446920635,15.8329524 C0.526285714,15.5186667 0.524380952,15.1904127 0.629142857,14.8812063 C0.67231746,14.7542222 0.74215873,14.6323175 0.763111111,14.5015238 C0.809460317,14.2126349 0.971365079,13.9593016 0.994222222,13.6640635 C1.00057143,13.5821587 1.02977778,13.4977143 1.09580952,13.4266032 C1.18787302,13.3275556 1.19866667,13.1897778 1.21326984,13.0621587 C1.2304127,12.9097778 1.28438095,12.7872381 1.37644444,12.6570794 C1.49263492,12.4926349 1.5935873,12.2932698 1.61453968,12.0888254 C1.62914286,11.9459683 1.69263492,11.8316825 1.76057143,11.7332698 C1.90914286,11.5173968 1.99485714,11.2748571 2.10406349,11.0431111 C2.20755556,10.8253333 2.34215873,10.6246984 2.43295238,10.3967619 C2.48565079,10.2634286 2.58215873,10.1377143 2.62914286,9.98469841 C2.68247619,9.81326984 2.84184127,9.69898413 2.94088889,9.54787302 C3.09834921,9.30977778 3.26596825,9.07739683 3.36628571,8.81009524 C3.41707937,8.6735873 3.57834921,8.65073016 3.61644444,8.50469841 C3.65263492,8.36755556 3.76247619,8.27612698 3.86660317,8.17961905 C3.98152381,8.07422222 3.96692063,7.87803175 4.09390476,7.77961905 C4.37390476,7.56438095 4.54914286,7.25898413 4.78342857,7.00565079 C4.84501587,6.93898413 4.93707937,6.89009524 4.92438095,6.77707937 C4.92311111,6.76501587 4.9351746,6.74469841 4.94533333,6.74025397 C5.18533333,6.64057143 5.33263492,6.41580952 5.4551746,6.2272381 C5.56184127,6.06406349 5.71803175,6.00438095 5.83295238,5.87930159 C6.11866667,5.56755556 6.43168254,5.28184127 6.75231746,5.00628571 C6.83485714,4.9351746 6.92565079,4.8735873 7.01009524,4.80501587 C7.08374603,4.74469841 7.16184127,4.68438095 7.09771429,4.55422222 L7.09771429,4.55422222 Z" id="Fill-1" fill="#F5FCFF"></path>
                    <path d="M83.5243175,15.7227302 C83.9700317,15.7227302 84.359873,15.7119365 84.7497143,15.7265397 C85.032254,15.7360635 85.1643175,15.611619 85.2595556,15.3493968 C85.5649524,14.5113016 85.8938413,13.6808254 86.224,12.852254 C86.3871746,12.444 86.3528889,12.3735238 85.911619,12.3671746 C85.2043175,12.3576508 84.495746,12.3766984 83.7890794,12.3417778 C83.2487619,12.3151111 83.1655873,12.388127 83.3509841,12.9125714 C83.5332063,13.4262222 83.7446349,13.9290794 83.9186032,14.4446349 C84.0005079,14.6878095 84.2468571,14.884 84.1808254,15.1627302 C84.1097143,15.4605079 83.7414603,15.4459048 83.5243175,15.7227302 M86.7389206,25.4966984 C86.7389206,25.892254 86.7382857,26.2871746 86.7389206,26.6827302 C86.7401905,27.8636825 86.7052698,29.0465397 86.7605079,30.2255873 C86.7852698,30.7589206 86.5268571,31.2020952 86.4786032,31.7024127 C86.4659048,31.8351111 86.2436825,31.8008254 86.1306667,31.9087619 C85.6011429,32.4154286 84.9262222,32.5925714 84.2252698,32.7595556 C83.4697143,32.9392381 82.719873,32.8554286 81.968127,32.8827302 C81.6836825,32.8935238 81.5427302,32.764 81.5173333,32.4643175 C81.4392381,31.5347937 81.1966984,30.6338413 80.9960635,29.7265397 C80.9719365,29.6173333 80.9427302,29.5093968 80.9147937,29.4008254 C80.8455873,29.1278095 80.9497143,29.0192381 81.2328889,29.0052698 C81.6544762,28.9843175 82.0703492,29.0789206 82.495746,29.0230476 C82.8551111,28.9754286 83.0043175,28.7684444 83.0062222,28.451619 C83.015746,26.9093968 83.0074921,25.3671746 83.0132063,23.8255873 C83.0144762,23.5259048 82.8455873,23.4865397 82.6036825,23.4871746 C81.4474921,23.491619 80.2906667,23.4884444 79.1338413,23.4871746 C78.6017778,23.4871746 78.5376508,23.4211429 78.5382857,22.8827302 C78.5389206,22.2865397 78.5313016,21.6890794 78.5414603,21.092254 C78.5497143,20.596381 78.6500317,20.5036825 79.1351111,20.5030476 C80.279873,20.5005079 81.4233651,20.492254 82.5674921,20.5055873 C82.9071746,20.5093968 83.0443175,20.3913016 83.0182857,20.0497143 C82.9979683,19.7906667 83.0017778,19.5271746 83.0170159,19.2674921 C83.0354286,18.9589206 82.9033651,18.851619 82.6005079,18.8541587 C81.3319365,18.8630476 80.064,18.8579683 78.7954286,18.8573333 C78.4970159,18.8573333 78.1986032,18.8611429 77.9008254,18.8471746 C77.6303492,18.8338413 77.4836825,18.6820952 77.5205079,18.4065397 C77.6182857,17.6744762 77.5230476,16.9430476 77.5287619,16.212254 C77.5319365,15.8084444 77.5776508,15.7335238 77.9878095,15.7290794 C78.7338413,15.7220952 79.479873,15.7125714 80.2259048,15.7290794 C80.5541587,15.7360635 80.5884444,15.6160635 80.4659048,15.3576508 C80.1611429,14.7176508 79.9535238,14.0395556 79.6893968,13.3836825 C79.5560635,13.051619 79.6741587,12.9220952 79.9579683,12.835746 C80.4144762,12.6979683 80.871619,12.5620952 81.3338413,12.4236825 C81.2773333,12.3005079 81.1878095,12.2960635 81.1255873,12.3113016 C80.4468571,12.4820952 79.7713016,12.3036825 79.0951111,12.3062222 C78.376381,12.308127 78.3776508,12.3132063 78.3789206,11.6052698 C78.3808254,10.9709841 78.3744762,10.3366984 78.3814603,9.7024127 C78.3871746,9.23384127 78.4500317,9.21161905 78.9414603,9.21987302 C80.0354286,9.23828571 81.1300317,9.2255873 82.2246349,9.23193651 C82.4874921,9.23384127 82.5960635,9.10812698 82.5592381,8.86431746 C82.5014603,8.48590476 82.4252698,8.1087619 82.3554286,7.73161905 C82.3395556,7.64590476 82.3128889,7.56209524 82.2976508,7.47701587 C82.1605079,6.73352381 82.2468571,6.64146032 82.991619,6.61542857 C83.9592381,6.5824127 84.9255873,6.50939683 85.8932063,6.47955556 C86.5573333,6.4592381 86.5624127,6.51320635 86.6062222,7.15955556 C86.6474921,7.77479365 86.7592381,8.3855873 86.8360635,8.99892063 C86.8525714,9.13098413 86.9001905,9.17161905 87.048127,9.18431746 C88.2125714,9.28653968 89.3782857,9.20780952 90.5433651,9.23066667 C91.0620952,9.24146032 91.1046349,9.25288889 91.1236825,9.76590476 C91.151619,10.4986032 91.1433651,11.2332063 91.144,11.9665397 C91.144,12.2433651 90.999873,12.3652698 90.7166984,12.3506667 C89.552254,12.2941587 88.3890794,12.3684444 87.2182857,12.4249524 C88.1186032,12.588127 89.0182857,12.7576508 89.919873,12.9132063 C90.2982857,12.9786032 90.4093968,13.1786032 90.2062222,13.5087619 C89.8220952,14.132254 89.3782857,14.7170159 89.0265397,15.3627302 C88.8900317,15.6141587 88.8709841,15.7366984 89.2214603,15.7278095 C89.7935238,15.7119365 90.3655873,15.732254 90.9376508,15.7220952 C91.2544762,15.7170159 91.3827302,15.8459048 91.376381,16.1678095 C91.3617778,16.9005079 91.3573333,17.6351111 91.3751111,18.3684444 C91.3833651,18.7265397 91.2386032,18.8605079 90.8932063,18.8579683 C89.6995556,18.851619 88.5059048,18.8554286 87.311619,18.8573333 C86.7452698,18.8586032 86.7414603,18.8655873 86.7395556,19.4109841 C86.736381,20.5024127 86.736381,20.5030476 87.8208254,20.5024127 C88.6538413,20.5017778 89.4868571,20.4979683 90.3205079,20.4979683 C90.8843175,20.4973333 90.9179683,20.5290794 90.9192381,21.0782857 C90.9211429,21.7373333 90.9135238,22.396381 90.9236825,23.0554286 C90.9287619,23.3747937 90.7973333,23.4966984 90.4773333,23.4935238 C89.3954286,23.4820952 88.3135238,23.4865397 87.231619,23.4884444 C86.7649524,23.4890794 86.7414603,23.516381 86.7408254,23.9697143 C86.7395556,24.8109841 86.7903492,24.8370159 87.6017778,24.5970159 C88.0919365,24.4509841 88.5401905,24.2090794 89.0151111,24.0313016 C89.2684444,23.9366984 89.4252698,23.9773333 89.5459048,24.1913016 C89.7528889,24.5582857 89.9090794,24.9601905 90.1566984,25.2954286 C90.424,25.6566984 90.4614603,26.0941587 90.6551111,26.4744762 C90.7154286,26.5919365 90.7941587,26.684 90.9319365,26.6960635 C91.1078095,26.7125714 91.1255873,26.5633651 91.1573333,26.4503492 C91.4766984,25.3195556 91.768127,24.1913016 91.831619,23.0014603 C91.9497143,20.8008254 91.864,18.6014603 91.8855873,16.4020952 C91.9071746,14.2782857 91.8900317,12.1538413 91.8913016,10.0287619 C91.8913016,9.76907937 91.8951111,9.5087619 91.9059048,9.24844444 C91.9192381,8.94368254 92.1166984,8.88463492 92.3852698,8.85288889 C93.9135238,8.66749206 95.4455873,8.4871746 96.9166984,7.99892063 C98.1497143,7.59003175 99.4074921,7.24907937 100.58527,6.684 C100.777651,6.59066667 100.934476,6.63701587 101.077333,6.8071746 C101.324317,7.10114286 101.590349,7.37415873 101.934476,7.564 C102.14527,7.68146032 102.232889,7.92273016 102.384,8.09860317 C102.656381,8.41733333 102.999238,8.66939683 103.309714,8.95066667 C103.578286,9.19511111 103.877333,9.43384127 104.054476,9.7671746 C104.211302,10.0611429 104.105905,10.2713016 103.768762,10.3386032 C102.721143,10.5474921 101.676063,10.7690794 100.623365,10.9487619 C99.1827302,11.1951111 97.7401905,11.4255873 96.3078095,11.7170159 C95.704,11.8401905 95.6970159,11.8427302 95.6970159,12.4693968 C95.696381,13.3024127 95.695746,14.1360635 95.6970159,14.9690794 C95.6982857,15.4846349 95.7071746,15.4954286 96.215746,15.4954286 C98.6532063,15.4966984 101.090667,15.4960635 103.527492,15.4973333 C104.18019,15.4979683 104.208127,15.5252698 104.208127,16.1601905 C104.208762,16.8693968 104.202413,17.5786032 104.210032,18.2871746 C104.213206,18.6052698 104.130667,18.7513016 103.757333,18.7259048 C103.113524,18.684 102.464635,18.7271746 101.818286,18.7062222 C101.472889,18.6947937 101.361778,18.8274921 101.365587,19.1620952 C101.377651,20.3684444 101.369397,21.5747937 101.369397,22.7805079 C101.370032,26.076381 101.371302,29.371619 101.371302,32.6668571 C101.371302,33.3151111 101.352889,33.332254 100.698286,33.3328889 C99.8278095,33.3335238 98.9573333,33.331619 98.0868571,33.3290794 C97.5497143,33.3284444 97.4906667,33.2719365 97.4906667,32.7271746 C97.4887619,28.2878095 97.4893968,23.8484444 97.4893968,19.4090794 C97.4893968,18.715746 97.4887619,18.7151111 96.8074921,18.7106667 C96.6208254,18.7093968 96.4341587,18.7100317 96.248127,18.7113016 C95.6995556,18.7138413 95.6976508,18.7138413 95.6970159,19.2808254 C95.695746,20.299873 95.6874921,21.3195556 95.6989206,22.3392381 C95.7179683,23.9919365 95.4519365,25.6033651 95.0265397,27.1938413 C94.6132063,28.7392381 93.9497143,30.1779683 93.144,31.5519365 C93.0271746,31.7506667 93.088127,31.9805079 92.8976508,32.1741587 C92.5408254,32.5373333 92.256381,32.9709841 91.936381,33.371619 C91.8119365,33.5265397 91.6614603,33.451619 91.5313016,33.379873 C90.9459048,33.0579683 90.3693968,32.7182857 89.7789206,32.4059048 C89.4144762,32.2141587 89.0614603,31.996381 88.6633651,31.8719365 C88.3052698,31.7601905 88.2043175,31.5074921 88.4144762,31.1913016 C88.6709841,30.8046349 88.9668571,30.4154286 89.1605079,30.0217778 C89.304,29.7303492 89.5947937,29.6084444 89.6874921,29.3201905 C89.7135238,29.2401905 89.799873,29.1684444 89.7370159,29.0833651 C89.6659048,28.988127 89.5560635,29.0052698 89.464,29.0490794 C89.239873,29.156381 89.0106667,29.2566984 88.8011429,29.388127 C88.5166984,29.5671746 88.3668571,29.4592381 88.2620952,29.1868571 C87.9725714,28.4338413 87.6538413,27.6897143 87.4005079,26.9246349 C87.2373333,26.4300317 86.944,25.995746 86.8341587,25.484 C86.8024127,25.4884444 86.7706667,25.492254 86.7389206,25.4966984" id="Fill-3" fill="#F5FCFF"></path>
                    <path d="M67.8791746,7.44831746 C68.0544127,7.83561905 68.3426667,8.05403175 68.5940952,8.29339683 C69.3852063,9.04768254 70.1598095,9.81593651 70.916,10.6045079 C71.2099683,10.9099048 71.2067937,11.0026032 70.8252063,11.2133968 C70.2493333,11.5314921 69.6569524,11.819746 69.0791746,12.1340317 C68.1356825,12.6470476 67.2099683,13.1848254 66.2963175,13.7518095 C65.7394921,14.0978413 65.1680635,14.4305397 64.6061587,14.7772063 C64.300127,14.9651429 63.9261587,15.0565714 63.6010794,15.2368889 C63.404254,15.3454603 63.3026667,15.4851429 63.3172698,15.7124444 C63.3528254,16.2654603 63.2258413,16.8273651 63.4512381,17.3702222 C63.564254,17.6413333 63.7363175,17.7772063 64.0245714,17.8235556 C64.5820317,17.9118095 65.1407619,17.8737143 65.6988571,17.8864127 C65.9471111,17.8927619 66.2055238,17.8724444 66.4404444,17.9340317 C66.9572698,18.0686349 67.3820317,17.8324444 67.6537778,17.4978413 C68.028381,17.0368889 68.2671111,16.4660952 68.2391746,15.8318095 C68.227746,15.5708571 68.2372698,15.3092698 68.2245714,15.0489524 C68.2086984,14.7130794 68.3121905,14.6286349 68.6321905,14.7111746 C69.4093333,14.9143492 70.156,15.2241905 70.9496508,15.372127 C71.2906032,15.435619 71.627746,15.5232381 71.9699683,15.5753016 C72.2353651,15.6153016 72.3350476,15.763873 72.3198095,16.0089524 C72.2531429,17.0972063 72.1388571,18.1772063 71.8334603,19.2305397 C71.4912381,20.4064127 71.0410794,21.0641905 69.4137778,21.2565714 C67.2823492,21.5086349 65.1458413,21.3987937 63.0112381,21.3295873 C62.5515556,21.3149841 62.0963175,21.3645079 61.636,21.3473651 C60.8086984,21.315619 60.2099683,20.8565714 59.6112381,20.3753016 C59.500127,20.2864127 59.6048889,20.1600635 59.556,20.060381 C59.1826667,19.2991111 59.3033016,18.4813333 59.2823492,17.6787937 C59.2798095,17.5676825 59.2823492,17.4559365 59.2804444,17.3435556 C59.2766349,17.155619 59.2125079,17.1073651 59.0245714,17.1937143 C58.483619,17.4406984 57.931873,17.6660952 57.388381,17.9086349 C57.0823492,18.0451429 56.867746,18.0299048 56.6906032,17.6857778 C56.2988571,16.9251429 55.8639365,16.1873651 55.4582222,15.4330794 C55.3667937,15.2635556 55.2156825,15.1619683 55.0829841,14.9549841 C54.9712381,15.4953016 55.0544127,15.9759365 55.0480635,16.4502222 C55.0239365,18.2019683 55.0385397,19.9543492 55.0321905,21.7073651 C55.0309206,22.203873 54.940127,22.2845079 54.4353651,22.2870476 C53.6023492,22.2908571 52.7693333,22.292127 51.9356825,22.2902222 C51.4531429,22.2889524 51.371873,22.2076825 51.3712381,21.7232381 C51.3699683,20.0070476 51.3712381,18.2914921 51.3693333,16.5753016 C51.3693333,16.4559365 51.4055238,16.3283175 51.308381,16.1886349 C51.1591746,16.339746 51.0493333,16.4933968 50.9439365,16.675619 C50.8334603,16.8654603 50.6004444,16.9746667 50.4417143,17.1524444 C50.0715556,17.5695873 49.6537778,17.9441905 49.2798095,18.3594286 C49.0525079,18.6108571 48.8309206,18.6133968 48.6010794,18.4140317 C47.8804444,17.7867302 47.0874286,17.2419683 46.4467937,16.5270476 C46.2956825,16.3587937 46.1769524,16.4108571 45.9928254,16.5276825 C46.0112381,16.3613333 46.1255238,16.2394286 45.956,16.1067302 C45.8353651,16.012127 45.5953651,15.7860952 46.0671111,15.7073651 C46.3134603,15.6660952 46.5185397,15.3422857 46.7293333,15.1327619 C47.0810794,14.7816508 47.4899683,14.4622857 47.7471111,14.0502222 C47.9629841,13.7041905 48.2906032,13.5035556 48.5261587,13.2095873 C49.667746,11.7860952 50.7686984,10.3295873 51.716,8.7664127 C52.1223492,8.09657143 52.5204444,7.42101587 52.8899683,6.73085714 C53.0753651,6.38419048 53.3229841,6.41720635 53.6086984,6.51498413 C54.2067937,6.72006349 54.8055238,6.9232381 55.3972698,7.14419048 C55.9655238,7.35752381 56.5452063,7.54101587 57.0963175,7.8032381 C57.5020317,7.99561905 57.6328254,8.3048254 57.3407619,8.62292063 C56.988381,9.00704762 56.7356825,9.45847619 56.411873,9.86101587 C56.0233016,10.3448254 55.6144127,10.812127 55.2233016,11.2940317 C55.0906032,11.4572063 55.0315556,11.6318095 55.0328254,11.8413333 C55.0385397,12.6622857 55.0499683,13.4832381 55.0296508,14.3035556 C55.0207619,14.659746 55.1693333,14.7473651 55.4772698,14.6724444 C56.2975873,14.4724444 57.1045714,14.2273651 57.8791746,13.8908571 C58.2404444,13.7346667 58.6340952,13.6489524 58.9566349,13.3937143 C59.1058413,13.276254 59.203619,13.1689524 59.2017143,12.9714921 C59.1820317,11.0699048 59.2417143,9.16768254 59.1699683,7.26609524 C59.1661587,7.15434921 59.196,7.03879365 59.1763175,6.93212698 C59.1115556,6.57720635 59.3223492,6.49911111 59.603619,6.48069841 C60.140127,6.44387302 60.6740952,6.48895238 61.2023492,6.56260317 C61.5991746,6.61784127 61.996,6.63942857 62.3921905,6.61784127 C62.7274286,6.60006349 63.0220317,6.74863492 63.340127,6.79434921 C63.4671111,6.81212698 63.5261587,6.91498413 63.5337778,7.03688889 C63.5407619,7.14736508 63.5579048,7.268 63.5248889,7.3695873 C63.1769524,8.44006349 63.3579048,9.54165079 63.323619,10.6299048 C63.3121905,10.9854603 63.4379048,11.0527619 63.7490159,10.8502222 C64.4245714,10.4114921 65.0893333,9.95688889 65.756,9.5048254 C65.8588571,9.43498413 65.9407619,9.33974603 65.9629841,9.2064127 C65.9813968,9.09974603 66.0486984,9.00514286 66.1509206,8.99625397 C66.6664762,8.95371429 66.8423492,8.50419048 67.156,8.20831746 C67.404254,7.97403175 67.707746,7.79625397 67.8791746,7.44831746" id="Fill-5" fill="#F5FCFF"></path>
                    <path d="M123.914984,20.8312381 C123.914984,23.6217143 123.926413,26.3029841 123.90546,28.984254 C123.901651,29.536 124.023556,30.0661587 124.050857,30.608381 C124.100381,31.5810794 123.598794,32.223619 122.784825,32.6623492 C121.99054,33.0896508 121.104825,33.1417143 120.236254,33.2661587 C119.492127,33.3721905 118.74673,33.3182222 118.001968,33.3309206 C117.716254,33.336 117.553714,33.2013968 117.476889,32.9106032 C117.22419,31.9525079 116.960063,30.9969524 116.565143,30.0839365 C116.357524,29.6052063 116.455302,29.4617143 116.979746,29.5239365 C117.662286,29.6064762 118.334667,29.544254 119.007683,29.448381 C119.512444,29.3772698 119.748,29.0737778 119.727048,28.5658413 C119.713714,28.2426667 119.722603,27.9188571 119.722603,27.5956825 C119.721968,20.8826667 119.721968,14.1690159 119.721968,7.456 C119.721968,7.29409524 119.727683,7.13219048 119.726413,6.97092063 C119.725143,6.74044444 119.837524,6.62679365 120.068,6.62742857 C121.112444,6.62933333 122.156254,6.62996825 123.200698,6.63504762 C123.273714,6.63504762 123.347365,6.65853968 123.419746,6.67631746 C124.246413,6.88965079 124.203873,6.89219048 124.088317,7.73409524 C123.909905,9.0375873 123.840063,10.3398095 124.215937,11.6413968 C124.58927,12.9366349 124.927048,14.2426667 125.355619,15.5226667 C125.43054,15.7455238 125.454667,15.8261587 125.713714,15.6591746 C126.293397,15.2858413 126.672444,14.7169524 127.101651,14.2198095 C127.348,13.9340952 127.688952,13.7429841 127.886413,13.3874286 C128.11054,12.9848889 128.478159,12.6629841 128.770857,12.296 C129.037524,11.9620317 129.287048,11.6153651 129.543556,11.2744127 C129.688317,11.0820317 130.045778,11.0502857 130.286413,11.2172698 C130.937206,11.6706032 131.527048,12.1975873 132.134667,12.7055238 C132.520698,13.0280635 132.834984,13.3937778 133.135937,13.7728254 C133.647048,14.4134603 133.576571,14.9194921 132.845778,15.2248889 C131.787365,15.6667937 130.982921,16.4261587 130.113714,17.1175873 C129.240063,17.8128254 128.337206,18.4712381 127.436254,19.1315556 C127.182286,19.3175873 127.161333,19.4185397 127.441333,19.6039365 C127.593714,19.7055238 127.544825,19.9664762 127.679429,20.1321905 C127.920698,20.4293333 127.988635,20.8553651 128.417206,21.0191746 C128.534032,21.063619 128.490222,21.3029841 128.62419,21.4464762 C129.335302,22.208381 129.979111,23.0375873 130.794984,23.6934603 C131.348635,24.1379048 131.816571,24.7067937 132.518159,24.9480635 C132.593079,24.9734603 132.587365,25.0394921 132.618476,25.0890159 C132.66927,25.1715556 132.732127,25.3017143 132.801333,25.3093333 C133.241968,25.3563175 133.387365,25.8007619 133.737206,25.9747302 C134.113079,26.1613968 134.459111,26.4090159 134.818476,26.6293333 C135.10546,26.8052063 135.129587,26.944254 134.889587,27.1855238 C134.441968,27.6356825 134.005778,28.1029841 133.661651,28.6312381 C133.412762,29.0128254 133.042603,29.2680635 132.79181,29.6363175 C132.70927,29.7582222 132.594984,29.848381 132.58419,30.0179048 C132.579111,30.104254 132.499111,30.2534603 132.440698,30.2591746 C132.06673,30.2972698 132.000698,30.6166349 131.87181,30.8629841 C131.789905,31.0191746 131.727048,30.9791746 131.663556,30.888381 C131.161333,30.1652063 130.42927,29.6782222 129.813397,29.071873 C129.58673,28.8496508 129.297206,28.656 129.100381,28.447746 C128.853397,28.1855238 128.641333,27.8521905 128.381016,27.5715556 C127.772127,26.9156825 127.202603,26.2248889 126.721333,25.4693333 C126.529587,25.168381 126.14673,25.0363175 126.020381,24.7220317 C125.765143,24.0839365 125.401968,23.511873 125.040698,22.9366349 C124.636254,22.2953651 124.373397,21.5810794 123.914984,20.8312381" id="Fill-7" fill="#F5FCFF"></path>
                    <path d="M156.158921,14.140381 C157.079556,14.172127 157.947492,14.1378413 158.815429,14.0876825 C159.014159,14.075619 159.170984,14.0622857 159.204,13.8006984 C159.296698,13.0819683 159.250349,12.3619683 159.259873,11.6432381 C159.262413,11.4540317 159.186222,11.3473651 158.969079,11.3499048 C157.80527,11.3695873 156.640825,11.3911746 155.476381,11.3892698 C154.595746,11.3873651 153.715111,11.3543492 152.835111,11.3276825 C152.540508,11.3194286 152.402095,11.4267302 152.40781,11.7384762 C152.419873,12.3841905 152.421143,13.0305397 152.405905,13.676254 C152.398921,13.9841905 152.522095,14.0984762 152.823048,14.0902222 C153.952571,14.0591111 155.079556,14.2070476 156.158921,14.140381 M155.932254,7.96704762 L162.644635,7.96704762 C163.250984,7.96704762 163.318921,8.01720635 163.294159,8.62292063 C163.198286,10.9333968 163.251619,13.2451429 163.235746,15.555619 C163.233841,15.916254 163.238921,16.2749841 163.283365,16.6349841 C163.340508,17.0965714 163.216698,17.2222857 162.759556,17.2222857 C159.52781,17.2229206 156.295429,17.2235556 153.063683,17.2235556 C152.412889,17.2235556 152.409714,17.2216508 152.413524,17.8914921 C152.422413,19.3822857 152.455429,20.876254 152.243365,22.3549841 C152.092889,23.4076825 151.889079,24.4533968 151.60781,25.4845079 C151.395746,26.2629206 151.191937,27.052127 150.864952,27.7784762 C150.438921,28.723873 150.035746,29.6953016 149.40019,30.5340317 C149.137333,30.8813333 148.933524,31.2705397 148.690984,31.6292698 C148.449079,31.9873651 148.073206,32.1816508 147.857968,32.539746 C147.730349,32.7524444 147.557651,32.7067302 147.384952,32.5740317 C146.644,32.0026032 145.814794,31.5854603 144.965905,31.2051429 C144.819238,31.1391111 144.664317,31.0933968 144.511302,31.0426032 C144.156381,30.9251429 144.108127,30.692127 144.351302,30.3994286 C144.793841,29.8692698 145.344317,29.4330794 145.708127,28.8349841 C145.814794,28.6584762 145.883365,28.4489524 145.976063,28.2889524 C146.068127,28.1276825 146.196381,27.9422857 146.324635,27.7937143 C146.597651,27.4768889 146.787492,27.1181587 146.955111,26.7524444 C147.504952,25.555619 147.950032,24.3143492 148.197651,23.020381 C148.489079,21.4978413 148.666857,19.956254 148.670032,18.4032381 C148.677651,15.0965714 148.671937,11.7899048 148.672571,8.4832381 C148.673206,8.01466667 148.717651,7.96831746 149.181778,7.96831746 C151.431937,7.96704762 153.682095,7.96768254 155.932254,7.96704762" id="Fill-9" fill="#F5FCFF"></path>
                    <path d="M52.2306032,27.5971429 C50.6394921,27.5971429 49.047746,27.5971429 47.4566349,27.5977778 C46.9626667,27.5977778 46.8979048,27.5374603 46.896,27.0396825 C46.8934603,26.2066667 46.8928254,25.3736508 46.8966349,24.5412698 C46.8979048,24.0784127 47.000127,23.9977778 47.4553651,24.0479365 C47.6521905,24.0695238 47.8515556,24.0695238 48.0502857,24.0695238 C51.0090159,24.0707937 53.967746,24.0707937 56.9264762,24.0701587 C57.4756825,24.0701587 57.4921905,24.051746 57.4934603,23.5044444 C57.4947302,23.0073016 57.4966349,22.5095238 57.4921905,22.012381 C57.4890159,21.7260317 57.6248889,21.5939683 57.9061587,21.6288889 C58.9067937,21.7520635 59.9131429,21.6187302 60.9150476,21.6936508 C61.0509206,21.7038095 61.1886984,21.6898413 61.3245714,21.7019048 C61.9944127,21.7622222 62.1296508,21.9514286 61.9956825,22.5990476 C61.927746,22.9273016 61.8788571,23.2587302 61.8306032,23.5901587 C61.7874286,23.8885714 61.9169524,23.9965079 62.2255238,24.0206349 C63.144254,24.0936508 64.063619,24.068254 64.9829841,24.0701587 C67.208381,24.0746032 69.4337778,24.0720635 71.6591746,24.0720635 C71.7334603,24.0720635 71.808381,24.0746032 71.8833016,24.0701587 C72.5671111,24.0333333 72.567746,24.0333333 72.567746,24.7107937 C72.567746,25.4936508 72.5690159,26.2777778 72.5639365,27.0606349 C72.5613968,27.5177778 72.480127,27.5952381 72.0109206,27.5952381 C70.2953651,27.5971429 68.5798095,27.5952381 66.863619,27.5952381 C65.3969524,27.5952381 63.9296508,27.5946032 62.4623492,27.5965079 C61.9906032,27.5965079 61.9702857,27.6142857 61.9715556,28.0733333 C61.9747302,29.7768254 61.9740952,31.4796825 61.9931429,33.1825397 C61.9969524,33.5038095 61.8039365,33.4873016 61.607746,33.4879365 C60.488381,33.4930159 59.3696508,33.4930159 58.2509206,33.4904762 C57.4928254,33.4892063 57.4940952,33.4860317 57.4940952,32.7387302 C57.4953651,31.1838095 57.4953651,29.6301587 57.4940952,28.075873 C57.4940952,27.6149206 57.4744127,27.5965079 57.0052063,27.595873 C55.4134603,27.5939683 53.8217143,27.5952381 52.2306032,27.5952381 L52.2306032,27.5971429 Z" id="Fill-11" fill="#F5FCFF"></path>
                    <g id="Group-15" transform="translate(153.015873, 17.718984)">
                        <mask id="mask-2" fill="white">
                            <use xlink:href="#path-1"></use>
                        </mask>
                        <g id="Clip-14"></g>
                        <path d="M7.74711111,0.66247619 C7.98330159,0.608507937 8.11155556,0.729142857 8.23663492,0.851047619 C8.88552381,1.48279365 9.53314286,2.11644444 10.1833016,2.74755556 C10.2779048,2.83961905 10.3540952,2.97422222 10.5248889,2.91961905 C10.5737778,2.90311111 10.6493333,2.89993651 10.6423492,2.95898413 C10.5972698,3.33803175 10.9274286,3.47263492 11.1172698,3.69168254 C11.3833016,3.99961905 11.356,4.0904127 11.0131429,4.31136508 C10.0537778,4.9304127 9.00044444,5.37104762 7.97504762,5.84342857 C6.79473016,6.38692063 5.63980952,6.99326984 4.41949206,7.44914286 C4.24171429,7.51644444 4.17695238,7.64469841 4.17695238,7.82501587 C4.17695238,8.78247619 4.16742857,9.74057143 4.17695238,10.6980317 C4.1807619,11.056127 4.40869841,11.2827937 4.76425397,11.2866032 C5.58520635,11.2973968 6.40615873,11.304381 7.22647619,11.2827937 C7.68298413,11.2707302 7.75853968,10.8605714 7.88996825,10.5342222 C8.0728254,10.0770794 8.06647619,9.58692063 8.11790476,9.10819048 C8.16933333,8.62692063 8.25885714,8.54692063 8.7007619,8.75580952 C9.46774603,9.11771429 10.2696508,9.36342857 11.0912381,9.56088889 C11.3109206,9.6135873 11.5299683,9.63707937 11.7521905,9.66120635 C12.1172698,9.70057143 12.2169524,9.84977778 12.1686984,10.207873 C12.0525079,11.0675556 11.9940952,11.9354921 11.643619,12.7507302 C11.5363175,13.0008889 11.4182222,13.2453333 11.3052063,13.4923175 C11.2639365,13.5824762 11.1921905,13.6599365 11.2106032,13.767873 C11.2340952,13.9069206 11.2588571,14.0332698 11.0423492,13.9183492 C11.0125079,13.9031111 10.9166349,13.9824762 10.867746,14.0345397 C10.260127,14.6669206 9.51663492,14.8935873 8.64806349,14.8821587 C6.73314286,14.8554921 4.8175873,14.8948571 2.90266667,14.8618413 C1.91790476,14.8446984 1.06965079,14.5018413 0.670920635,13.4948571 C0.509650794,13.0846984 0.520444444,12.6370794 0.518539683,12.2091429 C0.50647619,8.47771429 0.510920635,4.74692063 0.512825397,1.01612698 C0.512825397,0.273904762 0.542666667,0.254857143 1.29822222,0.248507937 C2.26838095,0.238984127 3.23663492,0.25231746 4.1991746,0.388190476 C4.69695238,0.458666667 4.86965079,0.686603175 4.71028571,1.15263492 C4.45631746,1.89612698 4.4512381,2.66120635 4.46457143,3.43136508 C4.46711111,3.60152381 4.55028571,3.80533333 4.70457143,3.61993651 C5.00933333,3.25295238 5.47028571,3.16914286 5.82266667,2.89231746 C6.30965079,2.50946032 6.756,2.10692063 7.14901587,1.62374603 C7.29695238,1.44152381 7.5191746,1.28469841 7.69504762,1.09803175 C7.83155556,0.953269841 7.86901587,0.829460317 7.74711111,0.66247619" id="Fill-13" fill="#F5FCFF" mask="url(#mask-2)"></path>
                    </g>
                    <path d="M107.601714,27.7763175 C107.848063,27.828381 107.99854,27.7325079 108.143937,27.6067937 C108.397905,27.388381 108.724254,27.2366349 108.943937,27.0074286 C109.347111,26.5864762 109.917905,26.3337778 110.183937,25.7763175 C110.214413,25.7121905 110.27346,25.6321905 110.334413,25.6175873 C110.83727,25.4899683 111.017587,25.0175873 111.283619,24.6734603 C111.646159,24.2029841 112.095683,23.8004444 112.392825,23.2804444 C112.700762,22.7426667 113.006159,22.203619 113.309016,21.6626667 C113.612508,21.1210794 113.87346,20.5585397 114.094413,19.9782222 C114.315365,19.3985397 114.533143,18.8163175 114.734413,18.2290159 C114.83854,17.9255238 114.886159,17.6023492 114.99346,17.2994921 C115.107746,16.9769524 114.982667,16.9121905 114.688063,16.9140952 C113.357905,16.9217143 112.028381,16.9166349 110.698222,16.9166349 C110.23854,16.9166349 109.778857,16.9134603 109.31854,16.9153651 C108.978857,16.9166349 108.825841,16.7610794 108.830921,16.4125079 C108.842984,15.5674286 108.83473,14.7217143 108.837905,13.8766349 C108.839175,13.3991746 108.896317,13.3407619 109.375048,13.340127 C111.226476,13.3382222 113.07854,13.340127 114.930603,13.340127 C116.185841,13.340127 117.441079,13.3375873 118.696317,13.340127 C119.211238,13.3413968 119.19981,13.3452063 119.205524,13.8366349 C119.225841,15.5934603 119.081714,17.3350476 118.667746,19.043619 C118.455683,19.9217143 118.177587,20.7826667 117.842349,21.6258413 C117.450603,22.6131429 116.971238,23.5528254 116.417587,24.4563175 C116.411238,24.4671111 116.401079,24.4772698 116.39981,24.4886984 C116.35981,24.7782222 116.137587,24.948381 115.987111,25.171873 C114.786476,26.9572698 113.301397,28.4855238 111.775048,29.9826667 C111.540762,30.2125079 111.335683,30.2131429 111.081714,30.0550476 C110.070286,29.4258413 109.044254,28.8220317 107.973778,28.2975873 C107.788381,28.2067937 107.679175,28.0404444 107.601714,27.7763175" id="Fill-16" fill="#F5FCFF"></path>
                    <path d="M146.036444,21.6770159 C145.894857,21.9227302 145.901206,22.0097143 146.087873,22.0795556 C146.343746,22.1741587 146.421206,22.3532063 146.308825,22.6420952 C145.62819,24.388127 145.018032,26.1595556 144.411048,27.932254 C144.058032,28.964 143.705016,29.9970159 143.399619,31.0433651 C143.292317,31.4090794 143.165968,31.7589206 143.018667,32.1068571 C142.91454,32.3506667 142.774222,32.3906667 142.553905,32.2459048 C141.592,31.6166984 140.660571,30.948127 139.801524,30.1811429 C139.736762,30.1233651 139.666921,30.0713016 139.595175,30.0224127 C139.212952,29.7620952 139.174222,29.6103492 139.418667,29.2325714 C140.480889,27.5913016 141.333587,25.8427302 142.03454,24.0224127 C142.447873,22.9500317 142.793905,21.8503492 143.161524,20.7601905 C143.299937,20.3493968 143.339302,20.3233651 143.729778,20.5303492 C143.819937,20.5786032 143.904381,20.6135238 144.011683,20.6008254 C144.124698,20.5862222 144.27581,20.5525714 144.134857,20.7627302 C144.056127,20.8808254 144.193905,20.9335238 144.268825,20.9868571 C144.603429,21.2224127 144.943111,21.452254 145.278349,21.6878095 C145.489778,21.8351111 145.708825,21.8693968 146.036444,21.6770159" id="Fill-18" fill="#F5FCFF"></path>
                    <path d="M143.095556,19.4460952 C142.892381,19.4270476 142.771111,19.3229206 142.651111,19.2111746 C142.331746,18.9165714 142.02254,18.6086349 141.684127,18.3368889 C141.243492,17.9826032 140.804762,17.6086349 140.329841,17.3165714 C139.929841,17.0714921 139.647937,16.7045079 139.248571,16.4714921 C138.973651,16.312127 139.000952,16.1210159 139.197778,15.8632381 C139.851746,15.0086349 140.590159,14.2206984 141.200952,13.3305397 C141.412381,13.0226032 141.611111,13.0016508 141.877143,13.2124444 C142.791429,13.9343492 143.714603,14.6448254 144.630159,15.3654603 C144.971746,15.6340317 145.310159,15.9076825 145.633968,16.1959365 C145.890476,16.4245079 145.693651,16.6149841 145.546349,16.8022857 C145.041587,17.4460952 144.490476,18.048 143.910794,18.6226032 C143.675238,18.855619 143.644127,19.2587937 143.270794,19.3724444 C143.201587,19.3927619 143.13746,19.4283175 143.095556,19.4460952" id="Fill-20" fill="#F5FCFF"></path>
                    <path d="M145.030413,13.2252063 C144.93581,13.220127 144.874857,13.1566349 144.810095,13.0982222 C144.258984,12.6023492 143.712317,12.0848889 143.21454,11.5515556 C142.61581,10.9115556 141.976444,10.3267937 141.336444,9.73695238 C141.132,9.54901587 141.135175,9.39409524 141.353587,9.21885714 C141.789143,8.87092063 142.268508,8.55663492 142.630413,8.14203175 C143.005016,7.71219048 143.527556,7.49250794 143.903429,7.08234921 C144.113587,6.85377778 144.341524,6.87790476 144.551048,7.09377778 C145.087556,7.64488889 145.628508,8.19346032 146.158032,8.75155556 C146.624698,9.24361905 147.005651,9.82965079 147.617714,10.1909206 C148.006921,10.4207619 147.980254,10.7071111 147.627238,11.0125079 C146.830413,11.7039365 146.037397,12.3979048 145.243746,13.0931429 C145.178984,13.1496508 145.132635,13.2302857 145.030413,13.2252063" id="Fill-22" fill="#F5FCFF"></path>
                    <path d="M82.8519365,25.647746 C82.8697143,25.8280635 82.7935238,25.9271111 82.7236825,26.0312381 C81.7173333,27.5239365 80.7928889,29.071873 79.7306667,30.528381 C79.5700317,30.7499683 79.4601905,30.7613968 79.2189206,30.6363175 C78.5795556,30.303619 77.9503492,29.9671111 77.4011429,29.4896508 C77.0487619,29.183619 77.0271746,29.1448889 77.2938413,28.7321905 C77.6170159,28.2331429 77.9255873,27.7245714 78.2671746,27.2375873 C78.8944762,26.343619 79.3954286,25.3728254 79.984,24.456 C80.2570159,24.0299683 80.4811429,24.0096508 80.9313016,24.2731429 C81.1973333,24.4286984 81.5135238,24.5671111 81.7395556,24.7213968 C82.1052698,24.9715556 82.568127,25.144254 82.8259048,25.5493333 C82.8513016,25.5880635 82.8513016,25.6433016 82.8519365,25.647746" id="Fill-24" fill="#F5FCFF"></path>
                </g>
            </g>
        </g>
    </g>
</svg>