<?xml version="1.0" encoding="UTF-8"?>
<svg width="23px" height="22px" viewBox="0 0 23 22" version="1.1" xmlns="http://www.w3.org/2000/svg" xmlns:xlink="http://www.w3.org/1999/xlink">
    <!-- Generator: Sketch 53.1 (72631) - https://sketchapp.com -->
    <title>icon</title>
    <desc>Created with Sketch.</desc>
    <defs>
        <polygon id="path-1" points="0.6598625 0.290025 15.9608625 0.290025 15.9608625 14.125 0.6598625 14.125"></polygon>
        <polygon id="path-3" points="0.0004125 0 22.119625 0 22.119625 13.454375 0.0004125 13.454375"></polygon>
    </defs>
    <g id="Page-1" stroke="none" stroke-width="1" fill="none" fill-rule="evenodd">
        <g id="站点地图" transform="translate(-1819.000000, -328.000000)">
            <g id="站点设备数量" transform="translate(1440.000000, 105.000000)">
                <g id="变压器设备" transform="translate(342.000000, 137.000000)">
                    <g id="icon" transform="translate(37.000000, 86.000000)">
                        <g id="Group-3" transform="translate(2.750000, 7.875000)">
                            <mask id="mask-2" fill="white">
                                <use xlink:href="#path-1"></use>
                            </mask>
                            <g id="Clip-2"></g>
                            <path d="M13.3854875,8.61565 C13.3854875,8.99515 13.0774875,9.30315 12.6979875,9.30315 C12.3184875,9.30315 12.0104875,8.99515 12.0104875,8.61565 L12.0104875,3.315025 C12.0104875,2.93415 12.3184875,2.627525 12.6979875,2.627525 C13.0774875,2.627525 13.3854875,2.93415 13.3854875,3.315025 L13.3854875,8.61565 Z M10.5584875,8.61565 C10.5584875,8.99515 10.2504875,9.30315 9.8709875,9.30315 C9.4901125,9.30315 9.1834875,8.99515 9.1834875,8.61565 L9.1834875,3.315025 C9.1834875,2.93415 9.4901125,2.627525 9.8709875,2.627525 C10.2504875,2.627525 10.5584875,2.93415 10.5584875,3.315025 L10.5584875,8.61565 Z M7.7314875,8.61565 C7.7314875,8.99515 7.4248625,9.30315 7.0439875,9.30315 C6.6644875,9.30315 6.3564875,8.99515 6.3564875,8.61565 L6.3564875,3.315025 C6.3564875,2.93415 6.6644875,2.627525 7.0439875,2.627525 C7.4248625,2.627525 7.7314875,2.93415 7.7314875,3.315025 L7.7314875,8.61565 Z M4.9044875,8.61565 C4.9044875,8.99515 4.5964875,9.30315 4.2169875,9.30315 C3.8374875,9.30315 3.5294875,8.99515 3.5294875,8.61565 L3.5294875,3.315025 C3.5294875,2.93415 3.8374875,2.627525 4.2169875,2.627525 C4.5964875,2.627525 4.9044875,2.93415 4.9044875,3.315025 L4.9044875,8.61565 Z M14.1637375,0.290025 L2.4569875,0.290025 C1.4656125,0.290025 0.6598625,1.0669 0.6598625,2.02115 L0.6598625,9.90815 C0.6598625,10.863775 1.4656125,11.639275 2.4569875,11.639275 L5.3981125,11.639275 L5.3981125,12.60865 C5.3981125,12.676025 5.3197375,12.750275 5.2056125,12.750275 L2.8007375,12.750275 C2.4212375,12.750275 2.1132375,13.0569 2.1132375,13.437775 C2.1132375,13.817275 2.4212375,14.125275 2.8007375,14.125275 L5.2056125,14.125275 C6.0704875,14.125275 6.7731125,13.446025 6.7731125,12.60865 L6.7731125,11.639275 L10.0854875,11.639275 L10.0854875,12.60865 C10.0854875,13.446025 10.7894875,14.125275 11.6543625,14.125275 L14.0578625,14.125275 C14.4387375,14.125275 14.7453625,13.817275 14.7453625,13.437775 C14.7453625,13.0569 14.4387375,12.750275 14.0578625,12.750275 L11.6543625,12.750275 C11.5402375,12.750275 11.4604875,12.676025 11.4604875,12.60865 L11.4604875,11.639275 L14.1637375,11.639275 C15.1551125,11.639275 15.9608625,10.863775 15.9608625,9.90815 L15.9608625,2.02115 C15.9608625,1.0669 15.1551125,0.290025 14.1637375,0.290025 L14.1637375,0.290025 Z" id="Fill-1" fill="#F4F7FF" opacity="0.8" mask="url(#mask-2)"></path>
                        </g>
                        <g id="Group-6">
                            <mask id="mask-4" fill="white">
                                <use xlink:href="#path-3"></use>
                            </mask>
                            <g id="Clip-5" opacity="0.8"></g>
                            <path d="M20.5511625,5.04075 L19.1074125,5.04075 L19.1074125,4.489375 L20.3009125,4.489375 C20.6817875,4.489375 20.9884125,4.181375 20.9884125,3.801875 C20.9884125,3.421 20.6817875,3.114375 20.3009125,3.114375 L19.1074125,3.114375 L19.1074125,2.7005 L20.2046625,2.7005 C20.5841625,2.7005 20.8921625,2.3925 20.8921625,2.013 C20.8921625,1.632125 20.5841625,1.3255 20.2046625,1.3255 L19.1074125,1.3255 L19.1074125,0.6875 C19.1074125,0.308 18.7994125,0 18.4199125,0 C18.0390375,0 17.7324125,0.308 17.7324125,0.6875 L17.7324125,1.3255 L16.6337875,1.3255 C16.2542875,1.3255 15.9462875,1.632125 15.9462875,2.013 C15.9462875,2.3925 16.2542875,2.7005 16.6337875,2.7005 L17.7324125,2.7005 L17.7324125,3.114375 L16.5375375,3.114375 C16.1566625,3.114375 15.8500375,3.421 15.8500375,3.801875 C15.8500375,4.181375 16.1566625,4.489375 16.5375375,4.489375 L17.7324125,4.489375 L17.7324125,5.04075 L11.7360375,5.04075 L11.7360375,4.489375 L12.9309125,4.489375 C13.3117875,4.489375 13.6184125,4.181375 13.6184125,3.801875 C13.6184125,3.421 13.3117875,3.114375 12.9309125,3.114375 L11.7360375,3.114375 L11.7360375,2.7005 L12.8346625,2.7005 C13.2155375,2.7005 13.5221625,2.3925 13.5221625,2.013 C13.5221625,1.632125 13.2155375,1.3255 12.8346625,1.3255 L11.7360375,1.3255 L11.7360375,0.6875 C11.7360375,0.308 11.4294125,0 11.0485375,0 C10.6690375,0 10.3610375,0.308 10.3610375,0.6875 L10.3610375,1.3255 L9.2637875,1.3255 C8.8842875,1.3255 8.5762875,1.632125 8.5762875,2.013 C8.5762875,2.3925 8.8842875,2.7005 9.2637875,2.7005 L10.3610375,2.7005 L10.3610375,3.114375 L9.1675375,3.114375 C8.7866625,3.114375 8.4800375,3.421 8.4800375,3.801875 C8.4800375,4.181375 8.7866625,4.489375 9.1675375,4.489375 L10.3610375,4.489375 L10.3610375,5.04075 L4.3660375,5.04075 L4.3660375,4.489375 L5.5622875,4.489375 C5.9417875,4.489375 6.2497875,4.181375 6.2497875,3.801875 C6.2497875,3.421 5.9417875,3.114375 5.5622875,3.114375 L4.3660375,3.114375 L4.3660375,2.7005 L5.4646625,2.7005 C5.8441625,2.7005 6.1521625,2.3925 6.1521625,2.013 C6.1521625,1.632125 5.8441625,1.3255 5.4646625,1.3255 L4.3660375,1.3255 L4.3660375,0.6875 C4.3660375,0.308 4.0594125,0 3.6785375,0 C3.2990375,0 2.9910375,0.308 2.9910375,0.6875 L2.9910375,1.3255 L1.8937875,1.3255 C1.5142875,1.3255 1.2062875,1.632125 1.2062875,2.013 C1.2062875,2.3925 1.5142875,2.7005 1.8937875,2.7005 L2.9910375,2.7005 L2.9910375,3.114375 L1.7975375,3.114375 C1.4166625,3.114375 1.1100375,3.421 1.1100375,3.801875 C1.1100375,4.181375 1.4166625,4.489375 1.7975375,4.489375 L2.9910375,4.489375 L2.9910375,5.04075 L1.5692875,5.04075 C0.7030375,5.04075 0.0004125,5.72 0.0004125,6.557375 L0.0004125,11.939125 C0.0004125,12.775125 0.7030375,13.454375 1.5692875,13.454375 L1.8937875,13.454375 C2.2746625,13.454375 2.5812875,13.14775 2.5812875,12.766875 C2.5812875,12.387375 2.2746625,12.079375 1.8937875,12.079375 L1.5692875,12.079375 C1.4551625,12.079375 1.3754125,12.005125 1.3754125,11.939125 L1.3754125,6.557375 C1.3754125,6.49 1.4551625,6.41575 1.5692875,6.41575 L20.5511625,6.41575 C20.6652875,6.41575 20.7450375,6.49 20.7450375,6.557375 L20.7450375,11.939125 C20.7450375,12.005125 20.6652875,12.079375 20.5511625,12.079375 L20.2046625,12.079375 C19.8251625,12.079375 19.5171625,12.387375 19.5171625,12.766875 C19.5171625,13.14775 19.8251625,13.454375 20.2046625,13.454375 L20.5511625,13.454375 C21.4160375,13.454375 22.1200375,12.775125 22.1200375,11.939125 L22.1200375,6.557375 C22.1200375,5.72 21.4160375,5.04075 20.5511625,5.04075" id="Fill-4" fill="#F4F7FF" opacity="0.8" mask="url(#mask-4)"></path>
                        </g>
                    </g>
                </g>
            </g>
        </g>
    </g>
</svg>