<?xml version="1.0" encoding="UTF-8"?>
<svg width="16px" height="22px" viewBox="0 0 16 22" version="1.1" xmlns="http://www.w3.org/2000/svg" xmlns:xlink="http://www.w3.org/1999/xlink">
    <!-- Generator: Sketch 53.1 (72631) - https://sketchapp.com -->
    <title>icon</title>
    <desc>Created with Sketch.</desc>
    <defs>
        <polygon id="path-1" points="0 0.00055 15.8701125 0.00055 15.8701125 21.3125 0 21.3125"></polygon>
    </defs>
    <g id="Page-1" stroke="none" stroke-width="1" fill="none" fill-rule="evenodd">
        <g id="站点地图" transform="translate(-1609.000000, -328.000000)">
            <g id="站点设备数量" transform="translate(1440.000000, 105.000000)">
                <g id="变频器设备" transform="translate(128.000000, 137.000000)">
                    <g id="icon" transform="translate(41.000000, 86.000000)">
                        <mask id="mask-2" fill="white">
                            <use xlink:href="#path-1"></use>
                        </mask>
                        <g id="Clip-2"></g>
                        <path d="M12.9248625,5.1348 L12.9248625,10.53855 L12.9248625,11.3498 C12.9248625,11.488675 12.8121125,11.601425 12.6732375,11.601425 L11.8619875,11.601425 L9.2673625,11.601425 L8.4561125,11.601425 C8.3172375,11.601425 8.2044875,11.488675 8.2044875,11.3498 L8.2044875,10.53855 L8.2044875,5.1348 L8.2044875,4.324925 C8.2044875,4.18605 8.3172375,4.0733 8.4561125,4.0733 L9.2673625,4.0733 L11.8619875,4.0733 L12.6732375,4.0733 C12.8121125,4.0733 12.9248625,4.18605 12.9248625,4.324925 L12.9248625,5.1348 Z M15.4039875,2.160675 L14.1816125,1.45255 L14.1816125,0.3443 C14.1816125,0.15455 14.0276125,0.00055 13.8378625,0.00055 L2.1984875,0.00055 C2.0087375,0.00055 1.8547375,0.15455 1.8547375,0.3443 L1.8547375,1.4443 L0.4962375,2.160675 C0.1909875,2.32155 -0.0001375,2.639175 -0.0001375,2.9843 L-0.0001375,4.4638 L-0.0001375,18.344425 C-0.0001375,18.67855 0.1772375,18.985175 0.4646125,19.15155 L1.6883625,19.859675 L1.6883625,20.9693 C1.6883625,21.157675 1.8423625,21.31305 2.0321125,21.31305 L13.6714875,21.31305 C13.8612375,21.31305 14.0152375,21.157675 14.0152375,20.9693 L14.0152375,19.867925 L15.3723625,19.15155 C15.6776125,18.990675 15.8701125,18.674425 15.8701125,18.3293 L15.8701125,4.4638 L15.8701125,2.9678 C15.8701125,2.63505 15.6927375,2.32705 15.4039875,2.160675 L15.4039875,2.160675 Z" id="Fill-1" fill="#F4F7FF" opacity="0.8" mask="url(#mask-2)"></path>
                    </g>
                </g>
            </g>
        </g>
    </g>
</svg>