<?xml version="1.0" encoding="UTF-8"?>
<svg width="20px" height="26px" viewBox="0 0 20 26" version="1.1" xmlns="http://www.w3.org/2000/svg" xmlns:xlink="http://www.w3.org/1999/xlink">
    <!-- Generator: Sketch 53.1 (72631) - https://sketchapp.com -->
    <title>icon</title>
    <desc>Created with Sketch.</desc>
    <g id="Page-1" stroke="none" stroke-width="1" fill="none" fill-rule="evenodd">
        <g id="站点地图" transform="translate(-950.000000, -538.000000)">
            <g id="地图" transform="translate(280.000000, 256.000000)">
                <g id="天津市" transform="translate(670.000000, 282.000000)">
                    <g id="icon">
                        <polygon id="Fill-1" fill="#EFF1F5" points="0.506594805 20.6984987 9.62381558 25.7870701 9.62381558 12.7556675 0.506594805 7.45504416"></polygon>
                        <polygon id="Fill-2" fill="#EFF1F5" points="0 7.16053506 9.62371429 12.7556 9.62371429 11.4890286 0 6.00910649"></polygon>
                        <polygon id="Fill-3" fill="#FEFEFF" points="9.80824675 0.000135064935 -0.000168831169 6.00917403 9.62388312 11.4890961 19.255026 6.00917403"></polygon>
                        <polygon id="Fill-4" fill="#C5CAD3" points="9.62124935 10.5989169 1.65579481 6.06343636 9.77353506 1.09000779 17.5921065 6.06343636"></polygon>
                        <polygon id="Fill-5" fill="#D2DCE4" points="9.62378182 11.4889273 9.62378182 12.7554987 19.2552623 7.26983636 19.2552623 6.00900519"></polygon>
                        <polygon id="Fill-6" fill="#D2DAE4" points="9.62378182 12.7555662 9.62378182 25.7869688 18.6032364 20.4914104 18.6032364 7.63998182"></polygon>
                        <polygon id="Fill-7" fill="#41ABC7" points="15.934961 12.2545766 17.0583636 11.6278753 17.0583636 10.3130182 15.934961 10.9653818"></polygon>
                        <polygon id="Fill-8" fill="#41ABC7" points="13.5521792 13.5900649 14.6752442 12.9633636 14.6752442 11.6481688 13.5521792 12.3008701"></polygon>
                        <polygon id="Fill-9" fill="#41ABC7" points="11.1690935 14.9717117 12.2924961 14.3446727 12.2924961 13.0298156 11.1690935 13.6825169"></polygon>
                        <polygon id="Fill-10" fill="#41ABC7" points="15.934961 14.9717117 17.0583636 14.3446727 17.0583636 13.0298156 15.934961 13.6825169"></polygon>
                        <polygon id="Fill-11" fill="#41ABC7" points="13.5521792 16.3068623 14.6752442 15.680161 14.6752442 14.3649662 13.5521792 15.0176675"></polygon>
                        <polygon id="Fill-12" fill="#41ABC7" points="11.1690935 17.6885091 12.2924961 17.0614701 12.2924961 15.746613 11.1690935 16.3993143"></polygon>
                        <polygon id="Fill-13" fill="#41ABC7" points="15.934961 20.4053065 17.0583636 19.7782675 17.0583636 18.4634104 15.934961 19.1161117"></polygon>
                        <polygon id="Fill-14" fill="#41ABC7" points="13.5521792 21.7407948 14.6752442 21.1137558 14.6752442 19.7988987 13.5521792 20.4512623"></polygon>
                        <polygon id="Fill-15" fill="#41ABC7" points="11.1690935 23.1221039 12.2924961 22.4954026 12.2924961 21.1802078 11.1690935 21.8329091"></polygon>
                        <polygon id="Fill-16" fill="#41ABC7" points="15.934961 17.6885091 17.0583636 17.0614701 17.0583636 15.746613 15.934961 16.3993143"></polygon>
                        <polygon id="Fill-17" fill="#41ABC7" points="13.5521792 19.0236597 14.6752442 18.3969584 14.6752442 17.0821013 13.5521792 17.7344649"></polygon>
                        <polygon id="Fill-18" fill="#41ABC7" points="11.1690935 20.4053065 12.2924961 19.7782675 12.2924961 18.4634104 11.1690935 19.1161117"></polygon>
                        <polygon id="Fill-19" fill="#41ABC7" points="2.99067532 12.2545766 1.86727273 11.6278753 1.86727273 10.3130182 2.99067532 10.9653818"></polygon>
                        <polygon id="Fill-20" fill="#41ABC7" points="5.37376104 13.5900649 4.25035844 12.9633636 4.25035844 11.6481688 5.37376104 12.3008701"></polygon>
                        <polygon id="Fill-21" fill="#41ABC7" points="7.75684675 14.9717117 6.63344416 14.3446727 6.63344416 13.0298156 7.75684675 13.6825169"></polygon>
                        <polygon id="Fill-22" fill="#41ABC7" points="2.99067532 14.9717117 1.86727273 14.3446727 1.86727273 13.0298156 2.99067532 13.6825169"></polygon>
                        <polygon id="Fill-23" fill="#41ABC7" points="5.37376104 16.3068623 4.25035844 15.680161 4.25035844 14.3649662 5.37376104 15.0176675"></polygon>
                        <polygon id="Fill-24" fill="#41ABC7" points="7.75684675 17.6885091 6.63344416 17.0614701 6.63344416 15.746613 7.75684675 16.3993143"></polygon>
                        <polygon id="Fill-25" fill="#41ABC7" points="2.99067532 20.4053065 1.86727273 19.7782675 1.86727273 18.4634104 2.99067532 19.1161117"></polygon>
                        <polygon id="Fill-26" fill="#41ABC7" points="5.37376104 21.7407948 4.25035844 21.1137558 4.25035844 19.7988987 5.37376104 20.4512623"></polygon>
                        <polygon id="Fill-27" fill="#41ABC7" points="7.75684675 23.1221039 6.63344416 22.4954026 6.63344416 21.1802078 7.75684675 21.8329091"></polygon>
                        <polygon id="Fill-28" fill="#41ABC7" points="2.99067532 17.6885091 1.86727273 17.0614701 1.86727273 15.746613 2.99067532 16.3993143"></polygon>
                        <polygon id="Fill-29" fill="#41ABC7" points="5.37376104 19.0236597 4.25035844 18.3969584 4.25035844 17.0821013 5.37376104 17.7344649"></polygon>
                        <polygon id="Fill-30" fill="#41ABC7" points="7.75684675 20.4053065 6.63344416 19.7782675 6.63344416 18.4634104 7.75684675 19.1161117"></polygon>
                        <polygon id="Fill-31" fill="#D8DFEA" points="9.62388312 13.0776286 0.506662338 7.72399221 0.506662338 7.45521299 9.62388312 12.7554987"></polygon>
                        <polygon id="Fill-32" fill="#C4CDD6" points="9.62388312 13.0776286 18.6033377 7.90869351 18.6033377 7.63991429 9.62388312 12.7554987"></polygon>
                    </g>
                </g>
            </g>
        </g>
    </g>
</svg>