<?xml version="1.0" encoding="UTF-8"?>
<svg width="23px" height="18px" viewBox="0 0 23 18" version="1.1" xmlns="http://www.w3.org/2000/svg" xmlns:xlink="http://www.w3.org/1999/xlink">
    <!-- Generator: Sketch 53.1 (72631) - https://sketchapp.com -->
    <title>左侧导航 icon</title>
    <desc>Created with Sketch.</desc>
    <g id="Page-1" stroke="none" stroke-width="1" fill="none" fill-rule="evenodd">
        <g id="站点地图" transform="translate(-21.000000, -34.000000)" fill="#FFFFFF">
            <g id="导航">
                <path d="M40.2678362,42 L38.370032,40.7079018 C37.8934642,40.3834361 37.7223911,39.7613302 37.9660462,39.2388102 C38.1645196,38.8131827 38.6704532,38.6290379 39.0960806,38.8275113 C39.1375695,38.8468579 39.1774284,38.8695232 39.2152686,38.8952863 L43.5083234,41.8181633 C43.905899,42.0888481 44.0908597,42.5666813 43.9997833,43.0210292 C43.9885902,43.5636051 43.5452579,44 43,44 L22,44 C21.4477153,44 21,43.5522847 21,43 C21,42.4477153 21.4477153,42 22,42 L40.2678362,42 Z M22,34 L36,34 C36.5522847,34 37,34.4477153 37,35 C37,35.5522847 36.5522847,36 36,36 L22,36 C21.4477153,36 21,35.5522847 21,35 C21,34.4477153 21.4477153,34 22,34 Z M22,50 L36,50 C36.5522847,50 37,50.4477153 37,51 C37,51.5522847 36.5522847,52 36,52 L22,52 C21.4477153,52 21,51.5522847 21,51 C21,50.4477153 21.4477153,50 22,50 Z" id="左侧导航-icon"></path>
            </g>
        </g>
    </g>
</svg>