<?xml version="1.0" encoding="UTF-8"?>
<svg width="18px" height="22px" viewBox="0 0 18 22" version="1.1" xmlns="http://www.w3.org/2000/svg" xmlns:xlink="http://www.w3.org/1999/xlink">
    <!-- Generator: Sketch 53.1 (72631) - https://sketchapp.com -->
    <title>icon</title>
    <desc>Created with Sketch.</desc>
    <defs>
        <polygon id="path-1" points="0.000129411765 0 17.5275294 0 17.5275294 21.9998706 0.000129411765 21.9998706"></polygon>
    </defs>
    <g id="Page-1" stroke="none" stroke-width="1" fill="none" fill-rule="evenodd">
        <g id="站点地图" transform="translate(-1715.000000, -329.000000)">
            <g id="站点设备数量" transform="translate(1440.000000, 105.000000)">
                <g id="开关柜设备" transform="translate(235.000000, 137.000000)">
                    <g id="icon" transform="translate(40.000000, 87.000000)">
                        <mask id="mask-2" fill="white">
                            <use xlink:href="#path-1"></use>
                        </mask>
                        <g id="Clip-2"></g>
                        <path d="M14.4360118,7.12269412 C14.4360118,7.26245882 14.3221294,7.37634118 14.1810706,7.37634118 L5.50142353,7.37634118 C5.36036471,7.37634118 5.24648235,7.26245882 5.24648235,7.12269412 L5.24648235,3.43704706 C5.24648235,3.29598824 5.36036471,3.18210588 5.50142353,3.18210588 L14.1810706,3.18210588 C14.3221294,3.18210588 14.4360118,3.29598824 14.4360118,3.43704706 L14.4360118,7.12269412 Z M1.30589412,18.2935176 L1.30589412,16.4856353 L2.15354118,16.3381059 L2.15354118,18.4772824 L1.30589412,18.2935176 Z M1.29424706,6.15210588 L1.29424706,4.34551765 L2.15354118,4.1954 L2.15354118,6.33975294 L1.29424706,6.15210588 Z M16.0226,-0.000129411765 L3.65989412,-0.000129411765 C2.82907059,-0.000129411765 2.15354118,0.6534 2.15354118,1.45575294 L2.15354118,2.88316471 L0.535894118,3.16398824 C0.511305882,3.16787059 0.493188235,3.1834 0.469894118,3.18987059 C0.425894118,3.20281176 0.385776471,3.21704706 0.345658824,3.23775294 C0.309423529,3.25845882 0.278364706,3.27916471 0.247305882,3.30504706 C0.213658824,3.33092941 0.185188235,3.35810588 0.158011765,3.39045882 C0.130835294,3.42281176 0.110129412,3.45516471 0.0894235294,3.4914 C0.0700117647,3.52763529 0.0531882353,3.56257647 0.0402470588,3.6014 C0.0260117647,3.64410588 0.0195411765,3.68551765 0.0143647059,3.73081176 C0.0117764706,3.75410588 0.000129411765,3.77610588 0.000129411765,3.80198824 L0.000129411765,6.67363529 C0.000129411765,6.69563529 0.0104823529,6.71375294 0.0117764706,6.73316471 C0.0156588235,6.77716471 0.0247176471,6.81857647 0.0376588235,6.85998824 C0.0493058824,6.90010588 0.0635411765,6.93634118 0.0829529412,6.97387059 C0.102364706,7.01010588 0.124364706,7.04245882 0.150247059,7.07351765 C0.176129412,7.10587059 0.203305882,7.13692941 0.235658824,7.16281176 C0.266717647,7.18869412 0.299070588,7.2094 0.335305882,7.22881176 C0.374129412,7.25210588 0.412952941,7.26892941 0.456952941,7.28316471 C0.475070588,7.28834118 0.4906,7.30257647 0.510011765,7.30645882 L2.15354118,7.66234118 L2.15354118,15.0258706 L0.547541176,15.3054 C0.522952941,15.3092824 0.503541176,15.3248118 0.481541176,15.3312824 C0.437541176,15.3442235 0.396129412,15.3571647 0.357305882,15.3791647 C0.321070588,15.3985765 0.290011765,15.4205765 0.257658824,15.4464588 C0.225305882,15.4723412 0.196835294,15.4995176 0.169658824,15.5318706 C0.142482353,15.5629294 0.120482353,15.5965765 0.101070588,15.6328118 C0.0816588235,15.6690471 0.0648352941,15.7039882 0.0518941176,15.7441059 C0.0376588235,15.7842235 0.0311882353,15.8282235 0.0260117647,15.8722235 C0.0234235294,15.8955176 0.0117764706,15.9175176 0.0117764706,15.9421059 L0.0117764706,18.8150471 C0.0117764706,18.8370471 0.0208352941,18.8538706 0.0234235294,18.8745765 C0.0273058824,18.9185765 0.0363647059,18.9586941 0.0493058824,19.0014 C0.0609529412,19.0415176 0.0751882353,19.0777529 0.0946,19.1152824 C0.114011765,19.1515176 0.136011765,19.1825765 0.161894118,19.2149294 C0.187776471,19.2472824 0.214952941,19.2783412 0.247305882,19.3042235 C0.278364706,19.3314 0.310717647,19.3508118 0.345658824,19.3715176 C0.385776471,19.3922235 0.4246,19.4103412 0.4686,19.4245765 C0.486717647,19.4297529 0.500952941,19.4439882 0.521658824,19.4465765 L2.15354118,19.8011647 L2.15354118,20.5452824 C2.15354118,21.3476353 2.82907059,21.9998706 3.65989412,21.9998706 L16.0226,21.9998706 C16.8521294,21.9998706 17.5276588,21.3476353 17.5276588,20.5452824 L17.5276588,1.45575294 C17.5276588,0.6534 16.8521294,-0.000129411765 16.0226,-0.000129411765 L16.0226,-0.000129411765 Z" id="Fill-1" fill="#F4F7FF" opacity="0.8" mask="url(#mask-2)"></path>
                    </g>
                </g>
            </g>
        </g>
    </g>
</svg>