<?xml version="1.0" encoding="UTF-8"?>
<svg width="28px" height="23px" viewBox="0 0 28 23" version="1.1" xmlns="http://www.w3.org/2000/svg" xmlns:xlink="http://www.w3.org/1999/xlink">
    <!-- Generator: Sketch 53.1 (72631) - https://sketchapp.com -->
    <title>icon</title>
    <desc>Created with Sketch.</desc>
    <defs>
        <polygon id="path-1" points="0 0.129837037 27.5928593 0.129837037 27.5928593 6.38887407 0 6.38887407"></polygon>
        <polygon id="path-3" points="0 0.166703704 27.5927037 0.166703704 27.5927037 6.93544444 0 6.93544444"></polygon>
        <polygon id="path-5" points="0 0.194444444 27.5927037 0.194444444 27.5927037 6.22222222 0 6.22222222"></polygon>
    </defs>
    <g id="Page-1" stroke="none" stroke-width="1" fill="none" fill-rule="evenodd">
        <g id="站点地图" transform="translate(-1481.000000, -183.000000)">
            <g id="站点设备数量" transform="translate(1440.000000, 105.000000)">
                <g id="华新水泥设备总的设备" transform="translate(21.000000, 60.000000)">
                    <g id="icon" transform="translate(20.000000, 18.000000)">
                        <g id="分组" transform="translate(0.000000, 0.388889)">
                            <mask id="mask-2" fill="white">
                                <use xlink:href="#path-1"></use>
                            </mask>
                            <g id="Clip-2"></g>
                            <path d="M4.62767407,2.62754074 L8.8478963,2.62754074 C9.27722963,2.62754074 9.62567407,2.97598519 9.62567407,3.40531852 C9.62567407,3.83465185 9.27722963,4.1830963 8.8478963,4.1830963 L4.62767407,4.1830963 C4.19834074,4.1830963 3.8498963,3.83465185 3.8498963,3.40531852 C3.8498963,2.97598519 4.19834074,2.62754074 4.62767407,2.62754074 L4.62767407,2.62754074 Z M21.356637,1.86791111 C22.2054519,1.86791111 22.894563,2.55598519 22.894563,3.40531852 C22.894563,4.25465185 22.2054519,4.94324444 21.356637,4.94324444 C20.5078222,4.94324444 19.8192296,4.25465185 19.8192296,3.40531852 C19.8192296,2.55598519 20.5078222,1.86791111 21.356637,1.86791111 L21.356637,1.86791111 Z M27.5928593,6.38887407 L27.5928593,3.65472593 C27.5928593,1.7108 25.9688593,0.129837037 23.9730815,0.129837037 L3.62019259,0.129837037 C1.6238963,0.129837037 -0.000103703704,1.7108 -0.000103703704,3.65472593 L-0.000103703704,6.38887407 L27.5928593,6.38887407 Z" id="Fill-1" fill="#F5FCFF" mask="url(#mask-2)"></path>
                        </g>
                        <g id="分组" transform="translate(0.000000, 8.166667)">
                            <mask id="mask-4" fill="white">
                                <use xlink:href="#path-3"></use>
                            </mask>
                            <g id="Clip-4"></g>
                            <path d="M21.3564815,5.10922222 C20.5076667,5.10922222 19.8190741,4.42114815 19.8190741,3.57181481 C19.8190741,2.72248148 20.5076667,2.03440741 21.3564815,2.03440741 C22.2058148,2.03440741 22.8944074,2.72248148 22.8944074,3.57181481 C22.8944074,4.42114815 22.2058148,5.10922222 21.3564815,5.10922222 L21.3564815,5.10922222 Z M8.84774074,4.34959259 L4.62751852,4.34959259 C4.19818519,4.34959259 3.84974074,4.00114815 3.84974074,3.57181481 C3.84974074,3.14248148 4.19818519,2.79403704 4.62751852,2.79403704 L8.84774074,2.79403704 C9.27707407,2.79403704 9.62551852,3.14248148 9.62551852,3.57181481 C9.62551852,4.00114815 9.27707407,4.34959259 8.84774074,4.34959259 L8.84774074,4.34959259 Z M-0.000259259259,6.93544444 L27.5927037,6.93544444 L27.5927037,0.166703704 L-0.000259259259,0.166703704 L-0.000259259259,6.93544444 Z" id="Fill-3" fill="#F5FCFF" mask="url(#mask-4)"></path>
                        </g>
                        <g id="分组" transform="translate(0.000000, 16.462963)">
                            <mask id="mask-6" fill="white">
                                <use xlink:href="#path-5"></use>
                            </mask>
                            <g id="Clip-6"></g>
                            <path d="M21.3564815,4.66666667 C20.5076667,4.66666667 19.8190741,3.97859259 19.8190741,3.12925926 C19.8190741,2.27992593 20.5076667,1.59185185 21.3564815,1.59185185 C22.2058148,1.59185185 22.8944074,2.27992593 22.8944074,3.12925926 C22.8944074,3.97859259 22.2058148,4.66666667 21.3564815,4.66666667 L21.3564815,4.66666667 Z M8.84774074,3.90703704 L4.62751852,3.90703704 C4.19818519,3.90703704 3.84974074,3.55859259 3.84974074,3.12925926 C3.84974074,2.69992593 4.19818519,2.35148148 4.62751852,2.35148148 L8.84774074,2.35148148 C9.27707407,2.35148148 9.62551852,2.69992593 9.62551852,3.12925926 C9.62551852,3.55859259 9.27707407,3.90703704 8.84774074,3.90703704 L8.84774074,3.90703704 Z M-0.000259259259,0.194444444 L-0.000259259259,2.6962963 C-0.000259259259,4.64022222 1.62374074,6.22222222 3.62003704,6.22222222 L13.1032222,6.22222222 L23.9729259,6.22222222 C25.9692222,6.22222222 27.5927037,4.64022222 27.5927037,2.6962963 L27.5927037,0.194444444 L-0.000259259259,0.194444444 Z" id="Fill-5" fill="#F5FCFF" mask="url(#mask-6)"></path>
                        </g>
                    </g>
                </g>
            </g>
        </g>
    </g>
</svg>