<?xml version="1.0" encoding="UTF-8"?>
<svg width="22px" height="22px" viewBox="0 0 22 22" version="1.1" xmlns="http://www.w3.org/2000/svg" xmlns:xlink="http://www.w3.org/1999/xlink">
    <!-- Generator: Sketch 53.1 (72631) - https://sketchapp.com -->
    <title>icon</title>
    <desc>Created with Sketch.</desc>
    <defs>
        <polygon id="path-1" points="0.000733333333 0.000293333333 22 0.000293333333 22 22 0.000733333333 22"></polygon>
    </defs>
    <g id="Page-1" stroke="none" stroke-width="1" fill="none" fill-rule="evenodd">
        <g id="站点地图" transform="translate(-1499.000000, -328.000000)">
            <g id="站点设备数量" transform="translate(1440.000000, 105.000000)">
                <g id="电机设备" transform="translate(21.000000, 137.000000)">
                    <g id="icon" transform="translate(38.000000, 86.000000)">
                        <path d="M11,8.46310667 C9.6052,8.46310667 8.47146667,9.59684 8.47146667,10.99164 C8.47146667,12.3849733 9.6052,13.5201733 11,13.5201733 C12.3948,13.5201733 13.5285333,12.3849733 13.5285333,10.99164 C13.5285333,9.59684 12.3948,8.46310667 11,8.46310667" id="Fill-1" fill="#F4F7FF" opacity="0.8"></path>
                        <g id="Group-5">
                            <mask id="mask-2" fill="white">
                                <use xlink:href="#path-1"></use>
                            </mask>
                            <g id="Clip-4" opacity="0.8"></g>
                            <path d="M17.7855333,11.5854933 L14.6586,11.5854933 C14.5632667,12.1662933 14.3388667,12.70016 14.0074,13.15776 L16.2191333,15.3680267 C16.4508667,15.6012267 16.4508667,15.9766933 16.2191333,16.2084267 C16.1032667,16.32576 15.9507333,16.38296 15.7982,16.38296 C15.6456667,16.38296 15.4946,16.32576 15.3772667,16.2084267 L13.167,13.9996267 C12.7094,14.3296267 12.1755333,14.5540267 11.5947333,14.64936 L11.5947333,17.77776 C11.5947333,18.1062933 11.3292667,18.37176 11.0007333,18.37176 C10.6707333,18.37176 10.4052667,18.1062933 10.4052667,17.77776 L10.4052667,14.64936 C9.82446667,14.5540267 9.2906,14.3296267 8.833,13.9996267 L6.62126667,16.2084267 C6.5054,16.32576 6.35433333,16.38296 6.2018,16.38296 C6.04926667,16.38296 5.8982,16.32576 5.78086667,16.2084267 C5.54913333,15.9766933 5.54913333,15.6012267 5.78086667,15.3680267 L7.99113333,13.15776 C7.66113333,12.70016 7.43673333,12.1662933 7.3414,11.5854933 L4.21446667,11.5854933 C3.88446667,11.5854933 3.619,11.31856 3.619,10.9914933 C3.619,10.6614933 3.88446667,10.3960267 4.21446667,10.3960267 L7.3414,10.3960267 C7.43673333,9.81522667 7.66113333,9.28136 7.9926,8.82376 L5.78086667,6.61202667 C5.54913333,6.38029333 5.54913333,6.00336 5.78086667,5.77162667 C6.01406667,5.53989333 6.38953333,5.53989333 6.62126667,5.77162667 L8.833,7.98336 C9.2906,7.65189333 9.82446667,7.42749333 10.4052667,7.33362667 L10.4052667,4.20522667 C10.4052667,3.87669333 10.6707333,3.61122667 11.0007333,3.61122667 C11.3292667,3.61122667 11.5947333,3.87669333 11.5947333,4.20522667 L11.5947333,7.33362667 C12.1755333,7.42749333 12.7094,7.65189333 13.167,7.98336 L15.3772667,5.77162667 C15.6104667,5.53989333 15.9859333,5.53989333 16.2191333,5.77162667 C16.4508667,6.00336 16.4508667,6.38029333 16.2191333,6.61202667 L14.0074,8.82376 C14.3388667,9.28136 14.5632667,9.81522667 14.6586,10.3960267 L17.7855333,10.3960267 C18.1140667,10.3960267 18.3795333,10.6614933 18.3795333,10.9914933 C18.3795333,11.31856 18.1140667,11.5854933 17.7855333,11.5854933 M19.9606,8.43216 C19.767,7.74869333 19.4912667,7.09016 19.1436667,6.46536 C19.7846,5.39762667 19.6496667,4.08496 18.7784667,3.21229333 C17.9102,2.34402667 16.5711333,2.20616 15.5268667,2.84416 C14.8800667,2.48336 14.2406,2.21789333 13.5542,2.02576 C13.2491333,0.826026667 12.2268667,0.000293333333 11.0007333,0.000293333333 C9.77606667,0.000293333333 8.73473333,0.845093333 8.44286667,2.02722667 C7.75793333,2.22376 7.09793333,2.49802667 6.47313333,2.84562667 C5.42886667,2.20616 4.0898,2.34402667 3.22153333,3.21229333 C2.3518,4.08349333 2.2154,5.39616 2.85486667,6.46389333 C2.50726667,7.08869333 2.233,7.74869333 2.03793333,8.43216 C0.849933333,8.71962667 0.000733333333,9.76389333 0.000733333333,10.9914933 C0.000733333333,12.2234933 0.832333333,13.2472267 2.0394,13.54936 C2.233,14.2342933 2.50726667,14.8928267 2.8534,15.5176267 C2.2154,16.5618933 2.35326667,17.90096 3.22153333,18.76776 C3.73193333,19.27816 4.39486667,19.5406933 5.07246667,19.5406933 C5.5462,19.5406933 6.0214,19.3896267 6.45993333,19.1300267 C7.08913333,19.4820267 7.75206667,19.7562933 8.43846667,19.95136 C8.723,21.1466933 9.76873333,22.0002933 11.0007333,22.0002933 C12.2342,22.0002933 13.2608667,21.1628267 13.5600667,19.95136 C14.2464667,19.7562933 14.9108667,19.4820267 15.5400667,19.1300267 C15.9800667,19.3896267 16.4538,19.5406933 16.929,19.5406933 C17.6051333,19.5406933 18.2680667,19.27816 18.7784667,18.76776 C19.6467333,17.90096 19.7846,16.5604267 19.1451333,15.5176267 C19.5000667,14.87816 19.7787333,14.2020267 19.9752667,13.4994933 C21.2439333,13.22376 22.0007333,12.30416 22.0007333,10.9914933 C22.0007333,9.76242667 21.1500667,8.71962667 19.9606,8.43216" id="Fill-3" fill="#F4F7FF" opacity="0.8" mask="url(#mask-2)"></path>
                        </g>
                    </g>
                </g>
            </g>
        </g>
    </g>
</svg>