<?xml version="1.0" encoding="UTF-8"?>
<svg width="46px" height="46px" viewBox="0 0 46 46" version="1.1" xmlns="http://www.w3.org/2000/svg" xmlns:xlink="http://www.w3.org/1999/xlink">
    <!-- Generator: Sketch 53.1 (72631) - https://sketchapp.com -->
    <title>img</title>
    <desc>Created with Sketch.</desc>
    <defs>
        <polygon id="path-1" points="0.00033 -3.55271368e-15 21.6348 -3.55271368e-15 21.6348 21.99285 0.00033 21.99285"></polygon>
    </defs>
    <g id="Page-1" stroke="none" stroke-width="1" fill="none" fill-rule="evenodd">
        <g id="站点地图" transform="translate(-1472.000000, -488.000000)">
            <g id="厂区分布" transform="translate(1441.000000, 411.000000)">
                <g id="阳新站点" transform="translate(21.000000, 62.000000)">
                    <g id="img" transform="translate(10.000000, 15.000000)">
                        <rect id="矩形" stroke="#00A7FF" fill="#00A7FF" x="0.5" y="0.5" width="45" height="45" rx="6"></rect>
                        <g id="icon" transform="translate(12.000000, 12.000000)">
                            <mask id="mask-2" fill="white">
                                <use xlink:href="#path-1"></use>
                            </mask>
                            <g id="Clip-2"></g>
                            <path d="M20.08193,5.97025 C20.06213,5.95155 20.03683,5.94495 20.01593,5.92735 C19.99613,5.91085 19.98623,5.88665 19.96423,5.87125 L12.80323,0.63525 C12.79993,0.63305 12.79553,0.63305 12.79333,0.63085 C11.65373,-0.21065 9.96963,-0.20955 8.84433,0.62975 C8.84103,0.63305 8.83553,0.63305 8.83223,0.63525 L1.67013,5.87125 C1.65473,5.88225 1.64703,5.90095 1.63273,5.91305 C1.61623,5.92515 1.59753,5.92845 1.58213,5.94275 C0.00033,7.37165 0.00033,8.40675 0.00033,10.67275 L0.00033,19.47165 C0.00033,20.86425 1.12893,21.99285 2.52153,21.99285 L7.21413,21.99285 C7.82133,21.99285 8.31413,21.50115 8.31413,20.89285 L8.31413,16.46755 C8.31413,15.82295 8.83773,15.29935 9.48343,15.29935 L12.15203,15.29935 C12.79663,15.29935 13.32023,15.82295 13.32023,16.46755 L13.32023,20.89285 C13.32023,21.50115 13.81303,21.99285 14.42023,21.99285 L19.11283,21.99285 C20.50543,21.99285 21.63513,20.86425 21.63513,19.47165 L21.63513,10.67275 C21.63513,8.41445 21.63513,7.48055 20.08193,5.97025" id="Fill-1" fill="#F3F6FE" mask="url(#mask-2)"></path>
                        </g>
                    </g>
                </g>
            </g>
        </g>
    </g>
</svg>