# 3ds Max Wavefront OBJ Exporter v0.97b - (c)2007 guruware
# 创建的文件:25.04.2019 14:06:23

mtllib zhejiangxiaozhenqiang.mtl

#
# object Line002
#

v  -8596.7861 3000.0000 5550.0000
v  -10664.7539 3000.0000 5550.0000
v  -10664.7539 0.0000 5550.0000
v  -8596.7861 0.0000 5550.0000
v  -8596.7861 3000.0000 5350.0000
v  -8596.7861 0.0000 5350.0000
v  -10199.9990 3000.0000 5350.0000
v  -10199.9990 0.0000 5350.0000
v  -10199.9990 3000.0000 5247.3081
v  -10199.9990 0.0000 5247.3081
v  -10399.9990 3000.0000 5247.3081
v  -10399.9990 0.0000 5247.3081
v  -10399.9990 3000.0000 5350.0000
v  -10399.9990 0.0000 5350.0000
v  -10664.7539 3000.0000 5350.0000
v  -10664.7539 0.0000 5350.0000
v  -2849.9990 3000.0000 5350.0000
v  -2849.9990 3000.0000 5550.0000
v  -2849.9990 0.0000 5550.0000
v  -2849.9990 0.0000 5350.0000
v  -5999.9990 3000.0000 5350.0000
v  -5999.9990 0.0000 5350.0000
v  -5999.9990 3000.0000 4950.0000
v  -5999.9990 0.0000 4950.0000
v  -6599.9990 3000.0000 4950.0000
v  -6599.9990 0.0000 4950.0000
v  -6599.9990 3000.0000 5350.0000
v  -6599.9990 0.0000 5350.0000
v  -7096.7861 3000.0000 5350.0000
v  -7096.7861 0.0000 5350.0000
v  -7096.7861 3000.0000 5550.0000
v  -7096.7861 0.0000 5550.0000
v  -1349.9990 3000.0000 5350.0000
v  -1349.9990 3000.0000 5550.0000
v  -1349.9990 0.0000 5550.0000
v  -1349.9990 0.0000 5350.0000
v  6018.7637 3000.0000 5550.0000
v  6018.7637 0.0000 5550.0000
v  6018.7637 3000.0000 5350.0000
v  6018.7637 0.0000 5350.0000
v  2400.0020 3000.0000 5350.0000
v  2400.0020 0.0000 5350.0000
v  2400.0020 3000.0000 -3210.0000
v  2400.0020 0.0000 -3210.0000
v  10200.0000 3000.0000 -3210.0000
v  10200.0000 0.0000 -3210.0000
v  10200.0000 3000.0000 5350.0000
v  10200.0000 0.0000 5350.0000
v  7418.7637 3000.0000 5350.0000
v  7418.7637 0.0000 5350.0000
v  7418.7637 3000.0000 5550.0000
v  7418.7637 0.0000 5550.0000
v  10400.0000 3000.0000 5550.0000
v  10400.0000 0.0000 5550.0000
v  10400.0000 3000.0000 -2850.0000
v  10400.0000 0.0000 -2850.0000
v  10800.0000 3000.0000 -2850.0000
v  10800.0000 0.0000 -2850.0000
v  10800.0000 3000.0000 -3450.0000
v  10800.0000 0.0000 -3450.0000
v  2400.0020 3000.0000 -3450.0000
v  2400.0020 0.0000 -3450.0000
v  2400.0020 3000.0000 -5550.0000
v  2400.0020 0.0000 -5550.0000
v  -10649.9990 3000.0000 -5550.0000
v  -10649.9990 0.0000 -5550.0000
v  -10649.9990 3000.0000 -3450.0000
v  -10649.9990 0.0000 -3450.0000
v  -10799.9990 3000.0000 -3450.0000
v  -10799.9990 0.0000 -3450.0000
v  -10799.9990 3000.0000 -2850.0000
v  -10799.9990 0.0000 -2850.0000
v  -10399.9990 3000.0000 -2850.0000
v  -10399.9990 0.0000 -2850.0000
v  -10399.9990 3000.0000 3795.0996
v  -10399.9990 0.0000 3795.0996
v  -10199.9990 3000.0000 3795.0996
v  -10199.9990 0.0000 3795.0996
v  -10199.9990 3000.0000 -3450.0000
v  -10199.9990 0.0000 -3450.0000
v  -10409.9980 3000.0000 -3450.0000
v  -10409.9980 0.0000 -3450.0000
v  -10409.9990 3000.0000 -5310.0000
v  -10409.9990 0.0000 -5310.0000
v  -6599.9985 3000.0000 -5310.0000
v  -6599.9985 0.0000 -5310.0000
v  -6599.9985 3000.0000 -4950.0000
v  -6599.9985 0.0000 -4950.0000
v  -5999.9985 3000.0000 -4950.0000
v  -5999.9985 0.0000 -4950.0000
v  -5999.9985 3000.0000 -5310.0000
v  -5999.9985 0.0000 -5310.0000
v  2160.0020 3000.0000 -5310.0000
v  2160.0020 0.0000 -5310.0000
v  2160.0020 3000.0000 -3450.0000
v  2160.0020 0.0000 -3450.0000
v  1800.0020 3000.0000 -3450.0000
v  1800.0020 0.0000 -3450.0000
v  1800.0020 3000.0000 -2850.0000
v  1800.0020 0.0000 -2850.0000
v  2200.0020 3000.0000 -2850.0000
v  2200.0020 0.0000 -2850.0000
v  2200.0020 3000.0000 4950.0000
v  2200.0020 0.0000 4950.0000
v  1800.0020 3000.0000 4950.0000
v  1800.0020 0.0000 4950.0000
v  1800.0020 3000.0000 5350.0000
v  1800.0020 0.0000 5350.0000
v  -8596.8633 2399.8967 5547.0464
v  -8596.8633 2399.8967 5347.0464
v  -7096.8638 2399.8967 5347.0464
v  -7096.8638 2399.8967 5547.0464
v  -8596.8633 2999.8967 5547.0464
v  -7096.8638 2999.8967 5547.0464
v  -7096.8638 2999.8967 5347.0464
v  -8596.8633 2999.8967 5347.0464
v  -8596.7852 0.0000 5549.9995
v  -8596.7852 0.0000 5349.9995
v  -7096.7856 0.0000 5349.9995
v  -7096.7856 0.0000 5549.9995
v  -8596.7852 2400.0000 5549.9995
v  -7096.7856 2400.0000 5549.9995
v  -7096.7856 2400.0000 5349.9995
v  -8596.7852 2400.0000 5349.9995
v  -2849.9990 2400.0002 5550.0000
v  -2849.9990 2400.0002 5350.0000
v  -1349.9990 2400.0002 5350.0000
v  -1349.9990 2400.0002 5550.0000
v  -2849.9990 3000.0002 5550.0000
v  -1349.9990 3000.0002 5550.0000
v  -1349.9990 3000.0002 5350.0000
v  -2849.9990 3000.0002 5350.0000
v  -2849.9990 -0.0006 5550.0000
v  -2849.9990 -0.0006 5350.0000
v  -1349.9990 -0.0006 5350.0000
v  -1349.9990 -0.0006 5550.0000
v  -2849.9990 2399.9995 5550.0000
v  -1349.9990 2399.9995 5550.0000
v  -1349.9990 2399.9995 5350.0000
v  -2849.9990 2399.9995 5350.0000
v  6018.7637 2400.0000 5550.0000
v  6018.7637 2400.0000 5350.0000
v  7418.7637 2400.0000 5350.0000
v  7418.7637 2400.0000 5550.0000
v  6018.7637 -0.0001 5550.0000
v  6018.7637 -0.0001 5350.0000
v  7418.7637 -0.0001 5350.0000
v  7418.7637 -0.0001 5550.0000
v  -10399.9980 2399.9995 5247.3076
v  -10399.9980 2399.9995 3795.0989
v  -10199.9980 2399.9995 3795.0989
v  -10199.9980 2399.9995 5247.3076
v  -10399.9980 2999.9995 5247.3076
v  -10199.9980 2999.9995 5247.3076
v  -10199.9980 2999.9995 3795.0989
v  -10399.9980 2999.9995 3795.0989
v  -10399.9980 0.0005 5247.3086
v  -10399.9980 0.0005 3795.0999
v  -10199.9980 0.0005 3795.0999
v  -10199.9980 0.0005 5247.3086
v  -10399.9980 2400.0005 5247.3086
v  -10199.9980 2400.0005 5247.3086
v  -10199.9980 2400.0005 3795.0999
v  -10399.9980 2400.0005 3795.0999
# 164 vertices

vn 0.0000 0.0000 1.0000
vn 1.0000 0.0000 -0.0000
vn 0.0000 0.0000 -1.0000
vn -1.0000 0.0000 -0.0000
vn 0.0000 -1.0000 -0.0000
vn 0.0000 1.0000 -0.0000
# 6 vertex normals

vt 0.7483 0.5907 0.0000
vt 0.7483 0.6408 0.0000
vt 0.6756 0.6408 0.0000
vt 0.6756 0.5907 0.0000
vt 0.9543 0.6876 0.0000
vt 0.9543 0.6925 0.0000
vt 0.8816 0.6925 0.0000
vt 0.8816 0.6876 0.0000
vt 0.1727 0.9404 0.0000
vt 0.1727 0.9792 0.0000
vt 0.1000 0.9792 0.0000
vt 0.1000 0.9404 0.0000
vt 0.8721 0.9169 0.0000
vt 0.8721 0.9194 0.0000
vt 0.7994 0.9194 0.0000
vt 0.7994 0.9169 0.0000
vt 0.7267 0.8082 0.0000
vt 0.7267 0.8131 0.0000
vt 0.6540 0.8131 0.0000
vt 0.6540 0.8082 0.0000
vt 0.9600 0.8823 0.0000
vt 0.9600 0.8848 0.0000
vt 0.8873 0.8848 0.0000
vt 0.8873 0.8823 0.0000
vt 0.7494 0.6876 0.0000
vt 0.7494 0.6940 0.0000
vt 0.6767 0.6940 0.0000
vt 0.6767 0.6876 0.0000
vt 0.7267 0.8477 0.0000
vt 0.7267 0.8526 0.0000
vt 0.6540 0.8526 0.0000
vt 0.6540 0.8477 0.0000
vt 0.9316 0.7688 0.0000
vt 0.9316 0.7736 0.0000
vt 0.8589 0.7736 0.0000
vt 0.8589 0.7688 0.0000
vt 0.7671 0.3963 0.0000
vt 0.8434 0.3963 0.0000
vt 0.8434 0.4690 0.0000
vt 0.7671 0.4690 0.0000
vt 0.4338 0.9205 0.0000
vt 0.4338 0.9302 0.0000
vt 0.3611 0.9302 0.0000
vt 0.3611 0.9205 0.0000
vt 0.9384 0.5348 0.0000
vt 0.9384 0.5494 0.0000
vt 0.8657 0.5494 0.0000
vt 0.8657 0.5348 0.0000
vt 0.6242 0.7688 0.0000
vt 0.6242 0.7785 0.0000
vt 0.5515 0.7785 0.0000
vt 0.5515 0.7688 0.0000
vt 0.4338 0.8787 0.0000
vt 0.4338 0.8907 0.0000
vt 0.3611 0.8907 0.0000
vt 0.3611 0.8787 0.0000
vt 0.8291 0.7688 0.0000
vt 0.8291 0.7736 0.0000
vt 0.7564 0.7736 0.0000
vt 0.7564 0.7688 0.0000
vt 0.2359 0.8058 0.0000
vt 0.3388 0.8058 0.0000
vt 0.3388 0.8785 0.0000
vt 0.2359 0.8785 0.0000
vt 0.6242 0.8823 0.0000
vt 0.6242 0.8872 0.0000
vt 0.5515 0.8872 0.0000
vt 0.5515 0.8823 0.0000
vt 0.5317 0.3602 0.0000
vt 0.7102 0.3602 0.0000
vt 0.7102 0.4329 0.0000
vt 0.5317 0.4329 0.0000
vt 0.8291 0.8082 0.0000
vt 0.8291 0.8131 0.0000
vt 0.7564 0.8131 0.0000
vt 0.7564 0.8082 0.0000
vt 0.5818 0.6000 0.0000
vt 0.6695 0.6000 0.0000
vt 0.6695 0.6727 0.0000
vt 0.5818 0.6727 0.0000
vt 0.7391 0.4329 0.0000
vt 0.7391 0.5056 0.0000
vt 0.5317 0.5056 0.0000
vt 0.7855 0.3013 0.0000
vt 0.9745 0.3013 0.0000
vt 0.9745 0.3740 0.0000
vt 0.7855 0.3740 0.0000
vt 0.0100 0.6149 0.0000
vt 0.2174 0.6149 0.0000
vt 0.2174 0.6876 0.0000
vt 0.0100 0.6876 0.0000
vt 0.9740 0.2330 0.0000
vt 0.9740 0.3004 0.0000
vt 0.9013 0.3004 0.0000
vt 0.9013 0.2330 0.0000
vt 0.6242 0.8477 0.0000
vt 0.6242 0.8526 0.0000
vt 0.5515 0.8526 0.0000
vt 0.5515 0.8477 0.0000
vt 0.0827 0.8777 0.0000
vt 0.0827 0.9499 0.0000
vt 0.0100 0.9499 0.0000
vt 0.0100 0.8777 0.0000
vt 0.6075 0.0827 0.0000
vt 0.8111 0.0827 0.0000
vt 0.8111 0.1554 0.0000
vt 0.6075 0.1554 0.0000
vt 0.8329 0.6369 0.0000
vt 0.8329 0.6466 0.0000
vt 0.7602 0.6466 0.0000
vt 0.7602 0.6369 0.0000
vt 0.4338 0.8344 0.0000
vt 0.4338 0.8489 0.0000
vt 0.3611 0.8489 0.0000
vt 0.3611 0.8344 0.0000
vt 0.2135 0.6876 0.0000
vt 0.2135 0.7603 0.0000
vt 0.0100 0.7603 0.0000
vt 0.3086 0.8785 0.0000
vt 0.3086 0.9294 0.0000
vt 0.2359 0.9294 0.0000
vt 0.5781 0.0100 0.0000
vt 0.8943 0.0100 0.0000
vt 0.8943 0.0827 0.0000
vt 0.5781 0.0827 0.0000
vt 0.1727 0.8895 0.0000
vt 0.1000 0.8895 0.0000
vt 0.8291 0.8477 0.0000
vt 0.8291 0.8513 0.0000
vt 0.7564 0.8513 0.0000
vt 0.7564 0.8477 0.0000
vt 0.3086 0.9663 0.0000
vt 0.3086 0.9808 0.0000
vt 0.2359 0.9808 0.0000
vt 0.2359 0.9663 0.0000
vt 0.9354 0.5926 0.0000
vt 0.9354 0.6023 0.0000
vt 0.8627 0.6023 0.0000
vt 0.8627 0.5926 0.0000
vt 0.0100 0.7826 0.0000
vt 0.1710 0.7826 0.0000
vt 0.1710 0.8553 0.0000
vt 0.0100 0.8553 0.0000
vt 0.8519 0.6876 0.0000
vt 0.8519 0.6925 0.0000
vt 0.7792 0.6925 0.0000
vt 0.7792 0.6876 0.0000
vt 0.9866 0.0827 0.0000
vt 0.9866 0.1554 0.0000
vt 0.0827 0.9797 0.0000
vt 0.0827 0.9848 0.0000
vt 0.0100 0.9848 0.0000
vt 0.0100 0.9797 0.0000
vt 0.9384 0.4414 0.0000
vt 0.9384 0.4865 0.0000
vt 0.8657 0.4865 0.0000
vt 0.8657 0.4414 0.0000
vt 0.9866 0.0100 0.0000
vt 0.7267 0.7688 0.0000
vt 0.7267 0.7775 0.0000
vt 0.6540 0.7775 0.0000
vt 0.6540 0.7688 0.0000
vt 0.8329 0.5926 0.0000
vt 0.8329 0.6071 0.0000
vt 0.7602 0.6071 0.0000
vt 0.7602 0.5926 0.0000
vt 0.8291 0.7245 0.0000
vt 0.8291 0.7332 0.0000
vt 0.7564 0.7332 0.0000
vt 0.7564 0.7245 0.0000
vt 0.2359 0.7331 0.0000
vt 0.4336 0.7331 0.0000
vt 0.4336 0.8058 0.0000
vt 0.9384 0.3963 0.0000
vt 0.8657 0.3963 0.0000
vt 0.4338 0.9600 0.0000
vt 0.4338 0.9687 0.0000
vt 0.3611 0.9687 0.0000
vt 0.3611 0.9600 0.0000
vt 0.6242 0.7245 0.0000
vt 0.6242 0.7390 0.0000
vt 0.5515 0.7390 0.0000
vt 0.5515 0.7245 0.0000
vt 0.9354 0.6321 0.0000
vt 0.9354 0.6418 0.0000
vt 0.8627 0.6418 0.0000
vt 0.8627 0.6321 0.0000
vt 0.7207 0.5056 0.0000
vt 0.7207 0.5783 0.0000
vt 0.5317 0.5783 0.0000
vt 0.7267 0.7245 0.0000
vt 0.7267 0.7342 0.0000
vt 0.6540 0.7342 0.0000
vt 0.6540 0.7245 0.0000
vt 0.6242 0.8082 0.0000
vt 0.6242 0.8179 0.0000
vt 0.5515 0.8179 0.0000
vt 0.5515 0.8082 0.0000
vt 0.8434 0.5417 0.0000
vt 0.7671 0.5417 0.0000
vt 0.9316 0.7245 0.0000
vt 0.9316 0.7293 0.0000
vt 0.8589 0.7293 0.0000
vt 0.8589 0.7245 0.0000
vt 0.9754 0.1942 0.0000
vt 0.9365 0.1942 0.0000
vt 0.9365 0.1893 0.0000
vt 0.9802 0.1942 0.0000
vt 0.9866 0.1893 0.0000
vt 0.9866 0.1942 0.0000
vt 0.9754 0.1967 0.0000
vt 0.9802 0.1967 0.0000
vt 0.3122 0.9343 0.0000
vt 0.2359 0.9343 0.0000
vt 0.3267 0.9343 0.0000
vt 0.3388 0.9294 0.0000
vt 0.3388 0.9343 0.0000
vt 0.3122 0.9439 0.0000
vt 0.3267 0.9439 0.0000
vt 0.4128 0.7263 0.0000
vt 0.4642 0.7263 0.0000
vt 0.4642 0.7291 0.0000
vt 0.4043 0.7263 0.0000
vt 0.3596 0.7291 0.0000
vt 0.3596 0.7263 0.0000
vt 0.4043 0.7206 0.0000
vt 0.4100 0.7206 0.0000
vt 0.4100 0.6099 0.0000
vt 0.4128 0.6048 0.0000
vt 0.4043 0.6099 0.0000
vt 0.4043 0.6014 0.0000
vt 0.4094 0.6014 0.0000
vt 0.2936 0.5750 0.0000
vt 0.2936 0.5801 0.0000
vt 0.2851 0.5801 0.0000
vt 0.2851 0.5750 0.0000
vt 0.2310 0.6014 0.0000
vt 0.2340 0.6014 0.0000
vt 0.2340 0.7042 0.0000
vt 0.2312 0.6099 0.0000
vt 0.2312 0.7042 0.0000
vt 0.2255 0.6099 0.0000
vt 0.2276 0.6014 0.0000
vt 0.2255 0.6014 0.0000
vt 0.2310 0.5750 0.0000
vt 0.2276 0.5716 0.0000
vt 0.4128 0.5716 0.0000
vt 0.4094 0.5750 0.0000
vt 0.4128 0.6014 0.0000
vt 0.5235 0.6048 0.0000
vt 0.5321 0.6014 0.0000
vt 0.5321 0.6099 0.0000
vt 0.5264 0.6099 0.0000
vt 0.5235 0.7263 0.0000
vt 0.5264 0.7291 0.0000
vt 0.4841 0.7263 0.0000
vt 0.4841 0.7291 0.0000
vt 0.8059 0.5575 0.0000
vt 0.8108 0.5575 0.0000
vt 0.8108 0.5599 0.0000
vt 0.8059 0.5599 0.0000
vt 0.8172 0.5599 0.0000
vt 0.8172 0.5648 0.0000
vt 0.7671 0.5648 0.0000
vt 0.7671 0.5599 0.0000
vt 0.6278 0.6876 0.0000
vt 0.6424 0.6876 0.0000
vt 0.6424 0.6973 0.0000
vt 0.6278 0.6973 0.0000
vt 0.6544 0.6973 0.0000
vt 0.6544 0.7022 0.0000
vt 0.5515 0.7022 0.0000
vt 0.5515 0.6973 0.0000
vt 0.7917 0.1630 0.0000
vt 0.7917 0.1600 0.0000
vt 0.8363 0.1600 0.0000
vt 0.8333 0.1630 0.0000
vt 0.8363 0.2858 0.0000
vt 0.8423 0.2858 0.0000
vt 0.8423 0.2948 0.0000
vt 0.8333 0.2912 0.0000
vt 0.5210 0.2948 0.0000
vt 0.5188 0.2948 0.0000
vt 0.5188 0.2858 0.0000
vt 0.5246 0.2948 0.0000
vt 0.5247 0.2858 0.0000
vt 0.5247 0.1863 0.0000
vt 0.5277 0.1863 0.0000
vt 0.5277 0.2948 0.0000
vt 0.5246 0.3227 0.0000
vt 0.5210 0.3263 0.0000
vt 0.7165 0.3263 0.0000
vt 0.5817 0.3227 0.0000
vt 0.5817 0.3173 0.0000
vt 0.5907 0.3173 0.0000
vt 0.5907 0.3227 0.0000
vt 0.7129 0.3227 0.0000
vt 0.7165 0.2948 0.0000
vt 0.7129 0.2948 0.0000
vt 0.7075 0.2948 0.0000
vt 0.7075 0.2858 0.0000
vt 0.7135 0.2858 0.0000
vt 0.7165 0.2912 0.0000
vt 0.7135 0.1690 0.0000
vt 0.7075 0.1690 0.0000
vt 0.7075 0.1630 0.0000
vt 0.7165 0.1630 0.0000
vt 0.6603 0.1630 0.0000
vt 0.6603 0.1600 0.0000
vt 0.7707 0.1600 0.0000
vt 0.7707 0.1630 0.0000
vt 0.7478 0.9515 0.0000
vt 0.7478 0.9564 0.0000
vt 0.7115 0.9564 0.0000
vt 0.7115 0.9515 0.0000
vt 0.7086 0.6624 0.0000
vt 0.6723 0.6624 0.0000
vt 0.6723 0.6576 0.0000
vt 0.7086 0.6576 0.0000
vt 0.9900 0.4857 0.0000
vt 0.9537 0.4857 0.0000
vt 0.9537 0.4712 0.0000
vt 0.9900 0.4712 0.0000
vt 0.9682 0.4012 0.0000
vt 0.9682 0.3963 0.0000
vt 0.9827 0.3963 0.0000
vt 0.9827 0.4012 0.0000
vt 0.5878 0.9315 0.0000
vt 0.5515 0.9315 0.0000
vt 0.5515 0.9169 0.0000
vt 0.5878 0.9169 0.0000
vt 0.9651 0.6369 0.0000
vt 0.9651 0.6321 0.0000
vt 0.9797 0.6321 0.0000
vt 0.9797 0.6369 0.0000
vt 0.9866 0.1845 0.0000
vt 0.9503 0.1893 0.0000
vt 0.9503 0.1845 0.0000
vt 0.4999 0.9004 0.0000
vt 0.4636 0.9004 0.0000
vt 0.4636 0.8955 0.0000
vt 0.4999 0.8955 0.0000
vt 0.0038 0.2879 0.0000
vt 0.0038 0.1439 0.0000
vt 0.2343 0.1439 0.0000
vt 0.2343 0.2879 0.0000
vt 0.4636 0.8658 0.0000
vt 0.4636 0.8609 0.0000
vt 0.5217 0.8609 0.0000
vt 0.5217 0.8658 0.0000
vt 0.0038 0.4319 0.0000
vt 0.2343 0.4319 0.0000
vt 0.7994 0.8872 0.0000
vt 0.7994 0.8823 0.0000
vt 0.8575 0.8823 0.0000
vt 0.8575 0.8872 0.0000
vt 0.7478 0.9787 0.0000
vt 0.7478 0.9836 0.0000
vt 0.7115 0.9836 0.0000
vt 0.7115 0.9787 0.0000
vt 0.9382 0.9218 0.0000
vt 0.9019 0.9218 0.0000
vt 0.9019 0.9169 0.0000
vt 0.9382 0.9169 0.0000
vt 0.9866 0.1699 0.0000
vt 0.9503 0.1699 0.0000
vt 0.9503 0.1554 0.0000
vt 0.9682 0.4358 0.0000
vt 0.9682 0.4309 0.0000
vt 0.9827 0.4309 0.0000
vt 0.9827 0.4358 0.0000
vt 0.4999 0.7671 0.0000
vt 0.4636 0.7671 0.0000
vt 0.4636 0.7526 0.0000
vt 0.4999 0.7526 0.0000
vt 0.9613 0.7736 0.0000
vt 0.9613 0.7688 0.0000
vt 0.9759 0.7688 0.0000
vt 0.9759 0.7736 0.0000
vt 0.8357 0.9492 0.0000
vt 0.8357 0.9540 0.0000
vt 0.7994 0.9540 0.0000
vt 0.7994 0.9492 0.0000
vt 0.9831 0.8526 0.0000
vt 0.9468 0.8526 0.0000
vt 0.9468 0.8477 0.0000
vt 0.9831 0.8477 0.0000
vt 0.2343 0.1484 0.0000
vt 0.2343 0.0044 0.0000
vt 0.4647 0.0044 0.0000
vt 0.4647 0.1484 0.0000
vt 0.5515 0.9586 0.0000
vt 0.5515 0.9538 0.0000
vt 0.6096 0.9538 0.0000
vt 0.6096 0.9586 0.0000
vt 0.2343 0.4269 0.0000
vt 0.2343 0.2829 0.0000
vt 0.4647 0.2829 0.0000
vt 0.4647 0.4269 0.0000
vt 0.9164 0.8131 0.0000
vt 0.9164 0.8082 0.0000
vt 0.9746 0.8082 0.0000
vt 0.9746 0.8131 0.0000
vt 0.9569 0.9838 0.0000
vt 0.9569 0.9886 0.0000
vt 0.9230 0.9886 0.0000
vt 0.9230 0.9838 0.0000
vt 0.8333 0.9812 0.0000
vt 0.7994 0.9812 0.0000
vt 0.7994 0.9764 0.0000
vt 0.8333 0.9764 0.0000
vt 0.9527 0.1845 0.0000
vt 0.9527 0.1699 0.0000
vt 0.9613 0.7293 0.0000
vt 0.9613 0.7245 0.0000
vt 0.9759 0.7245 0.0000
vt 0.9759 0.7293 0.0000
vt 0.4975 0.8040 0.0000
vt 0.4636 0.8040 0.0000
vt 0.4636 0.7894 0.0000
vt 0.4975 0.7894 0.0000
vt 0.9651 0.5974 0.0000
vt 0.9651 0.5926 0.0000
vt 0.9797 0.5926 0.0000
vt 0.9797 0.5974 0.0000
vt 0.6879 0.9192 0.0000
vt 0.6879 0.9240 0.0000
vt 0.6540 0.9240 0.0000
vt 0.6540 0.9192 0.0000
vt 0.8920 0.9886 0.0000
vt 0.8581 0.9886 0.0000
vt 0.8581 0.9838 0.0000
vt 0.8920 0.9838 0.0000
vt 0.0038 0.5664 0.0000
vt 0.2343 0.5664 0.0000
vt 0.8589 0.8526 0.0000
vt 0.8589 0.8477 0.0000
vt 0.9170 0.8477 0.0000
vt 0.9170 0.8526 0.0000
vt 0.7115 0.8872 0.0000
vt 0.7115 0.8823 0.0000
vt 0.7696 0.8823 0.0000
vt 0.7696 0.8872 0.0000
vt 0.9582 0.9540 0.0000
vt 0.9230 0.9540 0.0000
vt 0.9230 0.9492 0.0000
vt 0.9582 0.9492 0.0000
vt 0.4636 0.9622 0.0000
vt 0.4636 0.9573 0.0000
vt 0.4988 0.9573 0.0000
vt 0.4988 0.9622 0.0000
vt 0.6540 0.9512 0.0000
vt 0.6540 0.9464 0.0000
vt 0.6685 0.9464 0.0000
vt 0.6685 0.9512 0.0000
vt 0.8941 0.8228 0.0000
vt 0.8589 0.8228 0.0000
vt 0.8589 0.8082 0.0000
vt 0.8941 0.8082 0.0000
vt 0.9682 0.5397 0.0000
vt 0.9682 0.5348 0.0000
vt 0.9827 0.5348 0.0000
vt 0.9827 0.5397 0.0000
vt 0.6891 0.8969 0.0000
vt 0.6540 0.8969 0.0000
vt 0.6540 0.8823 0.0000
vt 0.6891 0.8823 0.0000
vt 0.4988 0.9275 0.0000
vt 0.4636 0.9275 0.0000
vt 0.4636 0.9227 0.0000
vt 0.4988 0.9227 0.0000
vt 0.8581 0.9540 0.0000
vt 0.8581 0.9492 0.0000
vt 0.8933 0.9492 0.0000
vt 0.8933 0.9540 0.0000
vt 0.7115 0.9218 0.0000
vt 0.7115 0.9169 0.0000
vt 0.7696 0.9169 0.0000
vt 0.7696 0.9218 0.0000
vt 0.4647 0.5664 0.0000
vt 0.4636 0.8312 0.0000
vt 0.4636 0.8263 0.0000
vt 0.5217 0.8263 0.0000
vt 0.5217 0.8312 0.0000
vt 0.0038 0.0044 0.0000
# 485 texture coords

g Line002
usemtl wire_141007058
s 1
f 1/1/1 2/2/1 3/3/1 4/4/1 
s 4
f 5/5/2 1/6/2 4/7/2 6/8/2 
s 2
f 7/9/3 5/10/3 6/11/3 8/12/3 
s 4
f 9/13/2 7/14/2 8/15/2 10/16/2 
s 2
f 11/17/3 9/18/3 10/19/3 12/20/3 
s 4
f 13/21/4 11/22/4 12/23/4 14/24/4 
s 2
f 15/25/3 13/26/3 14/27/3 16/28/3 
s 4
f 2/29/4 15/30/4 16/31/4 3/32/4 
s 1
f 17/33/2 18/34/2 19/35/2 20/36/2 
s 4
f 21/37/3 17/38/3 20/39/3 22/40/3 
s 2
f 23/41/2 21/42/2 22/43/2 24/44/2 
s 4
f 25/45/3 23/46/3 24/47/3 26/48/3 
s 2
f 27/49/4 25/50/4 26/51/4 28/52/4 
s 4
f 29/53/3 27/54/3 28/55/3 30/56/3 
s 2
f 31/57/4 29/58/4 30/59/4 32/60/4 
s 4
f 18/61/1 31/62/1 32/63/1 19/64/1 
s 1
f 33/65/2 34/66/2 35/67/2 36/68/2 
f 37/69/1 34/70/1 35/71/1 38/72/1 
s 4
f 39/73/2 37/74/2 38/75/2 40/76/2 
s 2
f 41/77/3 39/78/3 40/79/3 42/80/3 
s 4
f 43/72/2 41/81/2 42/82/2 44/83/2 
s 2
f 45/84/1 43/85/1 44/86/1 46/87/1 
s 4
f 47/88/4 45/89/4 46/90/4 48/91/4 
s 2
f 49/92/3 47/93/3 48/94/3 50/95/3 
s 4
f 51/96/4 49/97/4 50/98/4 52/99/4 
s 2
f 53/100/1 51/101/1 52/102/1 54/103/1 
s 4
f 55/104/2 53/105/2 54/106/2 56/107/2 
s 2
f 57/108/1 55/109/1 56/110/1 58/111/1 
s 4
f 59/112/2 57/113/2 58/114/2 60/115/2 
s 2
f 61/91/3 59/116/3 60/117/3 62/118/3 
s 4
f 63/119/2 61/120/2 62/121/2 64/64/2 
s 2
f 65/122/3 63/123/3 64/124/3 66/125/3 
s 4
f 67/126/4 65/9/4 66/12/4 68/127/4 
s 2
f 69/128/3 67/129/3 68/130/3 70/131/3 
s 4
f 71/132/4 69/133/4 70/134/4 72/135/4 
s 2
f 73/136/1 71/137/1 72/138/1 74/139/1 
s 4
f 75/140/4 73/141/4 74/142/4 76/143/4 
s 2
f 77/144/1 75/145/1 76/146/1 78/147/1 
s 4
f 79/105/2 77/148/2 78/149/2 80/106/2 
s 2
f 81/150/3 79/151/3 80/152/3 82/153/3 
s 4
f 83/154/2 81/155/2 82/156/2 84/157/2 
s 2
f 85/123/1 83/158/1 84/148/1 86/124/1 
s 4
f 87/159/4 85/160/4 86/161/4 88/162/4 
s 2
f 89/163/1 87/164/1 88/165/1 90/166/1 
s 4
f 91/167/2 89/168/2 90/169/2 92/170/2 
s 2
f 93/171/1 91/172/1 92/173/1 94/61/1 
s 4
f 95/174/4 93/154/4 94/157/4 96/175/4 
s 2
f 97/176/3 95/177/3 96/178/3 98/179/3 
s 4
f 99/180/4 97/181/4 98/182/4 100/183/4 
s 2
f 101/184/1 99/185/1 100/186/1 102/187/1 
s 4
f 103/83/4 101/188/4 102/189/4 104/190/4 
s 2
f 105/191/3 103/192/3 104/193/3 106/194/3 
s 4
f 107/195/4 105/196/4 106/197/4 108/198/4 
s 2
f 33/40/3 107/39/3 108/199/3 36/200/3 
s 4
f 34/201/4 33/202/4 36/203/4 35/204/4 
s 16
f 8/205/5 6/206/5 4/207/5 14/208/5 
f 3/209/5 16/210/5 14/208/5 4/207/5 
f 10/211/5 8/205/5 14/208/5 12/212/5 
f 22/213/5 20/214/5 19/121/5 28/215/5 
f 19/121/5 32/216/5 30/217/5 28/215/5 
f 24/218/5 22/213/5 28/215/5 26/219/5 
f 42/220/5 40/221/5 38/222/5 108/223/5 
f 35/224/5 36/225/5 108/223/5 38/222/5 
f 108/223/5 106/226/5 104/227/5 42/220/5 
f 42/220/5 104/227/5 102/228/5 44/229/5 
f 102/228/5 100/230/5 98/231/5 96/232/5 
f 92/233/5 90/234/5 88/235/5 86/236/5 
f 82/237/5 80/238/5 78/239/5 74/240/5 
f 78/239/5 76/241/5 74/240/5 
f 82/237/5 74/240/5 72/242/5 68/243/5 
f 72/242/5 70/244/5 68/243/5 
f 84/245/5 82/237/5 68/243/5 66/246/5 
f 84/245/5 66/246/5 64/247/5 86/236/5 
f 92/233/5 86/236/5 64/247/5 94/248/5 
f 94/248/5 64/247/5 62/249/5 96/232/5 
f 102/228/5 96/232/5 62/249/5 44/229/5 
f 46/250/5 44/229/5 62/249/5 60/251/5 
f 60/251/5 58/252/5 56/253/5 46/250/5 
f 48/254/5 46/250/5 56/253/5 54/255/5 
f 50/256/5 48/254/5 54/255/5 52/257/5 
f 9/258/6 11/259/6 13/260/6 7/261/6 
f 13/260/6 15/262/6 2/263/6 1/264/6 
f 1/264/6 5/265/6 7/261/6 13/260/6 
f 23/266/6 25/267/6 27/268/6 21/269/6 
f 29/270/6 31/271/6 18/272/6 27/268/6 
f 18/272/6 17/273/6 21/269/6 27/268/6 
f 49/274/6 51/275/6 53/276/6 47/277/6 
f 55/278/6 57/279/6 59/280/6 45/281/6 
f 67/282/6 69/283/6 71/284/6 81/285/6 
f 73/286/6 75/287/6 77/288/6 81/285/6 
f 77/288/6 79/289/6 81/285/6 
f 71/284/6 73/286/6 81/285/6 
f 67/282/6 81/285/6 83/290/6 65/291/6 
f 63/292/6 65/291/6 83/290/6 85/293/6 
f 87/294/6 89/295/6 91/296/6 85/293/6 
f 63/292/6 85/293/6 91/296/6 93/297/6 
f 61/298/6 63/292/6 93/297/6 95/299/6 
f 97/300/6 99/301/6 101/302/6 95/299/6 
f 61/298/6 95/299/6 101/302/6 43/303/6 
f 103/304/6 105/305/6 107/306/6 41/307/6 
f 107/306/6 33/308/6 34/309/6 37/310/6 
f 37/310/6 39/311/6 41/307/6 107/306/6 
f 101/302/6 103/304/6 41/307/6 43/303/6 
f 61/298/6 43/303/6 45/281/6 59/280/6 
f 55/278/6 45/281/6 47/277/6 53/276/6 
s 2
f 109/312/5 110/313/5 111/314/5 112/315/5 
s 4
f 113/316/6 114/317/6 115/318/6 116/319/6 
s 8
f 109/320/1 112/321/1 114/322/1 113/323/1 
s 16
f 112/324/2 111/325/2 115/326/2 114/327/2 
s 32
f 111/328/3 110/329/3 116/330/3 115/331/3 
s 64
f 110/332/4 109/333/4 113/334/4 116/335/4 
s 2
f 117/336/5 118/209/5 119/337/5 120/338/5 
s 4
f 121/339/6 122/340/6 123/341/6 124/342/6 
s 8
f 117/343/1 120/344/1 122/345/1 121/346/1 
s 16
f 120/347/2 119/348/2 123/349/2 122/350/2 
s 32
f 119/351/3 118/343/3 124/346/3 123/352/3 
s 64
f 118/353/4 117/354/4 121/355/4 124/356/4 
s 2
f 125/357/5 126/358/5 127/359/5 128/360/5 
s 4
f 129/361/6 130/362/6 131/363/6 132/364/6 
s 8
f 125/365/1 128/366/1 130/367/1 129/149/1 
s 16
f 128/368/2 127/369/2 131/370/2 130/371/2 
s 32
f 127/372/3 126/373/3 132/374/3 131/375/3 
s 64
f 126/376/4 125/377/4 129/378/4 132/379/4 
s 2
f 133/380/5 134/381/5 135/382/5 136/383/5 
s 4
f 137/384/6 138/385/6 139/386/6 140/387/6 
s 8
f 133/388/1 136/389/1 138/390/1 137/391/1 
s 16
f 136/392/2 135/393/2 139/394/2 138/395/2 
s 32
f 135/396/3 134/397/3 140/398/3 139/399/3 
s 64
f 134/400/4 133/401/4 137/402/4 140/403/4 
s 2
f 141/404/5 142/405/5 143/406/5 144/407/5 
s 4
f 37/408/6 51/409/6 49/410/6 39/411/6 
s 8
f 141/336/1 144/412/1 51/413/1 37/365/1 
s 16
f 144/414/2 143/415/2 49/416/2 51/417/2 
s 32
f 143/418/3 142/419/3 39/420/3 49/421/3 
s 64
f 142/422/4 141/423/4 37/424/4 39/425/4 
s 2
f 145/426/5 146/427/5 147/428/5 148/429/5 
s 4
f 141/430/6 144/431/6 143/432/6 142/433/6 
s 8
f 145/434/1 148/351/1 144/352/1 141/435/1 
s 16
f 148/436/2 147/437/2 143/438/2 144/439/2 
s 32
f 147/397/3 146/388/3 142/391/3 143/398/3 
s 64
f 146/440/4 145/441/4 141/442/4 142/443/4 
s 2
f 149/444/5 150/445/5 151/446/5 152/447/5 
s 4
f 153/448/6 154/449/6 155/450/6 156/451/6 
s 8
f 149/452/1 152/453/1 154/454/1 153/455/1 
s 16
f 152/456/2 151/457/2 155/458/2 154/459/2 
s 32
f 151/460/3 150/461/3 156/462/3 155/463/3 
s 64
f 150/464/4 149/465/4 153/466/4 156/467/4 
s 2
f 157/468/5 158/469/5 159/470/5 160/471/5 
s 4
f 161/472/6 162/473/6 163/474/6 164/475/6 
s 8
f 157/476/1 160/477/1 162/478/1 161/479/1 
s 16
f 160/435/2 159/396/2 163/399/2 162/480/2 
s 32
f 159/481/3 158/482/3 164/483/3 163/484/3 
s 64
f 158/344/4 157/485/4 161/389/4 164/345/4 
# 149 polygons - 4 triangles

