# WaveFront *.obj file (generated by CINEMA 4D)

mtllib ./配电柜三.mtl

v -13.76703262329102 4.88049793243408 22.89213371276855
v 12.98572158813477 4.88049793243408 22.89213371276855
v 12.98572158813477 4.88049793243408 -14.81572246551514
v -13.76703262329102 4.88049793243408 -14.81572246551514
v -13.76703262329102 92.33242034912109 22.45588493347168
v -13.76703262329102 92.33242034912109 -14.37947463989258
v 12.98572158813477 92.33242034912109 -14.37947463989258
v 12.98572158813477 92.33242034912109 22.45588493347168
v -13.76703262329102 91.89617156982422 22.89213371276855
v 12.98572158813477 91.89617156982422 22.89213371276855
v 12.98572158813477 91.89617156982422 -14.81572246551514
v -13.76703262329102 91.89617156982422 -14.81572246551514
v -13.76703262329102 92.32283020019531 22.5468578338623
v -13.76703262329102 92.29197692871094 22.63933563232422
v -13.76703262329102 92.23887634277344 22.72582626342773
v -13.76703262329102 92.16611480712891 22.79858589172363
v -13.76703262329102 92.07962799072266 22.85168647766113
v -13.76703262329102 91.98714447021484 22.88254165649414
v -13.76703262329102 92.32283020019531 -14.4704475402832
v -13.76703262329102 92.29197692871094 -14.56292533874512
v -13.76703262329102 92.23887634277344 -14.64941596984863
v -13.76703262329102 92.16611480712891 -14.72217464447021
v -13.76703262329102 92.07962799072266 -14.7752742767334
v -13.76703262329102 91.98714447021484 -14.80613136291504
v 12.98572158813477 92.32283020019531 -14.4704475402832
v 12.98572158813477 92.29197692871094 -14.56292533874512
v 12.98572158813477 92.23887634277344 -14.64941596984863
v 12.98572158813477 92.16611480712891 -14.72217464447021
v 12.98572158813477 92.07962799072266 -14.7752742767334
v 12.98572158813477 91.98714447021484 -14.80613136291504
v 12.98572158813477 92.32283020019531 22.5468578338623
v 12.98572158813477 92.29197692871094 22.63933563232422
v 12.98572158813477 92.23887634277344 22.72582626342773
v 12.98572158813477 92.16611480712891 22.79858589172363
v 12.98572158813477 92.07962799072266 22.85168647766113
v 12.98572158813477 91.98714447021484 22.88254165649414
v -12.60370445251465 4.88049793243408 21.72880554199219
v 11.8223934173584 4.88049793243408 21.72880554199219
v 11.8223934173584 4.88049793243408 -13.65239429473877
v -12.60370445251465 4.88049793243408 -13.65239429473877
v -12.60370445251465 3.71716976165771 21.72880554199219
v 11.8223934173584 3.71716976165771 21.72880554199219
v 11.8223934173584 3.71716976165771 -13.65239429473877
v -12.60370445251465 3.71716976165771 -13.65239429473877
# 44 vertices

vn 0 0 1
vn 1 0 0
vn 0 0 -1
vn -1 0 0
vn 0 1 0
vn 0 -1 0
vn 0 0 0
vn 0 0.10485734790564 0.99448728561401
vn 0 0.21191447973251 0.97728818655014
vn 0 0.99448943138123 -0.10483672469854
vn 0 0.977290391922 -0.21190436184406
vn 0 0.42261037230492 0.90631145238876
vn 0 0.61942327022552 0.78505718708038
vn 0 0.78505522012711 0.61942583322525
vn 0 0.9063156247139 0.42260146141052
vn 0 0.977290391922 0.21190436184406
vn 0 0.99448943138123 0.10483672469854
vn 0 0.9063156247139 -0.42260146141052
vn 0 0.78505313396454 -0.61942839622498
vn 0 0.61941748857498 -0.78506171703339
vn 0 0.4226151406765 -0.90630924701691
vn 0 0.21191848814487 -0.97728735208511
vn 0 0.10484703630209 -0.99448835849762
# 23 normals

vt 0.79818403720856 0.33618056774139 0
vt 0.79818403720856 0.98847264051437 0
vt 0.99137032032013 0.98847264051437 0
vt 0.99137032032013 0.33618056774139 0
vt 0.00862966943532 0.33547925949097 0
vt 0.00862966943532 0.98777139186859 0
vt 0.28092467784882 0.98777139186859 0
vt 0.28092467784882 0.33547925949097 0
vt 0.58773839473724 0.33618056774139 0
vt 0.58773839473724 0.98847264051437 0
vt 0.78092467784882 0.98847264051437 0
vt 0.78092467784882 0.33618056774139 0
vt 0.29818400740623 0.33547925949097 0
vt 0.29818400740623 0.98777139186859 0
vt 0.5704790353775 0.98777139186859 0
vt 0.5704790353775 0.33547925949097 0
vt 0.00862966943532 0.0394115447998 0
vt 0.00862966943532 0.31553888320923 0
vt 0.2018159776926 0.31553888320923 0
vt 0.2018159776926 0.0394115447998 0
vt 0.21907532215118 0.03738796710968 0
vt 0.21907532215118 0.302614569664 0
vt 0.39546045660973 0.302614569664 0
vt 0.39546045660973 0.03738796710968 0
vt 0.00892174709588 0.98914659023285 0
vt 0.00930519029498 0.98979490995407 0
vt 0.00983059592545 0.99034035205841 0
vt 0.01045515947044 0.99073839187622 0
vt 0.00869892723858 0.98845332860947 0
vt 0.14477717876434 0.66162532567978 0
vt 0.01177989225835 0.99104160070419 0
vt 0.27777445316315 0.99104160070419 0
vt 0.28063261508942 0.98914659023285 0
vt 0.2790991961956 0.99073839187622 0
vt 0.27972376346588 0.99034035205841 0
vt 0.28024914860725 0.98979490995407 0
vt 0.01112295966595 0.99096971750259 0
vt 0.27843138575554 0.99096971750259 0
vt 0.28085541725159 0.98845332860947 0
vt 0.29825326800346 0.98845332860947 0
vt 0.29847609996796 0.98914659023285 0
vt 0.43433153629303 0.66162532567978 0
vt 0.3013342320919 0.99104160070419 0
vt 0.30000951886177 0.99073839187622 0
vt 0.56732881069183 0.99104160070419 0
vt 0.5679857134819 0.99096971750259 0
vt 0.56865352392197 0.99073839187622 0
vt 0.2988595366478 0.98979490995407 0
vt 0.29938495159149 0.99034035205841 0
vt 0.30067729949951 0.99096971750259 0
vt 0.5701869726181 0.98914659023285 0
vt 0.57040977478027 0.98845332860947 0
vt 0.56927812099457 0.99034035205841 0
vt 0.56980353593826 0.98979490995407 0
vt 0.79818403720856 0.98915457725525 0
vt 0.99137032032013 0.98915457725525 0
vt 0.00862966943532 0.31622087955475 0
vt 0.2018159776926 0.31622087955475 0
vt 0.79818403720856 0.98984783887863 0
vt 0.99137032032013 0.98984783887863 0
vt 0.79818403720856 0.99049615859985 0
vt 0.99137032032013 0.99049615859985 0
vt 0.79818403720856 0.99104160070419 0
vt 0.99137032032013 0.99104160070419 0
vt 0.00862966943532 0.03738796710968 0
vt 0.00862966943532 0.03803634643555 0
vt 0.2018159776926 0.03803634643555 0
vt 0.2018159776926 0.03738796710968 0
vt 0.00862966943532 0.03872954845428 0
vt 0.2018159776926 0.03872954845428 0
vt 0.00862966943532 0.31691408157349 0
vt 0.2018159776926 0.31691408157349 0
vt 0.00862966943532 0.31756246089935 0
vt 0.2018159776926 0.31756246089935 0
vt 0.78092467784882 0.99104160070419 0
vt 0.78092467784882 0.99049615859985 0
vt 0.58773839473724 0.99049615859985 0
vt 0.58773839473724 0.99104160070419 0
vt 0.78092467784882 0.98984783887863 0
vt 0.58773839473724 0.98984783887863 0
vt 0.78092467784882 0.98915457725525 0
vt 0.58773839473724 0.98915457725525 0
vt 0.58773839473724 0.03559589385986 0
vt 0.5961389541626 0.04431653022766 0
vt 0.77252405881882 0.04431653022766 0
vt 0.78092467784882 0.03559589385986 0
vt 0.77252405881882 0.30954313278198 0
vt 0.78092467784882 0.31826376914978 0
vt 0.5961389541626 0.30954313278198 0
vt 0.58773839473724 0.31826376914978 0
vt 0.78092467784882 0.01767909526825 0
vt 0.78092467784882 0.00895845890045 0
vt 0.6045395731926 0.00895845890045 0
vt 0.6045395731926 0.01767909526825 0
vt 0.26412349939346 0.01947116851807 0
vt 0.26412349939346 0.01075053215027 0
vt 0.00862966943532 0.01075053215027 0
vt 0.00862966943532 0.01947116851807 0
vt 0.97456914186478 0.31826376914978 0
vt 0.97456914186478 0.30954313278198 0
vt 0.79818403720856 0.30954313278198 0
vt 0.79818403720856 0.31826376914978 0
vt 0.5368766784668 0.01947116851807 0
vt 0.5368766784668 0.01075053215027 0
vt 0.28138282895088 0.01075053215027 0
vt 0.28138282895088 0.01947116851807 0
# 106 texture coordinates

o 配电柜三
usemtl 配电柜三
f 2/4/1 10/3/1 9/2/1 1/1/1
f 3/8/2 11/7/2 30/39/2 29/33/2 28/36/2 27/35/2 26/34/2 25/38/2 7/32/2 8/31/2 31/37/2 32/28/2 33/27/2 34/26/2 35/25/2 36/29/2 10/6/2 2/5/2
f 4/12/3 12/11/3 11/10/3 3/9/3
f 1/16/4 9/15/4 18/52/4 17/51/4 16/54/4 15/53/4 14/47/4 13/46/4 5/45/4 6/43/4 19/50/4 20/44/4 21/49/4 22/48/4 23/41/4 24/40/4 12/14/4 4/13/4
f 8/20/5 7/19/5 6/18/5 5/17/5
f 43/24/6 42/23/6 41/22/6 44/21/6
f 10/3/8 36/56/9 18/55/9 9/2/8
f 7/19/10 25/58/11 19/57/11 6/18/10
f 36/56/9 35/60/12 17/59/12 18/55/9
f 35/60/12 34/62/13 16/61/13 17/59/12
f 34/62/13 33/64/14 15/63/14 16/61/13
f 33/68/14 32/67/15 14/66/15 15/65/14
f 32/67/15 31/70/16 13/69/16 14/66/15
f 31/70/16 8/20/17 5/17/17 13/69/16
f 25/58/11 26/72/18 20/71/18 19/57/11
f 26/72/18 27/74/19 21/73/19 20/71/18
f 27/78/19 28/77/20 22/76/20 21/75/19
f 28/77/20 29/80/21 23/79/21 22/76/20
f 29/80/21 30/82/22 24/81/22 23/79/21
f 30/82/22 11/10/23 12/11/23 24/81/22
f 3/86/6 39/85/6 40/84/6 4/83/6
f 2/88/6 38/87/6 39/85/6 3/86/6
f 1/90/6 37/89/6 38/87/6 2/88/6
f 4/83/6 40/84/6 37/89/6 1/90/6
f 39/94/3 43/93/3 44/92/3 40/91/3
f 38/98/2 42/97/2 43/96/2 39/95/2
f 37/102/1 41/101/1 42/100/1 38/99/1
f 40/106/4 44/105/4 41/104/4 37/103/4

