# WaveFront *.obj file (generated by CINEMA 4D)

mtllib ./玻璃.mtl

v -125.87847900390625 130.69033813476562 -207.94677734375
v -125.87847900390625 86.80516815185547 -460.75906372070312
v 224.04359436035156 86.80516815185547 441.04092407226562
v 224.04359436035156 130.69033813476562 441.04092407226562
v -125.87847900390625 130.69033813476562 -460.75906372070312
v -125.87847900390625 130.69033813476562 441.04092407226562
v 224.04359436035156 86.80516815185547 347.007080078125
v 224.04359436035156 130.69033813476562 347.007080078125
v 98.79359436035156 86.80516815185547 441.04092407226562
v -125.87847900390625 86.80516815185547 -366.7252197265625
v 224.04359436035156 86.80516815185547 326.96707153320312
v 224.04359436035156 130.69033813476562 326.96707153320312
v -125.87847900390625 130.69033813476562 -366.7252197265625
v 98.79359436035156 130.69033813476562 441.04092407226562
v 224.04359436035156 86.80516815185547 208.26861572265625
v 224.04359436035156 130.69033813476562 208.26861572265625
v -125.87847900390625 130.69033813476562 -69.20830535888672
v -125.87847900390625 86.80516815185547 -346.68524169921875
v 224.04359436035156 86.80516815185547 188.22862243652344
v 224.04359436035156 130.69033813476562 188.22862243652344
v -125.87847900390625 130.69033813476562 -346.68524169921875
v -125.87847900390625 130.69033813476562 208.26861572265625
v 224.04359436035156 86.80516815185547 69.5301513671875
v 224.04359436035156 130.69033813476562 69.5301513671875
v -125.87847900390625 86.80516815185547 69.5301513671875
v -125.87847900390625 86.80516815185547 -227.98677062988281
v 224.04359436035156 86.80516815185547 49.49015426635742
v 224.04359436035156 130.69033813476562 49.49015426635742
v -125.87847900390625 130.69033813476562 -227.98677062988281
v -125.87847900390625 130.69033813476562 49.49015426635742
v 224.04359436035156 86.80516815185547 -69.20830535888672
v 224.04359436035156 130.69033813476562 -69.20830535888672
v -125.87847900390625 86.80516815185547 326.96707153320312
v -125.87847900390625 86.80516815185547 -207.94677734375
v 224.04359436035156 86.80516815185547 -89.24830627441406
v 224.04359436035156 130.69033813476562 -89.24830627441406
v -125.87847900390625 130.69033813476562 326.96707153320312
v -125.87847900390625 130.69033813476562 188.22862243652344
v 224.04359436035156 86.80516815185547 -207.94677734375
v 224.04359436035156 130.69033813476562 -207.94677734375
v -125.87847900390625 86.80516815185547 -89.24830627441406
v -125.87847900390625 130.69033813476562 -89.24830627441406
v 224.04359436035156 86.80516815185547 -227.98677062988281
v 224.04359436035156 130.69033813476562 -227.98677062988281
v -125.87847900390625 86.80516815185547 -69.20830535888672
v -125.87847900390625 86.80516815185547 188.22862243652344
v 224.04359436035156 86.80516815185547 -346.68524169921875
v 224.04359436035156 130.69033813476562 -346.68524169921875
v -125.87847900390625 86.80516815185547 347.007080078125
v -125.87847900390625 130.69033813476562 69.5301513671875
v 224.04359436035156 86.80516815185547 -366.7252197265625
v 224.04359436035156 130.69033813476562 -366.7252197265625
v -125.87847900390625 130.69033813476562 347.007080078125
v -125.87847900390625 86.80516815185547 208.26861572265625
v 224.04359436035156 86.80516815185547 -460.75906372070312
v 224.04359436035156 130.69033813476562 -460.75906372070312
v -125.87847900390625 86.80516815185547 49.49015426635742
v -125.87847900390625 86.80516815185547 441.04092407226562
v 98.79359436035156 86.80516815185547 -460.75906372070312
v 98.79359436035156 130.69033813476562 -460.75906372070312
# 60 vertices

vn -1 0 0
vn 1 0 0
vn 0 0 1
vn 0 0 -1
# 4 normals

vt 0.71065717935562 0.2946845293045 0
vt 0.71065717935562 0.4196013212204 0
vt 0.9746305346489 0.4196013212204 0
vt 0.9746305346489 0.2946845293045 0
vt 0.00884654372931 0.58039873838425 0
vt 0.00884654372931 0.70531553030014 0
vt 0.34205877780914 0.70531553030014 0
vt 0.34205877780914 0.58039873838425 0
vt 0.71065717935562 0.58039873838425 0
vt 0.71065717935562 0.70531553030014 0
vt 0.9746305346489 0.70531553030014 0
vt 0.9746305346489 0.58039873838425 0
vt 0.35975188016891 0.43754160404205 0
vt 0.35975188016891 0.56245839595795 0
vt 0.69296413660049 0.56245839595795 0
vt 0.69296413660049 0.43754160404205 0
vt 0.00884654372931 0.2946845293045 0
vt 0.00884654372931 0.4196013212204 0
vt 0.34205877780914 0.4196013212204 0
vt 0.34205877780914 0.2946845293045 0
vt 0.00884654372931 0.00897026062012 0
vt 0.00884654372931 0.13388705253601 0
vt 0.34205877780914 0.13388705253601 0
vt 0.34205877780914 0.00897026062012 0
vt 0.35975188016891 0.2946845293045 0
vt 0.35975188016891 0.4196013212204 0
vt 0.69296413660049 0.4196013212204 0
vt 0.69296413660049 0.2946845293045 0
vt 0.00884654372931 0.43754160404205 0
vt 0.00884654372931 0.56245839595795 0
vt 0.34205877780914 0.56245839595795 0
vt 0.34205877780914 0.43754160404205 0
vt 0.71065717935562 0.15182733535767 0
vt 0.71065717935562 0.27674412727356 0
vt 0.9746305346489 0.27674412727356 0
vt 0.9746305346489 0.15182733535767 0
vt 0.71065717935562 0.43754160404205 0
vt 0.71065717935562 0.56245839595795 0
vt 0.9746305346489 0.56245839595795 0
vt 0.9746305346489 0.43754160404205 0
vt 0.00884654372931 0.86611306667328 0
vt 0.00884654372931 0.99102985858917 0
vt 0.63954961299896 0.99102985858917 0
vt 0.63954961299896 0.86611306667328 0
vt 0.00884654372931 0.72325587272644 0
vt 0.00884654372931 0.84817266464233 0
vt 0.36045035719872 0.84817266464233 0
vt 0.36045035719872 0.72325587272644 0
vt 0.99115347862244 0.84817266464233 0
vt 0.99115347862244 0.72325587272644 0
vt 0.35975188016891 0.00897026062012 0
vt 0.35975188016891 0.13388705253601 0
vt 0.69296413660049 0.13388705253601 0
vt 0.69296413660049 0.00897026062012 0
vt 0.99115347862244 0.99102985858917 0
vt 0.99115347862244 0.86611306667328 0
vt 0.35975188016891 0.58039873838425 0
vt 0.35975188016891 0.70531553030014 0
vt 0.69296413660049 0.70531553030014 0
vt 0.69296413660049 0.58039873838425 0
vt 0.35975188016891 0.15182733535767 0
vt 0.35975188016891 0.27674412727356 0
vt 0.69296413660049 0.27674412727356 0
vt 0.69296413660049 0.15182733535767 0
vt 0.00884654372931 0.15182733535767 0
vt 0.00884654372931 0.27674412727356 0
vt 0.34205877780914 0.27674412727356 0
vt 0.34205877780914 0.15182733535767 0
# 68 texture coordinates

o 玻璃.1
usemtl 玻璃
f 58/4/1 6/3/1 53/2/1 49/1/1
f 33/8/1 37/7/1 22/6/1 54/5/1
f 7/12/2 8/11/2 4/10/2 3/9/2
f 15/16/2 16/15/2 12/14/2 11/13/2
f 23/20/2 24/19/2 20/18/2 19/17/2
f 31/24/2 32/23/2 28/22/2 27/21/2
f 39/28/2 40/27/2 36/26/2 35/25/2
f 47/32/2 48/31/2 44/30/2 43/29/2
f 55/36/2 56/35/2 52/34/2 51/33/2
f 10/40/1 13/39/1 5/38/1 2/37/1
f 9/44/3 14/43/3 6/42/3 58/41/3
f 59/48/4 60/47/4 56/46/4 55/45/4
f 2/50/4 5/49/4 60/47/4 59/48/4
f 57/54/1 30/53/1 17/52/1 45/51/1
f 3/56/3 4/55/3 14/43/3 9/44/3
f 26/60/1 29/59/1 21/58/1 18/57/1
f 46/64/1 38/63/1 50/62/1 25/61/1
f 41/68/1 42/67/1 1/66/1 34/65/1

