# WaveFront *.obj file (generated by CINEMA 4D)

mtllib ./电机架子.mtl

v 15.46115970611572 19.87999725341797 -21.51902770996094
v 15.46115970611572 22.07879447937012 -21.51902770996094
v -15.35180568695068 19.87999725341797 -21.51902770996094
v -15.35180568695068 22.07879447937012 -21.51902770996094
v -15.35180568695068 19.87999725341797 21.24917221069336
v -15.35180568695068 22.07879447937012 21.24917221069336
v 15.46115970611572 19.87999725341797 21.24917221069336
v 15.46115970611572 22.07879447937012 21.24917221069336
v 15.46115970611572 -21.36928176879883 -21.51902770996094
v 15.46115970611572 -19.17048454284668 -21.51902770996094
v -15.35180568695068 -21.36928176879883 -21.51902770996094
v -15.35180568695068 -19.17048454284668 -21.51902770996094
v -15.35180568695068 -21.36928176879883 21.24917221069336
v -15.35180568695068 -19.17048454284668 21.24917221069336
v 15.46115970611572 -21.36928176879883 21.24917221069336
v 15.46115970611572 -19.17048454284668 21.24917221069336
v 13.46998023986816 -19.17048454284668 21.24917221069336
v 13.46998023986816 -19.17048454284668 -21.51902770996094
v 13.46998023986816 -21.36928176879883 -21.51902770996094
v 13.46998023986816 -21.36928176879883 21.24917221069336
v -13.46278858184814 -19.17048454284668 21.24917221069336
v -13.46278858184814 -19.17048454284668 -21.51902770996094
v -13.46278858184814 -21.36928176879883 -21.51902770996094
v -13.46278858184814 -21.36928176879883 21.24917221069336
v 15.46115970611572 -19.17048454284668 19.34686279296875
v 13.46998023986816 -19.17048454284668 19.34686279296875
v -13.46278858184814 -19.17048454284668 19.34686279296875
v -15.35180568695068 -19.17048454284668 19.34686279296875
v -15.35180568695068 -21.36928176879883 19.34686279296875
v -13.46278858184814 -21.36928176879883 19.34686279296875
v 13.46998023986816 -21.36928176879883 19.34686279296875
v 15.46115970611572 -21.36928176879883 19.34686279296875
v 15.46115970611572 -19.17048454284668 -19.55276870727539
v 13.46998023986816 -19.17048454284668 -19.55276870727539
v -13.46278858184814 -19.17048454284668 -19.55276870727539
v -15.35180568695068 -19.17048454284668 -19.55276870727539
v -15.35180568695068 -21.36928176879883 -19.55276870727539
v -13.46278858184814 -21.36928176879883 -19.55276870727539
v 13.46998023986816 -21.36928176879883 -19.55276870727539
v 15.46115970611572 -21.36928176879883 -19.55276870727539
v 15.46115970611572 -19.17048454284668 15.99650382995605
v 13.46998023986816 -19.17048454284668 15.99650382995605
v -13.46278858184814 -19.17048454284668 15.99650382995605
v -15.35180568695068 -19.17048454284668 15.99650382995605
v -15.35180568695068 -21.36928176879883 15.99650382995605
v -13.46278858184814 -21.36928176879883 15.99650382995605
v 13.46998023986816 -21.36928176879883 15.99650382995605
v 15.46115970611572 -21.36928176879883 15.99650382995605
v 15.46115970611572 -19.17048454284668 -16.28304100036621
v 13.46998023986816 -19.17048454284668 -16.28304100036621
v -13.46278858184814 -19.17048454284668 -16.28304100036621
v -15.35180568695068 -19.17048454284668 -16.28304100036621
v -15.35180568695068 -21.36928176879883 -16.28304100036621
v -13.46278858184814 -21.36928176879883 -16.28304100036621
v 13.46998023986816 -21.36928176879883 -16.28304100036621
v 15.46115970611572 -21.36928176879883 -16.28304100036621
v 9.86493110656738 -19.17048454284668 15.99650382995605
v 9.86493110656738 -19.17048454284668 -16.28304100036621
v 9.86493110656738 -19.17048454284668 -19.55276870727539
v 9.86493110656738 -19.17048454284668 -21.51902770996094
v 9.86493110656738 -21.36928176879883 -21.51902770996094
v 9.86493110656738 -21.36928176879883 -19.55276870727539
v 9.86493110656738 -21.36928176879883 -16.28304100036621
v 9.86493110656738 -21.36928176879883 15.99650382995605
v 9.86493110656738 -21.36928176879883 19.34686279296875
v 9.86493110656738 -21.36928176879883 21.24917221069336
v 9.86493110656738 -19.17048454284668 21.24917221069336
v 9.86493110656738 -19.17048454284668 19.34686279296875
v -10.04895401000977 -19.17048454284668 15.99650382995605
v -10.04895401000977 -19.17048454284668 19.34686279296875
v -10.04895401000977 -19.17048454284668 21.24917221069336
v -10.04895401000977 -21.36928176879883 21.24917221069336
v -10.04895401000977 -21.36928176879883 19.34686279296875
v -10.04895401000977 -21.36928176879883 15.99650382995605
v -10.04895401000977 -21.36928176879883 -16.28304100036621
v -10.04895401000977 -21.36928176879883 -19.55276870727539
v -10.04895401000977 -21.36928176879883 -21.51902770996094
v -10.04895401000977 -19.17048454284668 -21.51902770996094
v -10.04895401000977 -19.17048454284668 -19.55276870727539
v -10.04895401000977 -19.17048454284668 -16.28304100036621
v 13.46998023986816 20.32568740844727 -19.55276870727539
v 13.46998023986816 20.32568740844727 -16.28304100036621
v 9.86493110656738 20.32568740844727 -16.28304100036621
v 9.86493110656738 20.32568740844727 -19.55276870727539
v 13.46998023986816 20.32568740844727 19.34686279296875
v 13.46998023986816 20.32568740844727 15.99650382995605
v 9.86493110656738 20.32568740844727 15.99650382995605
v 9.86493110656738 20.32568740844727 19.34686279296875
v -13.46278858184814 20.32568740844727 -19.55276870727539
v -13.46278858184814 20.32568740844727 -16.28304100036621
v -10.04895401000977 20.32568740844727 -19.55276870727539
v -10.04895401000977 20.32568740844727 -16.28304100036621
v -13.46278858184814 20.32568740844727 19.34686279296875
v -13.46278858184814 20.32568740844727 15.99650382995605
v -10.04895401000977 20.32568740844727 15.99650382995605
v -10.04895401000977 20.32568740844727 19.34686279296875
# 96 vertices

vn 0 0 -1
vn -1 0 0
vn 0 0 1
vn 1 0 0
vn 0 1 0
vn 0 -1 0
# 6 normals

vt 0.61737585067749 0.15272438526154 0
vt 0.61737585067749 0.17446374893188 0
vt 0.9050332903862 0.17446374893188 0
vt 0.9050332903862 0.15272438526154 0
vt 0.00841221399605 0.08802378177643 0
vt 0.00841221399605 0.10976314544678 0
vt 0.40767884254456 0.10976314544678 0
vt 0.40767884254456 0.08802378177643 0
vt 0.00841221399605 0.00890898704529 0
vt 0.00841221399605 0.03064835071564 0
vt 0.29606962203979 0.03064835071564 0
vt 0.29606962203979 0.00890898704529 0
vt 0.42450326681137 0.08802378177643 0
vt 0.42450326681137 0.10976314544678 0
vt 0.82376992702484 0.10976314544678 0
vt 0.82376992702484 0.08802378177643 0
vt 0.00841221399605 0.56824505329132 0
vt 0.00841221399605 0.99109101295471 0
vt 0.29606962203979 0.99109101295471 0
vt 0.29606962203979 0.56824505329132 0
vt 0.31289404630661 0.56824505329132 0
vt 0.31289404630661 0.99109101295471 0
vt 0.60055142641068 0.99109101295471 0
vt 0.60055142641068 0.56824505329132 0
vt 0.31289404630661 0.00890898704529 0
vt 0.31289404630661 0.03064835071564 0
vt 0.33148288726807 0.03064835071564 0
vt 0.33148288726807 0.00890898704529 0
vt 0.00841221399605 0.0484664440155 0
vt 0.00841221399605 0.07020580768585 0
vt 0.02676840871572 0.07020580768585 0
vt 0.02676840871572 0.0484664440155 0
vt 0.88644444942474 0.03064835071564 0
vt 0.9050332903862 0.03064835071564 0
vt 0.9050332903862 0.00890898704529 0
vt 0.88644444942474 0.00890898704529 0
vt 0.80541372299194 0.07020580768585 0
vt 0.82376992702484 0.07020580768585 0
vt 0.82376992702484 0.0484664440155 0
vt 0.80541372299194 0.0484664440155 0
vt 0.00841221399605 0.12758111953735 0
vt 0.00841221399605 0.14702141284943 0
vt 0.02700105682015 0.14702141284943 0
vt 0.02700105682015 0.12758111953735 0
vt 0.31289404630661 0.53098678588867 0
vt 0.31289404630661 0.55042707920074 0
vt 0.33148288726807 0.55042707920074 0
vt 0.33148288726807 0.53098678588867 0
vt 0.06065633893013 0.12758111953735 0
vt 0.06065633893013 0.14702141284943 0
vt 0.36513817310333 0.03064835071564 0
vt 0.36513817310333 0.00890898704529 0
vt 0.36513817310333 0.55042707920074 0
vt 0.36513817310333 0.53098678588867 0
vt 0.85278916358948 0.00890898704529 0
vt 0.85278916358948 0.03064835071564 0
vt 0.29606962203979 0.14702141284943 0
vt 0.29606962203979 0.12758111953735 0
vt 0.27843451499939 0.12758111953735 0
vt 0.27843451499939 0.14702141284943 0
vt 0.58291631937027 0.03064835071564 0
vt 0.60055142641068 0.03064835071564 0
vt 0.60055142641068 0.00890898704529 0
vt 0.58291631937027 0.00890898704529 0
vt 0.58291631937027 0.55042707920074 0
vt 0.60055142641068 0.55042707920074 0
vt 0.60055142641068 0.53098678588867 0
vt 0.58291631937027 0.53098678588867 0
vt 0.6350109577179 0.00890898704529 0
vt 0.61737585067749 0.00890898704529 0
vt 0.61737585067749 0.03064835071564 0
vt 0.6350109577179 0.03064835071564 0
vt 0.00841221399605 0.53161907196045 0
vt 0.00841221399605 0.55042707920074 0
vt 0.02700105682015 0.55042707920074 0
vt 0.02700105682015 0.53161907196045 0
vt 0.06065633893013 0.55042707920074 0
vt 0.06065633893013 0.53161907196045 0
vt 0.27843451499939 0.53161907196045 0
vt 0.27843451499939 0.55042707920074 0
vt 0.29606962203979 0.55042707920074 0
vt 0.29606962203979 0.53161907196045 0
vt 0.38991966843605 0.07020580768585 0
vt 0.40767884254456 0.07020580768585 0
vt 0.40767884254456 0.0484664440155 0
vt 0.38991966843605 0.0484664440155 0
vt 0.60055142641068 0.14638912677765 0
vt 0.60055142641068 0.12758111953735 0
vt 0.58291631937027 0.12758111953735 0
vt 0.58291631937027 0.14638912677765 0
vt 0.36513817310333 0.12758111953735 0
vt 0.33148288726807 0.12758111953735 0
vt 0.33148288726807 0.14638912677765 0
vt 0.36513817310333 0.14638912677765 0
vt 0.31289404630661 0.12758111953735 0
vt 0.31289404630661 0.14638912677765 0
vt 0.4422624707222 0.0484664440155 0
vt 0.42450326681137 0.0484664440155 0
vt 0.42450326681137 0.07020580768585 0
vt 0.4422624707222 0.07020580768585 0
vt 0.00841221399605 0.17934894561768 0
vt 0.02700105682015 0.17934894561768 0
vt 0.87137800455093 0.05163609981537 0
vt 0.87137800455093 0.08396363258362 0
vt 0.9050332903862 0.08396363258362 0
vt 0.9050332903862 0.05163609981537 0
vt 0.27843451499939 0.17934894561768 0
vt 0.29606962203979 0.17934894561768 0
vt 0.05729326605797 0.07020580768585 0
vt 0.05729326605797 0.0484664440155 0
vt 0.60055142641068 0.49865925312042 0
vt 0.58291631937027 0.49865925312042 0
vt 0.36513817310333 0.49865925312042 0
vt 0.33148288726807 0.49865925312042 0
vt 0.31289404630661 0.49865925312042 0
vt 0.77488887310028 0.0484664440155 0
vt 0.77488887310028 0.07020580768585 0
vt 0.00841221399605 0.49849438667297 0
vt 0.02700105682015 0.49849438667297 0
vt 0.87137800455093 0.10178160667419 0
vt 0.87137800455093 0.13490629196167 0
vt 0.9050332903862 0.13490629196167 0
vt 0.9050332903862 0.10178160667419 0
vt 0.27843451499939 0.49849438667297 0
vt 0.29606962203979 0.49849438667297 0
vt 0.35864207148552 0.07020580768585 0
vt 0.35864207148552 0.0484664440155 0
vt 0.60055142641068 0.17951381206512 0
vt 0.58291631937027 0.17951381206512 0
vt 0.33148288726807 0.17951381206512 0
vt 0.36513817310333 0.17951381206512 0
vt 0.31289404630661 0.17951381206512 0
vt 0.47354006767273 0.0484664440155 0
vt 0.47354006767273 0.07020580768585 0
vt 0.06065633893013 0.49849438667297 0
vt 0.06065633893013 0.17934894561768 0
vt 0.2465643286705 0.49849438667297 0
vt 0.2465643286705 0.17934894561768 0
vt 0.92185771465302 0.08396363258362 0
vt 0.9537279009819 0.08396363258362 0
vt 0.9537279009819 0.05163609981537 0
vt 0.92185771465302 0.05163609981537 0
vt 0.2465643286705 0.14702141284943 0
vt 0.2465643286705 0.12758111953735 0
vt 0.55104613304138 0.03064835071564 0
vt 0.55104613304138 0.00890898704529 0
vt 0.55104613304138 0.55042707920074 0
vt 0.55104613304138 0.53098678588867 0
vt 0.55104613304138 0.49865925312042 0
vt 0.55104613304138 0.17951381206512 0
vt 0.55104613304138 0.14638912677765 0
vt 0.55104613304138 0.12758111953735 0
vt 0.66688114404678 0.00890898704529 0
vt 0.66688114404678 0.03064835071564 0
vt 0.2465643286705 0.55042707920074 0
vt 0.2465643286705 0.53161907196045 0
vt 0.92185771465302 0.13490629196167 0
vt 0.9537279009819 0.13490629196167 0
vt 0.9537279009819 0.10178160667419 0
vt 0.92185771465302 0.10178160667419 0
vt 0.61737585067749 0.60059535503387 0
vt 0.61737585067749 0.99109101295471 0
vt 0.65103113651276 0.99109101295471 0
vt 0.65103113651276 0.60059535503387 0
vt 0.95749270915985 0.19228172302246 0
vt 0.95749270915985 0.5827773809433 0
vt 0.98801755905151 0.5827773809433 0
vt 0.98801755905151 0.19228172302246 0
vt 0.66785556077957 0.60059535503387 0
vt 0.66785556077957 0.99109101295471 0
vt 0.70151084661484 0.99109101295471 0
vt 0.70151084661484 0.60059535503387 0
vt 0.96106290817261 0.60059535503387 0
vt 0.96106290817261 0.99109101295471 0
vt 0.99158775806427 0.99109101295471 0
vt 0.99158775806427 0.60059535503387 0
vt 0.71833527088165 0.60059535503387 0
vt 0.71833527088165 0.99109101295471 0
vt 0.75199055671692 0.99109101295471 0
vt 0.75199055671692 0.60059535503387 0
vt 0.86204141378403 0.19228172302246 0
vt 0.86204141378403 0.5827773809433 0
vt 0.89331901073456 0.5827773809433 0
vt 0.89331901073456 0.19228172302246 0
vt 0.61737585067749 0.19228172302246 0
vt 0.61737585067749 0.5827773809433 0
vt 0.65103113651276 0.5827773809433 0
vt 0.65103113651276 0.19228172302246 0
vt 0.86561161279678 0.60059535503387 0
vt 0.86561161279678 0.99109101295471 0
vt 0.89688920974731 0.99109101295471 0
vt 0.89688920974731 0.60059535503387 0
vt 0.91014343500137 0.19228172302246 0
vt 0.91014343500137 0.5827773809433 0
vt 0.94066828489304 0.5827773809433 0
vt 0.94066828489304 0.19228172302246 0
vt 0.66785556077957 0.19228172302246 0
vt 0.66785556077957 0.5827773809433 0
vt 0.69972574710846 0.5827773809433 0
vt 0.69972574710846 0.19228172302246 0
vt 0.91371363401413 0.60059535503387 0
vt 0.91371363401413 0.99109101295471 0
vt 0.94423848390579 0.99109101295471 0
vt 0.94423848390579 0.60059535503387 0
vt 0.71655017137527 0.19228172302246 0
vt 0.71655017137527 0.5827773809433 0
vt 0.74842035770416 0.5827773809433 0
vt 0.74842035770416 0.19228172302246 0
vt 0.81393939256668 0.19228172302246 0
vt 0.81393939256668 0.5827773809433 0
vt 0.84521698951721 0.5827773809433 0
vt 0.84521698951721 0.19228172302246 0
vt 0.76524478197098 0.19228172302246 0
vt 0.76524478197098 0.5827773809433 0
vt 0.79711496829987 0.5827773809433 0
vt 0.79711496829987 0.19228172302246 0
vt 0.81750959157944 0.60059535503387 0
vt 0.81750959157944 0.99109101295471 0
vt 0.84878718852997 0.99109101295471 0
vt 0.84878718852997 0.60059535503387 0
vt 0.76881498098373 0.60059535503387 0
vt 0.76881498098373 0.99109101295471 0
vt 0.80068516731262 0.99109101295471 0
vt 0.80068516731262 0.60059535503387 0
# 224 texture coordinates

o 电机架子
usemtl 电机架子
f 3/4/1 4/3/1 2/2/1 1/1/1
f 5/8/2 6/7/2 4/6/2 3/5/2
f 7/12/3 8/11/3 6/10/3 5/9/3
f 1/16/4 2/15/4 8/14/4 7/13/4
f 4/20/5 6/19/5 8/18/5 2/17/5
f 5/24/6 3/23/6 1/22/6 7/21/6
f 19/28/1 18/27/1 10/26/1 9/25/1
f 37/32/2 36/31/2 12/30/2 11/29/2
f 20/36/3 15/35/3 16/34/3 17/33/3
f 40/40/4 9/39/4 10/38/4 33/37/4
f 18/44/5 34/43/5 33/42/5 10/41/5
f 39/48/6 19/47/6 9/46/6 40/45/6
f 59/50/5 34/43/5 18/44/5 60/49/5
f 19/28/1 61/52/1 60/51/1 18/27/1
f 39/48/6 62/54/6 61/53/6 19/47/6
f 17/33/3 67/56/3 66/55/3 20/36/3
f 35/60/5 22/59/5 12/58/5 36/57/5
f 23/64/1 11/63/1 12/62/1 22/61/1
f 38/68/6 37/67/6 11/66/6 23/65/6
f 21/72/3 14/71/3 13/70/3 24/69/3
f 26/76/5 17/75/5 16/74/5 25/73/5
f 68/78/5 67/77/5 17/75/5 26/76/5
f 28/82/5 14/81/5 21/80/5 27/79/5
f 29/86/2 13/85/2 14/84/2 28/83/2
f 30/90/6 24/89/6 13/88/6 29/87/6
f 65/94/6 31/93/6 20/92/6 66/91/6
f 32/96/6 15/95/6 20/92/6 31/93/6
f 25/100/4 16/99/4 15/98/4 32/97/4
f 34/43/5 50/102/5 49/101/5 33/42/5
f 84/106/5 83/105/5 82/104/5 81/103/5
f 36/57/5 52/108/5 51/107/5 35/60/5
f 37/32/2 53/110/2 52/109/2 36/31/2
f 38/68/6 54/112/6 53/111/6 37/67/6
f 62/54/6 39/48/6 55/114/6 63/113/6
f 40/45/6 56/115/6 55/114/6 39/48/6
f 33/37/4 49/117/4 56/116/4 40/40/4
f 42/119/5 26/76/5 25/73/5 41/118/5
f 87/123/5 88/122/5 85/121/5 86/120/5
f 44/125/5 28/82/5 27/79/5 43/124/5
f 45/127/2 29/86/2 28/83/2 44/126/2
f 46/129/6 30/90/6 29/87/6 45/128/6
f 64/131/6 47/130/6 31/93/6 65/94/6
f 48/132/6 32/96/6 31/93/6 47/130/6
f 41/134/4 25/100/4 32/97/4 48/133/4
f 50/102/5 42/119/5 41/118/5 49/101/5
f 58/136/5 57/135/5 42/119/5 50/102/5
f 52/108/5 44/125/5 43/124/5 51/107/5
f 53/110/2 45/127/2 44/126/2 52/109/2
f 54/112/6 46/129/6 45/128/6 53/111/6
f 63/113/6 55/114/6 47/130/6 64/131/6
f 56/115/6 48/132/6 47/130/6 55/114/6
f 49/117/4 41/134/4 48/133/4 56/116/4
f 80/138/5 51/107/5 43/124/5 69/137/5
f 91/142/5 89/141/5 90/140/5 92/139/5
f 78/144/5 22/59/5 35/60/5 79/143/5
f 77/146/1 23/64/1 22/61/1 78/145/1
f 76/148/6 38/68/6 23/65/6 77/147/6
f 75/149/6 54/112/6 38/68/6 76/148/6
f 74/150/6 46/129/6 54/112/6 75/149/6
f 73/151/6 30/90/6 46/129/6 74/150/6
f 72/152/6 24/89/6 30/90/6 73/151/6
f 71/154/3 21/72/3 24/69/3 72/153/3
f 70/156/5 27/79/5 21/80/5 71/155/5
f 95/160/5 94/159/5 93/158/5 96/157/5
f 70/156/5 68/78/5 57/135/5 69/137/5
f 71/155/5 67/77/5 68/78/5 70/156/5
f 72/153/3 66/55/3 67/56/3 71/154/3
f 73/151/6 65/94/6 66/91/6 72/152/6
f 74/150/6 64/131/6 65/94/6 73/151/6
f 75/149/6 63/113/6 64/131/6 74/150/6
f 76/148/6 62/54/6 63/113/6 75/149/6
f 77/147/6 61/53/6 62/54/6 76/148/6
f 78/145/1 60/51/1 61/52/1 77/146/1
f 79/143/5 59/50/5 60/49/5 78/144/5
f 80/138/5 58/136/5 59/50/5 79/143/5
f 69/137/5 57/135/5 58/136/5 80/138/5
f 59/164/1 84/163/1 81/162/1 34/161/1
f 58/168/2 83/167/2 84/166/2 59/165/2
f 50/172/3 82/171/3 83/170/3 58/169/3
f 34/176/4 81/175/4 82/174/4 50/173/4
f 57/180/1 87/179/1 86/178/1 42/177/1
f 68/184/2 88/183/2 87/182/2 57/181/2
f 26/188/3 85/187/3 88/186/3 68/185/3
f 42/192/4 86/191/4 85/190/4 26/189/4
f 79/196/4 91/195/4 92/194/4 80/193/4
f 35/200/1 89/199/1 91/198/1 79/197/1
f 51/204/2 90/203/2 89/202/2 35/201/2
f 80/208/3 92/207/3 90/206/3 51/205/3
f 69/212/4 95/211/4 96/210/4 70/209/4
f 43/216/1 94/215/1 95/214/1 69/213/1
f 27/220/2 93/219/2 94/218/2 43/217/2
f 70/224/3 96/223/3 93/222/3 27/221/3

