<?xml version="1.0" encoding="UTF-8"?>
<svg width="24px" height="27px" viewBox="0 0 24 27" version="1.1" xmlns="http://www.w3.org/2000/svg" xmlns:xlink="http://www.w3.org/1999/xlink">
    <!-- Generator: Sketch 53.1 (72631) - https://sketchapp.com -->
    <title>icon</title>
    <desc>Created with Sketch.</desc>
    <defs>
        <polygon id="path-1" points="0.000705882353 1.16823529 23.4264706 1.16823529 23.4264706 26.4705882 0.000705882353 26.4705882"></polygon>
    </defs>
    <g id="Page-1" stroke="none" stroke-width="1" fill="none" fill-rule="evenodd">
        <g id="站点厂区" transform="translate(-1818.000000, -328.000000)">
            <g id="站点告警汇总" transform="translate(1440.000000, 85.000000)">
                <g id="三级告警" transform="translate(342.000000, 146.000000)">
                    <g id="icon" transform="translate(36.000000, 96.000000)">
                        <path d="M12.0082941,6.99847059 C12.4953529,6.99847059 12.8906471,6.60317647 12.8906471,6.11611765 C12.8906471,5.62905882 12.4953529,5.23376471 12.0082941,5.23376471 C8.63594118,5.23376471 5.89182353,8.03082353 5.89182353,11.4667059 C5.89182353,11.9555294 6.28711765,12.3490588 6.77417647,12.3490588 C7.263,12.3490588 7.65652941,11.9555294 7.65652941,11.4667059 C7.65652941,9.00317647 9.61005882,6.99847059 12.0082941,6.99847059" id="Fill-1" fill="#FADB00"></path>
                        <g id="分组" transform="translate(0.000000, 0.596294)">
                            <mask id="mask-2" fill="white">
                                <use xlink:href="#path-1"></use>
                            </mask>
                            <g id="Clip-4"></g>
                            <path d="M11.5154118,24.7058824 C10.1812941,24.7058824 9.06247059,23.7864706 8.69188235,22.5370588 L14.3389412,22.5370588 C13.9683529,23.7864706 12.8495294,24.7058824 11.5154118,24.7058824 L11.5154118,24.7058824 Z M3.77188235,10.8705882 C3.77188235,6.49411765 7.24658824,2.93294118 11.5154118,2.93294118 C15.7842353,2.93294118 19.2589412,6.49411765 19.2589412,10.8705882 L19.2589412,20.7723529 L3.77188235,20.7723529 L3.77188235,10.8705882 Z M22.5448235,20.7723529 L21.0236471,20.7723529 L21.0236471,10.8705882 C21.0236471,5.52176471 16.7583529,1.16823529 11.5154118,1.16823529 C6.27247059,1.16823529 2.00717647,5.52176471 2.00717647,10.8705882 L2.00717647,20.7723529 L0.883058824,20.7723529 C0.394235294,20.7723529 0.000705882353,21.1676471 0.000705882353,21.6547059 C0.000705882353,22.1435294 0.394235294,22.5370588 0.883058824,22.5370588 L6.87423529,22.5370588 C7.28364706,24.7711765 9.20364706,26.4705882 11.5154118,26.4705882 C13.8271765,26.4705882 15.7471765,24.7711765 16.1565882,22.5370588 L22.5448235,22.5370588 C23.0318824,22.5370588 23.4271765,22.1435294 23.4271765,21.6547059 C23.4271765,21.1676471 23.0318824,20.7723529 22.5448235,20.7723529 L22.5448235,20.7723529 Z" id="Fill-3" fill="#FADB00" mask="url(#mask-2)"></path>
                        </g>
                    </g>
                </g>
            </g>
        </g>
    </g>
</svg>