<?xml version="1.0" encoding="UTF-8"?>
<svg width="29px" height="27px" viewBox="0 0 29 27" version="1.1" xmlns="http://www.w3.org/2000/svg" xmlns:xlink="http://www.w3.org/1999/xlink">
    <!-- Generator: Sketch 53.1 (72631) - https://sketchapp.com -->
    <title>喇叭 icon</title>
    <desc>Created with Sketch.</desc>
    <defs>
        <polygon id="path-1" points="0 0.6412 18.71618 0.6412 18.71618 26.5993 0 26.5993"></polygon>
    </defs>
    <g id="Page-1" stroke="none" stroke-width="1" fill="none" fill-rule="evenodd">
        <g id="站点厂区" transform="translate(-1481.000000, -171.000000)">
            <g id="站点告警汇总" transform="translate(1440.000000, 85.000000)">
                <g id="告警实时信号播报" transform="translate(21.000000, 71.000000)">
                    <g id="喇叭-icon" transform="translate(20.000000, 14.000000)">
                        <path d="M21.47712,10.24786 C21.00112,10.50406 20.82192,11.09766 21.07812,11.57506 C22.01192,13.31106 21.94192,15.42506 20.89332,17.09526 C20.60632,17.55306 20.74492,18.15786 21.20272,18.44486 C21.36512,18.54706 21.54432,18.59606 21.72352,18.59606 C22.04972,18.59606 22.36752,18.43366 22.55372,18.13686 C23.97612,15.87306 24.07132,13.00166 22.80432,10.64546 C22.54812,10.16946 21.95312,9.99166 21.47712,10.24786" id="Fill-1" fill="#F5FCFF"></path>
                        <path d="M26.03874,7.24696 C25.72654,6.80456 25.11474,6.70096 24.67234,7.01316 C24.22994,7.32676 24.12634,7.93856 24.43854,8.38096 C26.97954,11.96216 26.86474,16.88316 24.16274,20.34536 C23.82954,20.77236 23.90514,21.38836 24.33214,21.72156 C24.51134,21.86016 24.72414,21.92876 24.93414,21.92876 C25.22534,21.92876 25.51374,21.79996 25.70694,21.55216 C28.93814,17.41376 29.07394,11.53096 26.03874,7.24696" id="Fill-3" fill="#F5FCFF"></path>
                        <g id="分组" transform="translate(0.000000, 0.758800)">
                            <mask id="mask-2" fill="white">
                                <use xlink:href="#path-1"></use>
                            </mask>
                            <g id="Clip-6"></g>
                            <path d="M17.66338,0.8211 C17.01518,0.5117 16.26758,0.6055 15.71038,1.0591 L8.18398,7.2219 C7.74858,7.5775 7.19838,7.7749 6.63558,7.7749 L1.76358,7.7749 C0.79198,7.7749 -0.00042,8.5659 -0.00042,9.5389 L-0.00042,13.6199 L-0.00042,17.7009 C-0.00042,18.6739 0.79198,19.4649 1.76358,19.4649 L6.63558,19.4649 C7.19838,19.4649 7.74858,19.6609 8.18398,20.0179 L15.71038,26.1807 C16.04918,26.4579 16.45798,26.5993 16.87238,26.5993 C17.13978,26.5993 17.40858,26.5405 17.66338,26.4187 C18.31298,26.1121 18.71618,25.4737 18.71618,24.7569 L18.71618,13.6199 L18.71618,2.4829 C18.71618,1.7661 18.31298,1.1277 17.66338,0.8211" id="Fill-5" fill="#F5FCFF" mask="url(#mask-2)"></path>
                        </g>
                    </g>
                </g>
            </g>
        </g>
    </g>
</svg>