<?xml version="1.0" encoding="UTF-8"?>
<svg width="24px" height="27px" viewBox="0 0 24 27" version="1.1" xmlns="http://www.w3.org/2000/svg" xmlns:xlink="http://www.w3.org/1999/xlink">
    <!-- Generator: Sketch 53.1 (72631) - https://sketchapp.com -->
    <title>icon</title>
    <desc>Created with Sketch.</desc>
    <defs>
        <polygon id="path-1" points="0.000705882353 0.168235294 23.4264706 0.168235294 23.4264706 25.4705882 0.000705882353 25.4705882"></polygon>
    </defs>
    <g id="Page-1" stroke="none" stroke-width="1" fill="none" fill-rule="evenodd">
        <g id="站点厂区" transform="translate(-1497.000000, -328.000000)">
            <g id="站点告警汇总" transform="translate(1440.000000, 85.000000)">
                <g id="总告警数" transform="translate(21.000000, 146.000000)">
                    <g id="icon" transform="translate(36.000000, 97.000000)">
                        <path d="M12.0082941,5.99847059 C12.4953529,5.99847059 12.8906471,5.60317647 12.8906471,5.11611765 C12.8906471,4.62905882 12.4953529,4.23376471 12.0082941,4.23376471 C8.63594118,4.23376471 5.89182353,7.03082353 5.89182353,10.4667059 C5.89182353,10.9555294 6.28711765,11.3490588 6.77417647,11.3490588 C7.263,11.3490588 7.65652941,10.9555294 7.65652941,10.4667059 C7.65652941,8.00317647 9.61005882,5.99847059 12.0082941,5.99847059" id="Fill-1" fill="#00A7FF"></path>
                        <g id="分组" transform="translate(0.000000, 0.596294)">
                            <mask id="mask-2" fill="white">
                                <use xlink:href="#path-1"></use>
                            </mask>
                            <g id="Clip-4"></g>
                            <path d="M11.5154118,23.7058824 C10.1812941,23.7058824 9.06247059,22.7864706 8.69188235,21.5370588 L14.3389412,21.5370588 C13.9683529,22.7864706 12.8495294,23.7058824 11.5154118,23.7058824 L11.5154118,23.7058824 Z M3.77188235,9.87058824 C3.77188235,5.49411765 7.24658824,1.93294118 11.5154118,1.93294118 C15.7842353,1.93294118 19.2589412,5.49411765 19.2589412,9.87058824 L19.2589412,19.7723529 L3.77188235,19.7723529 L3.77188235,9.87058824 Z M22.5448235,19.7723529 L21.0236471,19.7723529 L21.0236471,9.87058824 C21.0236471,4.52176471 16.7583529,0.168235294 11.5154118,0.168235294 C6.27247059,0.168235294 2.00717647,4.52176471 2.00717647,9.87058824 L2.00717647,19.7723529 L0.883058824,19.7723529 C0.394235294,19.7723529 0.000705882353,20.1676471 0.000705882353,20.6547059 C0.000705882353,21.1435294 0.394235294,21.5370588 0.883058824,21.5370588 L6.87423529,21.5370588 C7.28364706,23.7711765 9.20364706,25.4705882 11.5154118,25.4705882 C13.8271765,25.4705882 15.7471765,23.7711765 16.1565882,21.5370588 L22.5448235,21.5370588 C23.0318824,21.5370588 23.4271765,21.1435294 23.4271765,20.6547059 C23.4271765,20.1676471 23.0318824,19.7723529 22.5448235,19.7723529 L22.5448235,19.7723529 Z" id="Fill-3" fill="#00A7FF" mask="url(#mask-2)"></path>
                        </g>
                    </g>
                </g>
            </g>
        </g>
    </g>
</svg>