<?xml version="1.0" encoding="UTF-8"?>
<svg width="50px" height="50px" viewBox="0 0 50 50" version="1.1" xmlns="http://www.w3.org/2000/svg" xmlns:xlink="http://www.w3.org/1999/xlink">
    <!-- Generator: Sketch 53.1 (72631) - https://sketchapp.com -->
    <title>icon</title>
    <desc>Created with Sketch.</desc>
    <g id="Page-1" stroke="none" stroke-width="1" fill="none" fill-rule="evenodd" stroke-linecap="round" stroke-linejoin="round">
        <g id="站点厂区" transform="translate(-710.000000, -887.000000)" stroke="#F4F7FF" stroke-width="2">
            <g id="设备快速跳转" transform="translate(640.000000, 839.000000)">
                <g id="窑主电机" transform="translate(30.000000, 29.000000)">
                    <g transform="translate(29.000000, 20.000000)" id="icon">
                        <g transform="translate(12.000000, 0.000000)">
                            <path d="M40.7561368,13.9340526 C41.6432947,15.4478947 42.3344526,17.0906842 42.7935053,18.8263158" id="Stroke-1"></path>
                            <path d="M28.8687368,4.90025789 C30.6275789,5.35415263 32.1723684,6.01436316 33.7042632,6.9041" id="Stroke-3"></path>
                            <path d="M14.0070368,6.90487368 C15.5028263,6.03318947 17.1275632,5.35234737 18.8425632,4.90103158" id="Stroke-5"></path>
                            <path d="M4.91779474,18.8276053 C5.37168947,17.1100263 6.04995263,15.4852895 6.92421579,13.9869211" id="Stroke-7"></path>
                            <path d="M6.92498947,33.6841474 C6.05072632,32.1883579 5.36988421,30.5610421 4.91856842,28.8460421" id="Stroke-9"></path>
                            <path d="M18.8500421,42.7759684 C17.1324632,42.3220737 15.5051474,41.6438105 14.0067789,40.7695474" id="Stroke-11"></path>
                            <path d="M33.7042632,40.7687737 C32.2033158,41.6430368 30.5785789,42.3238789 28.8584211,42.7751947" id="Stroke-13"></path>
                            <path d="M42.8236789,28.7302474 C42.3697842,30.4916684 41.6812053,32.1525105 40.7863105,33.6844053" id="Stroke-15"></path>
                            <path d="M30.6291263,23.8366947 C30.6291263,27.5761684 27.5962842,30.6090105 23.8542316,30.6090105 C20.1147579,30.6090105 17.0819158,27.5761684 17.0819158,23.8366947 C17.0819158,20.0972211 20.1147579,17.0618 23.8542316,17.0618 C27.5962842,17.0618 30.6291263,20.0972211 30.6291263,23.8366947 Z" id="Stroke-17"></path>
                            <path d="M26.8112526,23.8366947 C26.8112526,25.4691684 25.4856737,26.7921684 23.8557789,26.7921684 C22.2233053,26.7921684 20.9003053,25.4691684 20.9003053,23.8366947 C20.9003053,22.2042211 22.2233053,20.8812211 23.8557789,20.8812211 C25.4856737,20.8812211 26.8112526,22.2042211 26.8112526,23.8366947 Z" id="Stroke-19"></path>
                            <path d="M18.8425632,4.90025789 C19.2706684,2.43220526 21.3699316,0.644994737 23.8534579,0.644994737 C26.3111947,0.644994737 28.3975632,2.39867895 28.8695105,4.90025789" id="Stroke-21"></path>
                            <path d="M18.8425632,42.8113 C19.2706684,45.2793526 21.3699316,47.0639842 23.8534579,47.0639842 C26.3111947,47.0639842 28.3975632,45.3103 28.8695105,42.8113" id="Stroke-23"></path>
                            <path d="M42.8113,18.8224474 C45.2793526,19.2531316 47.0639842,21.3523947 47.0639842,23.8359211 C47.0639842,26.2910789 45.7461421,28.2665526 42.8241947,28.7307632" id="Stroke-25"></path>
                            <path d="M4.90025789,18.8224474 C2.43220526,19.2531316 0.644994737,21.3523947 0.644994737,23.8359211 C0.644994737,26.2910789 2.39867895,28.3774474 4.90025789,28.8519737" id="Stroke-27"></path>
                            <path d="M33.7143211,6.88733684 C35.7620053,5.44570526 38.5111632,5.66749474 40.2674263,7.42375789 C42.0030579,9.16196842 42.2377421,11.8776 40.8038474,13.9794421" id="Stroke-29"></path>
                            <path d="M6.90745263,33.6942053 C5.46324211,35.7444684 5.68503158,38.4910474 7.44387368,40.2498895 C9.17950526,41.9855211 11.8977158,42.2202053 13.9969789,40.7837316" id="Stroke-31"></path>
                            <path d="M40.8038474,33.6942053 C42.2454789,35.7444684 42.0236895,38.4910474 40.2674263,40.2498895 C38.5317947,41.9855211 35.8135842,42.2202053 33.7143211,40.7837316" id="Stroke-33"></path>
                            <path d="M13.9969789,6.88733684 C11.9467158,5.44570526 9.20013684,5.66749474 7.44387368,7.42375789 C5.70566316,9.16196842 5.47097895,11.8776 6.90745263,13.9794421" id="Stroke-35"></path>
                            <path d="M28.6446263,19.0465579 L34.2615737,13.4296105" id="Stroke-37"></path>
                            <path d="M13.4505,34.2432632 L19.0674474,28.6263158" id="Stroke-39"></path>
                            <path d="M28.6446263,28.6270895 L34.2615737,34.2440368" id="Stroke-41"></path>
                            <path d="M13.4505,13.4303842 L19.0674474,19.0473316" id="Stroke-43"></path>
                            <path d="M30.6291263,23.8366947 L38.5722842,23.8366947" id="Stroke-45"></path>
                            <path d="M9.13875789,23.8366947 L17.0819158,23.8366947" id="Stroke-47"></path>
                            <path d="M23.8544895,30.6090105 L23.8544895,38.5521684" id="Stroke-49"></path>
                            <path d="M23.8544895,9.12122105 L23.8544895,17.0618" id="Stroke-51"></path>
                        </g>
                    </g>
                </g>
            </g>
        </g>
    </g>
</svg>