<?xml version="1.0" encoding="UTF-8"?>
<svg width="28px" height="28px" viewBox="0 0 28 28" version="1.1" xmlns="http://www.w3.org/2000/svg" xmlns:xlink="http://www.w3.org/1999/xlink">
    <!-- Generator: Sketch 53.1 (72631) - https://sketchapp.com -->
    <title>img</title>
    <desc>Created with Sketch.</desc>
    <defs>
        <polygon id="path-1" points="0.00057037037 0.000228148148 17.1111111 0.000228148148 17.1111111 17.1111111 0.00057037037 17.1111111"></polygon>
    </defs>
    <g id="Page-1" stroke="none" stroke-width="1" fill="none" fill-rule="evenodd">
        <g id="站点厂区" transform="translate(-1460.000000, -820.000000)">
            <g id="预测结果列表" transform="translate(1440.000000, 747.000000)">
                <g id="01" transform="translate(20.000000, 73.000000)">
                    <g id="img">
                        <rect id="矩形" fill="#00A7FF" x="0" y="0" width="28" height="28" rx="4"></rect>
                        <g id="icon" transform="translate(5.444444, 5.444444)">
                            <path d="M8.55555556,6.5824163 C7.47071111,6.5824163 6.58891852,7.46420889 6.58891852,8.54905333 C6.58891852,9.63275704 7.47071111,10.5156904 8.55555556,10.5156904 C9.6404,10.5156904 10.5221926,9.63275704 10.5221926,8.54905333 C10.5221926,7.46420889 9.6404,6.5824163 8.55555556,6.5824163" id="Fill-1" fill="#F5FCFF"></path>
                            <g id="Group-5">
                                <mask id="mask-2" fill="white">
                                    <use xlink:href="#path-1"></use>
                                </mask>
                                <g id="Clip-4"></g>
                                <path d="M13.8331926,9.01093926 L11.4011333,9.01093926 C11.3269852,9.46267259 11.1524519,9.87790222 10.8946444,10.2338133 L12.6148815,11.9529096 C12.7951185,12.1342874 12.7951185,12.426317 12.6148815,12.6065541 C12.524763,12.6978133 12.4061259,12.7423022 12.2874889,12.7423022 C12.1688519,12.7423022 12.0513556,12.6978133 11.9600963,12.6065541 L10.241,10.8885985 C9.88508889,11.1452652 9.46985926,11.3197985 9.01812593,11.3939467 L9.01812593,13.8271467 C9.01812593,14.0826726 8.81165185,14.2891467 8.55612593,14.2891467 C8.29945926,14.2891467 8.09298519,14.0826726 8.09298519,13.8271467 L8.09298519,11.3939467 C7.64125185,11.3197985 7.22602222,11.1452652 6.87011111,10.8885985 L5.14987407,12.6065541 C5.05975556,12.6978133 4.94225926,12.7423022 4.82362222,12.7423022 C4.70498519,12.7423022 4.58748889,12.6978133 4.49622963,12.6065541 C4.31599259,12.426317 4.31599259,12.1342874 4.49622963,11.9529096 L6.21532593,10.2338133 C5.95865926,9.87790222 5.78412593,9.46267259 5.70997778,9.01093926 L3.27791852,9.01093926 C3.02125185,9.01093926 2.81477778,8.80332444 2.81477778,8.54893926 C2.81477778,8.29227259 3.02125185,8.08579852 3.27791852,8.08579852 L5.70997778,8.08579852 C5.78412593,7.63406519 5.95865926,7.21883556 6.21646667,6.86292444 L4.49622963,5.14268741 C4.31599259,4.96245037 4.31599259,4.66928 4.49622963,4.48904296 C4.67760741,4.30880593 4.96963704,4.30880593 5.14987407,4.48904296 L6.87011111,6.20928 C7.22602222,5.95147259 7.64125185,5.77693926 8.09298519,5.70393185 L8.09298519,3.27073185 C8.09298519,3.01520593 8.29945926,2.80873185 8.55612593,2.80873185 C8.81165185,2.80873185 9.01812593,3.01520593 9.01812593,3.27073185 L9.01812593,5.70393185 C9.46985926,5.77693926 9.88508889,5.95147259 10.241,6.20928 L11.9600963,4.48904296 C12.1414741,4.30880593 12.4335037,4.30880593 12.6148815,4.48904296 C12.7951185,4.66928 12.7951185,4.96245037 12.6148815,5.14268741 L10.8946444,6.86292444 C11.1524519,7.21883556 11.3269852,7.63406519 11.4011333,8.08579852 L13.8331926,8.08579852 C14.0887185,8.08579852 14.2951926,8.29227259 14.2951926,8.54893926 C14.2951926,8.80332444 14.0887185,9.01093926 13.8331926,9.01093926 M15.5249111,6.55834667 C15.3743333,6.02676148 15.1598741,5.51456889 14.8895185,5.02861333 C15.3880222,4.19815407 15.2830741,3.17719111 14.6054741,2.49845037 C13.9301556,1.82313185 12.8886593,1.71590222 12.0764519,2.21212444 C11.5733852,1.93150222 11.0760222,1.72502815 10.5421556,1.57559111 C10.3048815,0.642465185 9.50978519,0.000228148148 8.55612593,0.000228148148 C7.60360741,0.000228148148 6.79368148,0.657294815 6.56667407,1.57673185 C6.03394815,1.72959111 5.52061481,1.94290963 5.03465926,2.21326519 C4.22245185,1.71590222 3.18095556,1.82313185 2.50563704,2.49845037 C1.82917778,3.17605037 1.72308889,4.19701333 2.22045185,5.02747259 C1.9500963,5.51342815 1.73677778,6.02676148 1.58505926,6.55834667 C0.661059259,6.78193185 0.00057037037,7.59413926 0.00057037037,8.54893926 C0.00057037037,9.50716148 0.64737037,10.3033985 1.5862,10.5383911 C1.73677778,11.071117 1.9500963,11.5833096 2.21931111,12.0692652 C1.72308889,12.8814726 1.83031852,13.9229689 2.50563704,14.5971467 C2.90261481,14.9941244 3.41822963,15.198317 3.94525185,15.198317 C4.31371111,15.198317 4.68331111,15.0808207 5.02439259,14.8789096 C5.51377037,15.1526874 6.02938519,15.3660059 6.56325185,15.5177244 C6.78455556,16.4474281 7.5979037,17.1113393 8.55612593,17.1113393 C9.51548889,17.1113393 10.3140074,16.4599763 10.5467185,15.5177244 C11.0805852,15.3660059 11.5973407,15.1526874 12.0867185,14.8789096 C12.4289407,15.0808207 12.7974,15.198317 13.167,15.198317 C13.6928815,15.198317 14.2084963,14.9941244 14.6054741,14.5971467 C15.2807926,13.9229689 15.3880222,12.8803319 14.8906593,12.0692652 C15.1667185,11.5719022 15.3834593,11.0460207 15.5363185,10.4996059 C16.5230593,10.2851467 17.1116815,9.56990222 17.1116815,8.54893926 C17.1116815,7.59299852 16.4500519,6.78193185 15.5249111,6.55834667" id="Fill-3" fill="#F5FCFF" mask="url(#mask-2)"></path>
                            </g>
                        </g>
                    </g>
                </g>
            </g>
        </g>
    </g>
</svg>