<?xml version="1.0" encoding="UTF-8"?>
<svg width="40px" height="50px" viewBox="0 0 40 50" version="1.1" xmlns="http://www.w3.org/2000/svg" xmlns:xlink="http://www.w3.org/1999/xlink">
    <!-- Generator: Sketch 53.1 (72631) - https://sketchapp.com -->
    <title>icon</title>
    <desc>Created with Sketch.</desc>
    <g id="Page-1" stroke="none" stroke-width="1" fill="none" fill-rule="evenodd" stroke-linecap="round" stroke-linejoin="round">
        <g id="站点厂区" transform="translate(-865.000000, -887.000000)" stroke="#F4F7FF" stroke-width="2">
            <g id="设备快速跳转" transform="translate(640.000000, 839.000000)">
                <g id="高温风机电机" transform="translate(180.000000, 29.000000)">
                    <g transform="translate(11.000000, 20.000000)" id="icon">
                        <g transform="translate(35.000000, 0.000000)">
                            <path d="M7.62517368,43.0936947 C3.37248947,39.7230105 0.643963158,34.5135368 0.643963158,28.6644842 C0.643963158,23.8676421 2.47759474,19.5014842 5.48464737,16.2262211" id="Stroke-1"></path>
                            <path d="M28.6069737,12.9372895 C33.9092895,16.1687105 37.4476053,22.0022895 37.4476053,28.6662895 C37.4476053,38.8273421 29.2104474,47.0645 19.0468158,47.0645 C16.9810789,47.0645 14.9927105,46.7266579 13.1384474,46.0973947" id="Stroke-3"></path>
                            <path d="M22.3295579,23.7944 C23.8924,24.8491895 24.9188211,26.6389789 24.9188211,28.6660316 C24.9188211,31.9077684 22.2908737,34.5357158 19.0465579,34.5357158 C15.8022421,34.5357158 13.1742947,31.9077684 13.1742947,28.6660316 C13.1742947,26.4687684 14.3786632,24.5551895 16.1607158,23.5468211" id="Stroke-5"></path>
                            <path d="M16.1604579,23.5475947 L16.1604579,3.7387 C16.1604579,2.02885789 17.5453526,0.643963158 19.2551947,0.643963158 C20.9624579,0.643963158 22.3499316,2.02885789 22.3499316,3.7387 L22.3499316,23.8080684" id="Stroke-7"></path>
                            <path d="M9.71437895,6.32873684 L12.4635368,6.32873684" id="Stroke-9"></path>
                            <path d="M9.71437895,11.4487211 L12.4635368,11.4487211" id="Stroke-11"></path>
                            <path d="M9.71437895,16.5712842 L12.4635368,16.5712842" id="Stroke-13"></path>
                            <path d="M34.3843316,12.9372895 L28.5945947,12.9372895" id="Stroke-15"></path>
                            <path d="M28.5956263,18.7272842 L28.5956263,12.9375474" id="Stroke-17"></path>
                            <path d="M1.83646842,43.0936947 L7.62620526,43.0936947" id="Stroke-19"></path>
                            <path d="M7.62517368,37.3037 L7.62517368,43.0934368" id="Stroke-21"></path>
                        </g>
                    </g>
                </g>
            </g>
        </g>
    </g>
</svg>