# 3ds Max Wavefront OBJ Exporter v0.97b - (c)2007 guruware
# 创建的文件:18.05.2020 17:08:42

mtllib 3Ldiban.mtl

#
# object Line002
#

v  -23700.0000 -225.0000 15300.0000
v  23700.0000 -225.0000 15300.0000
v  23700.0000 -165.0000 15300.0000
v  -23700.0000 -165.0000 15300.0000
v  23700.0000 675.0000 -15300.0000
v  23700.0000 735.0000 -15300.0000
v  -23700.0000 -225.0000 -15300.0000
v  -23700.0000 -165.0000 -15300.0000
# 8 vertices

vn 0.0000 0.0000 1.0000
vn 1.0000 0.0000 -0.0000
vn 0.0000 0.0000 -1.0000
vn -1.0000 0.0000 -0.0000
vn 0.0069 -0.9998 -0.0187
vn 0.0000 -0.9996 -0.0294
vn 0.0121 -0.9999 -0.0107
vn 0.0190 -0.9998 -0.0000
vn -0.0069 0.9998 0.0187
vn -0.0190 0.9998 -0.0000
vn -0.0121 0.9999 0.0107
vn 0.0000 0.9996 0.0294
# 12 vertex normals

vt 0.6666 0.9397 0.0000
vt 0.0100 0.9397 0.0000
vt 0.0100 0.9389 0.0000
vt 0.6666 0.9389 0.0000
vt 0.4341 0.9632 0.0000
vt 0.0100 0.9666 0.0000
vt 0.0100 0.9657 0.0000
vt 0.4341 0.9624 0.0000
vt 0.6666 0.9038 0.0000
vt 0.0100 0.9163 0.0000
vt 0.0100 0.9155 0.0000
vt 0.6666 0.9030 0.0000
vt 0.4339 0.9900 0.0000
vt 0.0100 0.9900 0.0000
vt 0.0100 0.9892 0.0000
vt 0.4339 0.9892 0.0000
vt 0.0100 0.4339 0.0000
vt 0.0100 0.0100 0.0000
vt 0.6666 0.0100 0.0000
vt 0.6666 0.4339 0.0000
vt 0.0100 0.4565 0.0000
vt 0.6666 0.4565 0.0000
vt 0.6666 0.8804 0.0000
vt 0.0100 0.8804 0.0000
# 24 texture coords

g Line002
usemtl wire_228214153
s 1
f 1/1/1 2/2/1 3/3/1 4/4/1 
s 4
f 2/5/2 5/6/2 6/7/2 3/8/2 
s 2
f 5/9/3 7/10/3 8/11/3 6/12/3 
s 4
f 7/13/4 1/14/4 4/15/4 8/16/4 
s 16
f 5/17/5 2/18/6 1/19/7 7/20/8 
f 6/21/9 8/22/10 4/23/11 3/24/12 
# 6 polygons

