<?xml version="1.0" encoding="UTF-8"?>
<svg width="16px" height="16px" viewBox="0 0 16 16" version="1.1" xmlns="http://www.w3.org/2000/svg" xmlns:xlink="http://www.w3.org/1999/xlink">
    <!-- Generator: Sketch 53.1 (72631) - https://sketchapp.com -->
    <title>icon</title>
    <desc>Created with Sketch.</desc>
    <g id="Page-1" stroke="none" stroke-width="1" fill="none" fill-rule="evenodd" stroke-linecap="round" stroke-linejoin="round">
        <g id="设备详情" transform="translate(-41.000000, -555.000000)" stroke="#F3F6FE">
            <g id="设备主要预测参数" transform="translate(20.000000, 493.000000)">
                <g id="定子线圈的绝缘老化情况" transform="translate(22.000000, 60.000000)">
                    <g id="标题">
                        <g id="icon" transform="translate(0.000000, 3.000000)">
                            <path d="M0.2501,12.1194 C0.2501,11.4994 0.9021,10.9204 1.5151,10.9204" id="Stroke-1"></path>
                            <path d="M1.5148,10.920588 C2.8688,10.9156 4.5628,12.4766 4.6568,13.8376" id="Stroke-3"></path>
                            <path d="M4.6564,13.8376 C4.6784,14.2246 4.4024,14.6576 3.8454,14.4406" id="Stroke-5"></path>
                            <path d="M3.8454,14.4402 C2.6964,13.8902 1.9764,12.7222 1.9264,11.8412" id="Stroke-7"></path>
                            <path d="M2.0211,9.8996 C2.0211,9.2786 2.6731,8.7006 3.2861,8.7006" id="Stroke-9"></path>
                            <path d="M3.2858,8.70088276 C4.6398,8.6949 6.3338,10.2559 6.4278,11.6179" id="Stroke-11"></path>
                            <path d="M6.4274,11.6174 C6.4494,12.0044 6.1734,12.4374 5.6164,12.2204" id="Stroke-13"></path>
                            <path d="M5.6168,12.2204 C4.4678,11.6704 3.7478,10.5024 3.6978,9.6214" id="Stroke-15"></path>
                            <path d="M3.6681,7.7805 C3.6681,7.1595 4.3201,6.5815 4.9331,6.5815" id="Stroke-17"></path>
                            <path d="M4.9328,6.58178276 C6.2868,6.5758 7.9808,8.1368 8.0748,9.4988" id="Stroke-19"></path>
                            <path d="M8.0744,9.4983 C8.0964,9.8853 7.8204,10.3183 7.2634,10.1013" id="Stroke-21"></path>
                            <path d="M7.2638,10.1013 C6.1148,9.5513 5.3948,8.3823 5.3448,7.5023" id="Stroke-23"></path>
                            <path d="M5.6168,5.6609 C5.6168,5.0409 6.2688,4.4619 6.8818,4.4619" id="Stroke-25"></path>
                            <path d="M6.8815,4.46208802 C8.2355,4.4571 9.9295,6.0181 10.0235,7.3791" id="Stroke-27"></path>
                            <path d="M10.0231,7.3791 C10.0451,7.7661 9.7691,8.1991 9.2121,7.9821" id="Stroke-29"></path>
                            <path d="M9.2125,7.9821 C8.0635,7.4321 7.3425,6.2631 7.2935,5.3821" id="Stroke-31"></path>
                            <path d="M7.2936,3.5681 C7.2936,2.9471 7.9456,2.3691 8.5586,2.3691" id="Stroke-33"></path>
                            <path d="M8.5582,2.36938276 C9.9122,2.3634 11.6062,3.9244 11.7002,5.2864" id="Stroke-35"></path>
                            <path d="M11.6998,5.2863 C11.7218,5.6723 11.4458,6.1053 10.8888,5.8893" id="Stroke-37"></path>
                            <path d="M10.8893,5.8889 C9.7403,5.3389 9.0193,4.1709 8.9703,3.2899" id="Stroke-39"></path>
                            <path d="M9.2125,1.4489 C9.2125,0.8279 9.8645,0.2499 10.4775,0.2499" id="Stroke-41"></path>
                            <path d="M10.4772,0.250182757 C11.8312,0.2442 13.5252,1.8052 13.6192,3.1672" id="Stroke-43"></path>
                            <path d="M13.6188,3.1667 C13.6408,3.5537 13.3648,3.9867 12.8078,3.7697" id="Stroke-45"></path>
                            <path d="M12.8082,3.7697 C11.6592,3.2197 10.9382,2.0507 10.8892,1.1707" id="Stroke-47"></path>
                        </g>
                    </g>
                </g>
            </g>
        </g>
    </g>
</svg>