<?xml version="1.0" encoding="UTF-8"?>
<svg width="18px" height="18px" viewBox="0 0 18 18" version="1.1" xmlns="http://www.w3.org/2000/svg" xmlns:xlink="http://www.w3.org/1999/xlink">
    <!-- Generator: Sketch 53.1 (72631) - https://sketchapp.com -->
    <title>icon</title>
    <desc>Created with Sketch.</desc>
    <g id="Page-1" stroke="none" stroke-width="1" fill="none" fill-rule="evenodd" stroke-linecap="round" stroke-linejoin="round">
        <g id="设备详情" transform="translate(-42.000000, -812.000000)" stroke="#F0F3FB">
            <g id="设备主要预测参数" transform="translate(20.000000, 493.000000)">
                <g id="轴承润滑油损耗情况" transform="translate(22.000000, 318.000000)">
                    <g id="标题" transform="translate(1.000000, 0.000000)">
                        <g id="icon" transform="translate(0.000000, 2.000000)">
                            <path d="M15.2804706,5.07783529 C15.6578824,5.99454118 15.8658824,6.99783529 15.8658824,8.05007059 C15.8658824,12.3672471 12.3665882,15.8656 8.05035294,15.8656 C3.73411765,15.8656 0.235764706,12.3672471 0.235764706,8.05007059 C0.235764706,3.73383529 3.73411765,0.235482353 8.05035294,0.235482353 C8.82964706,0.235482353 9.58164706,0.349364706 10.2922353,0.562070588" id="Stroke-1"></path>
                            <path d="M14.2570353,6.63849412 C14.2777412,6.72978824 14.2965647,6.82108235 14.3135059,6.91425882 C14.3793882,7.2832 14.4142118,7.66249412 14.4142118,8.05025882 C14.4142118,11.5646118 11.5652706,14.4144941 8.05091765,14.4144941 C4.53562353,14.4144941 1.68668235,11.5646118 1.68668235,8.05025882 C1.68668235,4.53590588 4.53562353,1.68696471 8.05091765,1.68696471 C8.49891765,1.68696471 8.93750588,1.73308235 9.35915294,1.82155294" id="Stroke-3"></path>
                            <path d="M10.2919529,8.05025882 C10.2919529,9.28508235 9.29148235,10.2855529 8.0576,10.2855529 C6.82277647,10.2855529 5.82230588,9.28508235 5.82230588,8.05025882 C5.82230588,6.81637647 6.82277647,5.81590588 8.0576,5.81590588 C9.29148235,5.81590588 10.2919529,6.81637647 10.2919529,8.05025882 Z" id="Stroke-5"></path>
                            <path d="M6.92112941,1.79341176 C6.92112941,2.41835294 7.42654118,2.97082353 8.05054118,2.97082353" id="Stroke-7"></path>
                            <path d="M9.17985882,1.79341176 C9.17985882,2.41835294 8.67444706,2.97082353 8.05044706,2.97082353" id="Stroke-9"></path>
                            <path d="M6.92112941,1.79341176 C6.92112941,1.79341176 7.48583529,1.68705882 8.05054118,1.68705882 C8.68207059,1.68705882 9.17995294,1.79341176 9.17995294,1.79341176" id="Stroke-11"></path>
                            <path d="M6.92112941,14.3076706 C6.92112941,13.6827294 7.42654118,13.1302588 8.05054118,13.1302588" id="Stroke-13"></path>
                            <path d="M9.17985882,14.3076706 C9.17985882,13.6827294 8.67444706,13.1302588 8.05044706,13.1302588" id="Stroke-15"></path>
                            <path d="M6.92112941,14.3076706 C6.92112941,14.3076706 7.48583529,14.4140235 8.05054118,14.4140235 C8.68207059,14.4140235 9.17995294,14.3076706 9.17995294,14.3076706" id="Stroke-17"></path>
                            <path d="M14.3007059,6.92112941 C13.6757647,6.92112941 13.1232941,7.42654118 13.1232941,8.05054118" id="Stroke-19"></path>
                            <path d="M14.3007059,9.17985882 C13.6757647,9.17985882 13.1232941,8.67444706 13.1232941,8.05044706" id="Stroke-21"></path>
                            <path d="M14.3007059,6.92112941 C14.3007059,6.92112941 14.4070588,7.48583529 14.4070588,8.05054118 C14.4070588,8.68207059 14.3007059,9.17995294 14.3007059,9.17995294" id="Stroke-23"></path>
                            <path d="M1.78644706,6.92112941 C2.41044706,6.92112941 2.96385882,7.42654118 2.96385882,8.05054118" id="Stroke-25"></path>
                            <path d="M1.78644706,9.17985882 C2.41044706,9.17985882 2.96385882,8.67444706 2.96385882,8.05044706" id="Stroke-27"></path>
                            <path d="M1.78644706,6.92112941 C1.78644706,6.92112941 1.68009412,7.48583529 1.68009412,8.05054118 C1.68009412,8.68207059 1.78644706,9.17995294 1.78644706,9.17995294" id="Stroke-29"></path>
                            <path d="M2.83934118,11.6812235 C3.28075294,11.2398118 4.02898824,11.2059294 4.4704,11.6473412" id="Stroke-31"></path>
                            <path d="M4.43670588,13.2786824 C4.87811765,12.8372706 4.912,12.0890353 4.47058824,11.6476235" id="Stroke-33"></path>
                            <path d="M2.83934118,11.6812235 C2.83934118,11.6812235 3.16310588,12.1555765 3.56310588,12.5555765 C4.00922353,13.0016941 4.43651765,13.2784 4.43651765,13.2784" id="Stroke-35"></path>
                            <path d="M13.2804706,11.6762353 C12.8390588,11.2348235 12.0908235,11.2009412 11.6494118,11.6423529" id="Stroke-37"></path>
                            <path d="M11.6830118,13.2736 C11.2416,12.8321882 11.2077176,12.0839529 11.6491294,11.6425412" id="Stroke-39"></path>
                            <path d="M13.2804706,11.6762353 C13.2804706,11.6762353 12.9567059,12.1505882 12.5576471,12.5505882 C12.1105882,12.9967059 11.6832941,13.2734118 11.6832941,13.2734118" id="Stroke-41"></path>
                            <path d="M4.43162353,2.82738824 C4.87303529,3.2688 4.90691765,4.01703529 4.46550588,4.45844706" id="Stroke-43"></path>
                            <path d="M2.83425882,4.42484706 C3.27567059,4.86625882 4.02390588,4.90014118 4.46531765,4.45872941" id="Stroke-45"></path>
                            <path d="M4.43162353,2.82738824 C4.43162353,2.82738824 3.95727059,3.15115294 3.55727059,3.55115294 C3.11115294,3.99727059 2.83444706,4.42456471 2.83444706,4.42456471" id="Stroke-47"></path>
                            <path d="M13.712,3.72216471 C13.8211765,3.95463529 13.8522353,4.14663529 13.8522353,4.41957647 C13.8522353,5.41251765 13.0475294,6.21816471 12.0545882,6.21816471 C11.0616471,6.21816471 10.256,5.41251765 10.256,4.41957647 C10.256,4.17298824 10.3058824,3.93675294 10.3962353,3.72216471" id="Stroke-49"></path>
                            <path d="M13.712,3.72216471 L12.3877647,1.23369412 C12.2456471,0.967341176 11.8625882,0.967341176 11.7204706,1.23369412 L10.3971765,3.72216471" id="Stroke-51"></path>
                        </g>
                    </g>
                </g>
            </g>
        </g>
    </g>
</svg>