<?xml version="1.0" encoding="UTF-8"?>
<svg width="18px" height="18px" viewBox="0 0 18 18" version="1.1" xmlns="http://www.w3.org/2000/svg" xmlns:xlink="http://www.w3.org/1999/xlink">
    <!-- Generator: Sketch 53.1 (72631) - https://sketchapp.com -->
    <title>icon</title>
    <desc>Created with Sketch.</desc>
    <g id="Page-1" stroke="none" stroke-width="1" fill="none" fill-rule="evenodd" stroke-linecap="round" stroke-linejoin="round">
        <g id="设备详情" transform="translate(-41.000000, -641.000000)" stroke="#F3F6FE">
            <g id="设备主要预测参数" transform="translate(20.000000, 493.000000)">
                <g id="轴承磨损情况" transform="translate(22.000000, 146.000000)">
                    <g id="icon" transform="translate(0.000000, 3.000000)">
                        <path d="M15.8657882,8.05025882 C15.8657882,12.3664941 12.3664941,15.8657882 8.05025882,15.8657882 C3.73402353,15.8657882 0.235670588,12.3664941 0.235670588,8.05025882 C0.235670588,3.73402353 3.73402353,0.235670588 8.05025882,0.235670588 C12.3664941,0.235670588 15.8657882,3.73402353 15.8657882,8.05025882 Z" id="Stroke-1"></path>
                        <path d="M14.4144941,8.05025882 C14.4144941,11.5646118 11.5655529,14.4144941 8.05025882,14.4144941 C4.53590588,14.4144941 1.68696471,11.5646118 1.68696471,8.05025882 C1.68696471,4.53590588 4.53590588,1.68696471 8.05025882,1.68696471 C11.1777882,1.68696471 13.7773176,3.94202353 14.3137882,6.91425882 C14.3796706,7.2832 14.4144941,7.66249412 14.4144941,8.05025882 Z" id="Stroke-3"></path>
                        <path d="M10.2917647,8.05025882 C10.2917647,9.28508235 9.29223529,10.2855529 8.05741176,10.2855529 C6.82352941,10.2855529 5.82305882,9.28508235 5.82305882,8.05025882 C5.82305882,6.81637647 6.82352941,5.81590588 8.05741176,5.81590588 C9.29223529,5.81590588 10.2917647,6.81637647 10.2917647,8.05025882 Z" id="Stroke-5"></path>
                        <path d="M6.92094118,1.79341176 C6.92094118,2.41835294 7.42635294,2.97082353 8.05035294,2.97082353" id="Stroke-7"></path>
                        <path d="M9.18004706,1.79341176 C9.18004706,2.41835294 8.67463529,2.97082353 8.05063529,2.97082353" id="Stroke-9"></path>
                        <path d="M6.92094118,1.79341176 C6.92094118,1.79341176 7.48564706,1.68705882 8.05035294,1.68705882 C8.68282353,1.68705882 9.17976471,1.79341176 9.17976471,1.79341176" id="Stroke-11"></path>
                        <path d="M6.92094118,14.3076706 C6.92094118,13.6827294 7.42635294,13.1302588 8.05035294,13.1302588" id="Stroke-13"></path>
                        <path d="M9.18004706,14.3076706 C9.18004706,13.6827294 8.67463529,13.1302588 8.05063529,13.1302588" id="Stroke-15"></path>
                        <path d="M6.92094118,14.3076706 C6.92094118,14.3076706 7.48564706,14.4140235 8.05035294,14.4140235 C8.68282353,14.4140235 9.17976471,14.3076706 9.17976471,14.3076706" id="Stroke-17"></path>
                        <path d="M14.3005176,6.92112941 C13.6765176,6.92112941 13.1231059,7.42654118 13.1231059,8.05054118" id="Stroke-19"></path>
                        <path d="M14.3005176,9.17985882 C13.6765176,9.17985882 13.1231059,8.67444706 13.1231059,8.05044706" id="Stroke-21"></path>
                        <path d="M14.3005176,6.92112941 C14.3005176,6.92112941 14.4078118,7.48583529 14.4078118,8.05054118 C14.4078118,8.68207059 14.3005176,9.17995294 14.3005176,9.17995294" id="Stroke-23"></path>
                        <path d="M1.78625882,6.92112941 C2.4112,6.92112941 2.96367059,7.42654118 2.96367059,8.05054118" id="Stroke-25"></path>
                        <path d="M1.78625882,9.17985882 C2.4112,9.17985882 2.96367059,8.67444706 2.96367059,8.05044706" id="Stroke-27"></path>
                        <path d="M1.78625882,6.92112941 C1.78625882,6.92112941 1.67990588,7.48583529 1.67990588,8.05054118 C1.67990588,8.68207059 1.78625882,9.17995294 1.78625882,9.17995294" id="Stroke-29"></path>
                        <path d="M11.6883765,2.83247059 C11.2469647,3.27388235 11.2130824,4.02211765 11.6544941,4.46352941" id="Stroke-31"></path>
                        <path d="M13.2853647,4.42983529 C12.8439529,4.87124706 12.0957176,4.90512941 11.6543059,4.46371765" id="Stroke-33"></path>
                        <path d="M11.6883765,2.83247059 C11.6883765,2.83247059 12.1627294,3.15623529 12.5627294,3.55529412 C13.0088471,4.00235294 13.2855529,4.42964706 13.2855529,4.42964706" id="Stroke-35"></path>
                        <path d="M2.83905882,11.6812235 C3.28047059,11.2398118 4.02870588,11.2059294 4.47011765,11.6473412" id="Stroke-37"></path>
                        <path d="M4.43651765,13.2786824 C4.87792941,12.8372706 4.91181176,12.0890353 4.4704,11.6476235" id="Stroke-39"></path>
                        <path d="M2.83905882,11.6812235 C2.83905882,11.6812235 3.16282353,12.1555765 3.56282353,12.5555765 C4.00894118,13.0016941 4.43623529,13.2784 4.43623529,13.2784" id="Stroke-41"></path>
                        <path d="M13.2807529,11.6762353 C12.8393412,11.2348235 12.0911059,11.2009412 11.6496941,11.6423529" id="Stroke-43"></path>
                        <path d="M11.6832941,13.2736 C11.2418824,12.8321882 11.208,12.0839529 11.6494118,11.6425412" id="Stroke-45"></path>
                        <path d="M13.2807529,11.6762353 C13.2807529,11.6762353 12.9569882,12.1505882 12.5569882,12.5505882 C12.1108706,12.9967059 11.6835765,13.2734118 11.6835765,13.2734118" id="Stroke-47"></path>
                        <path d="M4.43143529,2.82738824 C4.87284706,3.2688 4.90672941,4.01703529 4.46531765,4.45844706" id="Stroke-49"></path>
                        <path d="M2.83454118,4.42484706 C3.27595294,4.86625882 4.02418824,4.90014118 4.4656,4.45872941" id="Stroke-51"></path>
                        <path d="M4.43143529,2.82738824 C4.43143529,2.82738824 3.95708235,3.15115294 3.55708235,3.55115294 C3.11096471,3.99727059 2.83425882,4.42456471 2.83425882,4.42456471" id="Stroke-53"></path>
                    </g>
                </g>
            </g>
        </g>
    </g>
</svg>