# WaveFront *.obj file (generated by CINEMA 4D)

mtllib ./其它区域.mtl

v -481.3916015625 -28.75319480895996 256.08389282226562
v -481.3916015625 -24.75319480895996 256.08389282226562
v 480.68832397460938 -28.75319480895996 256.08389282226562
v 480.68832397460938 -24.75319480895996 256.08389282226562
v 480.68832397460938 -28.75319480895996 -256.454345703125
v 480.68832397460938 -24.75319480895996 -256.454345703125
v -481.3916015625 -28.75319480895996 -256.454345703125
v -481.3916015625 -24.75319480895996 -256.454345703125
v 480.68832397460938 -28.75319480895996 -249.11317443847656
v 480.68832397460938 -24.75319480895996 -249.11317443847656
v -481.3916015625 -24.75319480895996 -249.11317443847656
v -481.3916015625 -28.75319480895996 -249.11317443847656
v 472.54586791992188 -28.75319480895996 -256.454345703125
v 472.54586791992188 -24.75319480895996 -256.454345703125
v 472.54586791992188 -24.75319480895996 -249.11317443847656
v 472.54586791992188 -24.75319480895996 256.08389282226562
v 472.54586791992188 -28.75319480895996 256.08389282226562
v 472.54586791992188 -28.75319480895996 -249.11317443847656
v 480.68832397460938 -28.75319480895996 248.39071655273438
v 480.68832397460938 -24.75319480895996 248.39071655273438
v 472.54586791992188 -24.75319480895996 248.39071655273438
v -481.3916015625 -24.75319480895996 248.39071655273438
v -481.3916015625 -28.75319480895996 248.39071655273438
v 472.54586791992188 -28.75319480895996 248.39071655273438
v -474.10012817382812 -24.75319480895996 256.08389282226562
v -474.10012817382812 -28.75319480895996 256.08389282226562
v -474.10012817382812 -28.75319480895996 248.39071655273438
v -474.10012817382812 -28.75319480895996 -249.11317443847656
v -474.10012817382812 -28.75319480895996 -256.454345703125
v -474.10012817382812 -24.75319480895996 -256.454345703125
v -474.10012817382812 -24.75319480895996 -249.11317443847656
v -474.10012817382812 -24.75319480895996 248.39071655273438
v -481.3916015625 28.88053894042969 256.08389282226562
v 480.68832397460938 28.88053894042969 256.08389282226562
v 480.68832397460938 28.88053894042969 -256.454345703125
v -481.3916015625 28.88053894042969 -256.454345703125
v 480.68832397460938 28.88053894042969 -249.11317443847656
v -481.3916015625 28.88053894042969 -249.11317443847656
v 472.54586791992188 28.88053894042969 -256.454345703125
v 472.54586791992188 28.88053894042969 -249.11317443847656
v 472.54586791992188 28.88053894042969 256.08389282226562
v 480.68832397460938 28.88053894042969 248.39071655273438
v 472.54586791992188 28.88053894042969 248.39071655273438
v -481.3916015625 28.88053894042969 248.39071655273438
v -474.10012817382812 28.88053894042969 256.08389282226562
v -474.10012817382812 28.88053894042969 -256.454345703125
v -474.10012817382812 28.88053894042969 -249.11317443847656
v -474.10012817382812 28.88053894042969 248.39071655273438
# 48 vertices

vn 0 0 1
vn 1 0 0
vn 0 0 -1
vn -1 0 0
vn 0 1 0
vn 0 -1 0
vn 0 0 -1
# 7 normals

vt 0.00882553961128 0.1337194442749 0
vt 0.00882553961128 0.13578975200653 0
vt 0.01364610437304 0.13578975200653 0
vt 0.01364610437304 0.1337194442749 0
vt 0.98632103204727 0.36346507072449 0
vt 0.9911744594574 0.36346507072449 0
vt 0.9911744594574 0.36139476299286 0
vt 0.98632103204727 0.36139476299286 0
vt 0.64005655050278 0.09213960170746 0
vt 0.64487713575363 0.09213960170746 0
vt 0.64487713575363 0.09006917476654 0
vt 0.64005655050278 0.09006917476654 0
vt 0.65232449769974 0.40504491329193 0
vt 0.65232449769974 0.40711534023285 0
vt 0.65717792510986 0.40711534023285 0
vt 0.65717792510986 0.40504491329193 0
vt 0.00882553961128 0.98929065465927 0
vt 0.00882553961128 0.99309039115906 0
vt 0.01364610437304 0.99309039115906 0
vt 0.01364610437304 0.98929065465927 0
vt 0.00882553961128 0.448695063591 0
vt 0.00882553961128 0.45249485969543 0
vt 0.01364610437304 0.45249485969543 0
vt 0.01364610437304 0.448695063591 0
vt 0.65741062164307 0.36139476299286 0
vt 0.65741062164307 0.36346507072449 0
vt 0.00882553961128 0.73178428411484 0
vt 0.01364610437304 0.73178428411484 0
vt 0.98608833551407 0.40711534023285 0
vt 0.98608833551407 0.40504491329193 0
vt 0.00882553961128 0.71000123023987 0
vt 0.01364610437304 0.71000123023987 0
vt 0.01420868001878 0.09006917476654 0
vt 0.00882553961128 0.09006917476654 0
vt 0.00882553961128 0.09213960170746 0
vt 0.01420868001878 0.09213960170746 0
vt 0.63949400186539 0.99309039115906 0
vt 0.64487713575363 0.99309039115906 0
vt 0.64487713575363 0.98929065465927 0
vt 0.63949400186539 0.98929065465927 0
vt 0.64487713575363 0.73178428411484 0
vt 0.63949400186539 0.73178428411484 0
vt 0.63949400186539 0.13578975200653 0
vt 0.64487713575363 0.13578975200653 0
vt 0.64487713575363 0.1337194442749 0
vt 0.63949400186539 0.1337194442749 0
vt 0.64487713575363 0.71000123023987 0
vt 0.64487713575363 0.45249485969543 0
vt 0.63949400186539 0.45249485969543 0
vt 0.63949400186539 0.71000123023987 0
vt 0.64487713575363 0.448695063591 0
vt 0.63949400186539 0.448695063591 0
vt 0.65232449769974 0.36139476299286 0
vt 0.65232449769974 0.36346507072449 0
vt 0.64487713575363 0.72780233621597 0
vt 0.63949400186539 0.72780233621597 0
vt 0.01364610437304 0.72780233621597 0
vt 0.00882553961128 0.72780233621597 0
vt 0.9911744594574 0.40711534023285 0
vt 0.9911744594574 0.40504491329193 0
vt 0.00882553961128 0.71398317813873 0
vt 0.01364610437304 0.71398317813873 0
vt 0.63949400186539 0.71398317813873 0
vt 0.64487713575363 0.71398317813873 0
vt 0.00882553961128 0.43487596511841 0
vt 0.63467341661453 0.43487596511841 0
vt 0.63467341661453 0.17736959457397 0
vt 0.00882553961128 0.17736959457397 0
vt 0.64005655050278 0.11990022659302 0
vt 0.64487713575363 0.11990022659302 0
vt 0.65232449769974 0.43487596511841 0
vt 0.65717792510986 0.43487596511841 0
vt 0.65232449769974 0.27823507785797 0
vt 0.65232449769974 0.30599582195282 0
vt 0.98123490810394 0.30599582195282 0
vt 0.98123490810394 0.27823507785797 0
vt 0.98608833551407 0.43487596511841 0
vt 0.98632103204727 0.39122581481934 0
vt 0.9911744594574 0.39122581481934 0
vt 0.00882553961128 0.11990022659302 0
vt 0.01420868001878 0.11990022659302 0
vt 0.65232449769974 0.31981492042542 0
vt 0.65232449769974 0.34757554531097 0
vt 0.98123490810394 0.34757554531097 0
vt 0.98123490810394 0.31981492042542 0
vt 0.65741062164307 0.39122581481934 0
vt 0.63949400186539 0.16355037689209 0
vt 0.64487713575363 0.16355037689209 0
vt 0.65232449769974 0.39122581481934 0
vt 0.9911744594574 0.43487596511841 0
vt 0.00882553961128 0.16355037689209 0
vt 0.01364610437304 0.16355037689209 0
vt 0.00882553961128 0.00690960884094 0
vt 0.00882553961128 0.0346702337265 0
vt 0.63467341661453 0.0346702337265 0
vt 0.63467341661453 0.00690960884094 0
vt 0.00882553961128 0.04848945140839 0
vt 0.00882553961128 0.07625007629395 0
vt 0.63467341661453 0.07625007629395 0
vt 0.63467341661453 0.04848945140839 0
# 100 texture coordinates

o 其它区域
usemtl 其它区域
f 26/4/1 25/3/1 2/2/1 1/1/1
f 9/8/2 5/7/2 6/6/2 10/5/2
f 29/12/3 7/11/3 8/10/3 30/9/3
f 12/16/4 11/15/4 8/14/4 7/13/4
f 47/20/5 46/19/5 36/18/5 38/17/5
f 29/24/6 28/23/6 12/22/6 7/21/6
f 10/5/2 20/26/2 19/25/2 9/8/2
f 48/28/5 47/20/5 38/17/5 44/27/5
f 12/16/4 23/30/4 22/29/4 11/15/4
f 28/23/6 27/32/6 23/31/6 12/22/6
f 14/36/3 6/35/3 5/34/3 13/33/3
f 40/40/5 37/39/5 35/38/5 39/37/5
f 43/42/5 42/41/5 37/39/5 40/40/5
f 17/46/1 3/45/1 4/44/1 16/43/1
f 24/50/6 18/49/6 9/48/6 19/47/6
f 13/52/6 5/51/6 9/48/6 18/49/6
f 20/26/2 4/54/2 3/53/2 19/25/2
f 43/42/5 41/56/5 34/55/5 42/41/5
f 48/28/5 44/27/5 33/58/5 45/57/5
f 23/30/4 1/60/4 2/59/4 22/29/4
f 27/32/6 26/62/6 1/61/6 23/31/6
f 19/47/6 3/64/6 17/63/6 24/50/6
f 26/4/1 17/46/1 16/43/1 25/3/1
f 27/32/6 24/50/6 17/63/6 26/62/6
f 28/23/6 18/49/6 24/50/6 27/32/6
f 29/24/6 13/52/6 18/49/6 28/23/6
f 30/9/3 14/36/3 13/33/3 29/12/3
f 47/20/5 40/40/5 39/37/5 46/19/5
f 32/68/5 21/67/5 15/66/5 31/65/5
f 45/57/5 41/56/5 43/42/5 48/28/5
f 8/10/3 36/70/3 46/69/3 30/9/3
f 11/15/4 38/72/4 36/71/4 8/14/4
f 31/76/2 47/75/2 48/74/2 32/73/2
f 22/29/4 44/77/4 38/72/4 11/15/4
f 6/6/2 35/79/2 37/78/2 10/5/2
f 14/36/3 39/81/3 35/80/3 6/35/3
f 21/85/4 43/84/4 40/83/4 15/82/4
f 10/5/2 37/78/2 42/86/2 20/26/2
f 4/44/1 34/88/1 41/87/1 16/43/1
f 20/26/2 42/86/2 34/89/2 4/54/2
f 2/59/4 33/90/4 44/77/4 22/29/4
f 25/3/1 45/92/1 33/91/1 2/2/1
f 15/96/1 40/95/1 47/94/1 31/93/1
f 30/9/3 46/69/3 39/81/3 14/36/3
f 16/43/1 41/87/1 45/92/1 25/3/1
f 32/100/7 48/99/7 43/98/7 21/97/7

