# WaveFront *.obj file (generated by CINEMA 4D)

mtllib ./配电大楼玻璃.mtl

v 226.05462646484375 29.41769599914551 433.47299194335938
v 226.05462646484375 49.45769500732422 433.47299194335938
v 226.05462646484375 95.81648254394531 433.47299194335938
v 226.05462646484375 115.85647583007812 433.47299194335938
v 226.05462646484375 29.41769599914551 339.43914794921875
v 226.05462646484375 49.45769500732422 339.43914794921875
v 226.05462646484375 95.81648254394531 339.43914794921875
v 226.05462646484375 115.85647583007812 339.43914794921875
v 226.05462646484375 29.41769599914551 319.39913940429688
v 226.05462646484375 49.45769500732422 319.39913940429688
v 226.05462646484375 95.81648254394531 319.39913940429688
v 226.05462646484375 115.85647583007812 319.39913940429688
v 226.05462646484375 29.41769599914551 200.70068359375
v 226.05462646484375 49.45769500732422 200.70068359375
v 226.05462646484375 95.81648254394531 200.70068359375
v 226.05462646484375 115.85647583007812 200.70068359375
v 226.05462646484375 29.41769599914551 180.66069030761719
v 226.05462646484375 49.45769500732422 180.66069030761719
v 226.05462646484375 95.81648254394531 180.66069030761719
v 226.05462646484375 115.85647583007812 180.66069030761719
v 226.05462646484375 29.41769599914551 61.96222686767578
v 226.05462646484375 49.45769500732422 61.96222686767578
v 226.05462646484375 95.81648254394531 61.96222686767578
v 226.05462646484375 115.85647583007812 61.96222686767578
v 226.05462646484375 29.41769599914551 41.92222595214844
v 226.05462646484375 49.45769500732422 41.92222595214844
v 226.05462646484375 95.81648254394531 41.92222595214844
v 226.05462646484375 115.85647583007812 41.92222595214844
v 226.05462646484375 29.41769599914551 -76.77623748779297
v 226.05462646484375 49.45769500732422 -76.77623748779297
v 226.05462646484375 95.81648254394531 -76.77623748779297
v 226.05462646484375 115.85647583007812 -76.77623748779297
v 226.05462646484375 29.41769599914551 -96.81623077392578
v 226.05462646484375 49.45769500732422 -96.81623077392578
v 226.05462646484375 95.81648254394531 -96.81623077392578
v 226.05462646484375 115.85647583007812 -96.81623077392578
v 226.05462646484375 29.41769599914551 -215.51469421386719
v 226.05462646484375 49.45769500732422 -215.51469421386719
v 226.05462646484375 95.81648254394531 -215.51469421386719
v 226.05462646484375 115.85647583007812 -215.51469421386719
v 226.05462646484375 29.41769599914551 -235.55470275878906
v 226.05462646484375 49.45769500732422 -235.55470275878906
v 226.05462646484375 95.81648254394531 -235.55470275878906
v 226.05462646484375 115.85647583007812 -235.55470275878906
v 226.05462646484375 29.41769599914551 -354.25314331054688
v 226.05462646484375 49.45769500732422 -354.25314331054688
v 226.05462646484375 95.81648254394531 -354.25314331054688
v 226.05462646484375 115.85647583007812 -354.25314331054688
v 226.05462646484375 29.41769599914551 -374.29315185546875
v 226.05462646484375 49.45769500732422 -374.29315185546875
v 226.05462646484375 95.81648254394531 -374.29315185546875
v 226.05462646484375 115.85647583007812 -374.29315185546875
v 226.05462646484375 29.41769599914551 -468.32699584960938
v 226.05462646484375 49.45769500732422 -468.32699584960938
v 226.05462646484375 95.81648254394531 -468.32699584960938
v 226.05462646484375 115.85647583007812 -468.32699584960938
v 100.80461883544922 29.41769599914551 -468.32699584960938
v 100.80461883544922 49.45769500732422 -468.32699584960938
v 100.80461883544922 95.81648254394531 -468.32699584960938
v 100.80461883544922 115.85647583007812 -468.32699584960938
v -123.86745452880859 29.41769599914551 -468.32699584960938
v -123.86745452880859 49.45769500732422 -468.32699584960938
v -123.86745452880859 95.81648254394531 -468.32699584960938
v -123.86745452880859 115.85647583007812 -468.32699584960938
v -123.86745452880859 29.41769599914551 -374.29315185546875
v -123.86745452880859 49.45769500732422 -374.29315185546875
v -123.86745452880859 95.81648254394531 -374.29315185546875
v -123.86745452880859 115.85647583007812 -374.29315185546875
v -123.86745452880859 29.41769599914551 -354.25314331054688
v -123.86745452880859 49.45769500732422 -354.25314331054688
v -123.86745452880859 95.81648254394531 -354.25314331054688
v -123.86745452880859 115.85647583007812 -354.25314331054688
v -123.86745452880859 29.41769599914551 -235.55470275878906
v -123.86745452880859 49.45769500732422 -235.55470275878906
v -123.86745452880859 95.81648254394531 -235.55470275878906
v -123.86745452880859 115.85647583007812 -235.55470275878906
v -123.86745452880859 29.41769599914551 -215.51469421386719
v -123.86745452880859 49.45769500732422 -215.51469421386719
v -123.86745452880859 95.81648254394531 -215.51469421386719
v -123.86745452880859 115.85647583007812 -215.51469421386719
v -123.86745452880859 29.41769599914551 -96.81623077392578
v -123.86745452880859 49.45769500732422 -96.81623077392578
v -123.86745452880859 95.81648254394531 -96.81623077392578
v -123.86745452880859 115.85647583007812 -96.81623077392578
v -123.86745452880859 29.41769599914551 -76.77623748779297
v -123.86745452880859 49.45769500732422 -76.77623748779297
v -123.86745452880859 95.81648254394531 -76.77623748779297
v -123.86745452880859 115.85647583007812 -76.77623748779297
v -123.86745452880859 29.41769599914551 41.92222595214844
v -123.86745452880859 49.45769500732422 41.92222595214844
v -123.86745452880859 95.81648254394531 41.92222595214844
v -123.86745452880859 115.85647583007812 41.92222595214844
v -123.86745452880859 29.41769599914551 61.96222686767578
v -123.86745452880859 49.45769500732422 61.96222686767578
v -123.86745452880859 95.81648254394531 61.96222686767578
v -123.86745452880859 115.85647583007812 61.96222686767578
v -123.86745452880859 29.41769599914551 180.66069030761719
v -123.86745452880859 49.45769500732422 180.66069030761719
v -123.86745452880859 95.81648254394531 180.66069030761719
v -123.86745452880859 115.85647583007812 180.66069030761719
v -123.86745452880859 29.41769599914551 200.70068359375
v -123.86745452880859 49.45769500732422 200.70068359375
v -123.86745452880859 95.81648254394531 200.70068359375
v -123.86745452880859 115.85647583007812 200.70068359375
v -123.86745452880859 29.41769599914551 319.39913940429688
v -123.86745452880859 49.45769500732422 319.39913940429688
v -123.86745452880859 95.81648254394531 319.39913940429688
v -123.86745452880859 115.85647583007812 319.39913940429688
v -123.86745452880859 29.41769599914551 339.43914794921875
v -123.86745452880859 49.45769500732422 339.43914794921875
v -123.86745452880859 95.81648254394531 339.43914794921875
v -123.86745452880859 115.85647583007812 339.43914794921875
v -123.86745452880859 29.41769599914551 433.47299194335938
v -123.86745452880859 49.45769500732422 433.47299194335938
v -123.86745452880859 95.81648254394531 433.47299194335938
v -123.86745452880859 115.85647583007812 433.47299194335938
v 100.80461883544922 29.41769599914551 433.47299194335938
v 100.80461883544922 49.45769500732422 433.47299194335938
v 100.80461883544922 95.81648254394531 433.47299194335938
v 100.80461883544922 115.85647583007812 433.47299194335938
# 120 vertices

vn 1 0 0
vn 0 0 -1
vn -1 0 0
vn 0 0 1
# 4 normals

vt 0.008460954763 0.65111082792282 0
vt 0.008460954763 0.70603209733963 0
vt 0.34193480014801 0.70603209733963 0
vt 0.34193480014801 0.65111082792282 0
vt 0.70925241708756 0.36539649963379 0
vt 0.70925241708756 0.4203177690506 0
vt 0.97343301773071 0.4203177690506 0
vt 0.97343301773071 0.36539649963379 0
vt 0.70925241708756 0.65111082792282 0
vt 0.70925241708756 0.70603209733963 0
vt 0.97343301773071 0.70603209733963 0
vt 0.97343301773071 0.65111082792282 0
vt 0.35885670781136 0.5796822309494 0
vt 0.35885670781136 0.63460350036621 0
vt 0.69233053922653 0.63460350036621 0
vt 0.69233053922653 0.5796822309494 0
vt 0.35885670781136 0.43682515621185 0
vt 0.35885670781136 0.49174642562866 0
vt 0.69233053922653 0.49174642562866 0
vt 0.69233053922653 0.43682515621185 0
vt 0.008460954763 0.00825369358063 0
vt 0.008460954763 0.06317496299744 0
vt 0.34193480014801 0.06317496299744 0
vt 0.34193480014801 0.00825369358063 0
vt 0.008460954763 0.22253942489624 0
vt 0.008460954763 0.27746069431305 0
vt 0.34193480014801 0.27746069431305 0
vt 0.34193480014801 0.22253942489624 0
vt 0.008460954763 0.5796822309494 0
vt 0.008460954763 0.63460350036621 0
vt 0.34193480014801 0.63460350036621 0
vt 0.34193480014801 0.5796822309494 0
vt 0.70925241708756 0.29396796226501 0
vt 0.70925241708756 0.34888923168182 0
vt 0.97343301773071 0.34888923168182 0
vt 0.97343301773071 0.29396796226501 0
vt 0.008460954763 0.86539649963379 0
vt 0.008460954763 0.9203177690506 0
vt 0.36034080386162 0.9203177690506 0
vt 0.36034080386162 0.86539649963379 0
vt 0.99153906106949 0.9203177690506 0
vt 0.99153906106949 0.86539649963379 0
vt 0.008460954763 0.93682509660721 0
vt 0.008460954763 0.99174636602402 0
vt 0.36034080386162 0.99174636602402 0
vt 0.36034080386162 0.93682509660721 0
vt 0.99153906106949 0.99174636602402 0
vt 0.99153906106949 0.93682509660721 0
vt 0.70925241708756 0.5796822309494 0
vt 0.70925241708756 0.63460350036621 0
vt 0.97343301773071 0.63460350036621 0
vt 0.97343301773071 0.5796822309494 0
vt 0.35885670781136 0.50825363397598 0
vt 0.35885670781136 0.56317496299744 0
vt 0.69233053922653 0.56317496299744 0
vt 0.69233053922653 0.50825363397598 0
vt 0.35885670781136 0.36539649963379 0
vt 0.35885670781136 0.4203177690506 0
vt 0.69233053922653 0.4203177690506 0
vt 0.69233053922653 0.36539649963379 0
vt 0.35885670781136 0.00825369358063 0
vt 0.35885670781136 0.06317496299744 0
vt 0.69233053922653 0.06317496299744 0
vt 0.69233053922653 0.00825369358063 0
vt 0.35885670781136 0.22253942489624 0
vt 0.35885670781136 0.27746069431305 0
vt 0.69233053922653 0.27746069431305 0
vt 0.69233053922653 0.22253942489624 0
vt 0.008460954763 0.50825363397598 0
vt 0.008460954763 0.56317496299744 0
vt 0.34193480014801 0.56317496299744 0
vt 0.34193480014801 0.50825363397598 0
vt 0.70925241708756 0.22253942489624 0
vt 0.70925241708756 0.27746069431305 0
vt 0.97343301773071 0.27746069431305 0
vt 0.97343301773071 0.22253942489624 0
vt 0.70925241708756 0.50825363397598 0
vt 0.70925241708756 0.56317496299744 0
vt 0.97343301773071 0.56317496299744 0
vt 0.97343301773071 0.50825363397598 0
vt 0.008460954763 0.36539649963379 0
vt 0.008460954763 0.4203177690506 0
vt 0.34193480014801 0.4203177690506 0
vt 0.34193480014801 0.36539649963379 0
vt 0.008460954763 0.29396796226501 0
vt 0.008460954763 0.34888923168182 0
vt 0.34193480014801 0.34888923168182 0
vt 0.34193480014801 0.29396796226501 0
vt 0.008460954763 0.0796822309494 0
vt 0.008460954763 0.13460350036621 0
vt 0.34193480014801 0.13460350036621 0
vt 0.34193480014801 0.0796822309494 0
vt 0.008460954763 0.15111076831818 0
vt 0.008460954763 0.20603215694427 0
vt 0.34193480014801 0.20603215694427 0
vt 0.34193480014801 0.15111076831818 0
vt 0.008460954763 0.43682515621185 0
vt 0.008460954763 0.49174642562866 0
vt 0.34193480014801 0.49174642562866 0
vt 0.34193480014801 0.43682515621185 0
vt 0.70925241708756 0.43682515621185 0
vt 0.70925241708756 0.49174642562866 0
vt 0.97343301773071 0.49174642562866 0
vt 0.97343301773071 0.43682515621185 0
vt 0.70925241708756 0.15111076831818 0
vt 0.70925241708756 0.20603215694427 0
vt 0.97343301773071 0.20603215694427 0
vt 0.97343301773071 0.15111076831818 0
vt 0.35885670781136 0.65111082792282 0
vt 0.35885670781136 0.70603209733963 0
vt 0.69233053922653 0.70603209733963 0
vt 0.69233053922653 0.65111082792282 0
vt 0.008460954763 0.7225393652916 0
vt 0.008460954763 0.77746069431305 0
vt 0.63965916633606 0.77746069431305 0
vt 0.63965916633606 0.7225393652916 0
vt 0.35885670781136 0.29396796226501 0
vt 0.35885670781136 0.34888923168182 0
vt 0.69233053922653 0.34888923168182 0
vt 0.69233053922653 0.29396796226501 0
vt 0.99153906106949 0.77746069431305 0
vt 0.99153906106949 0.7225393652916 0
vt 0.35885670781136 0.0796822309494 0
vt 0.35885670781136 0.13460350036621 0
vt 0.69233053922653 0.13460350036621 0
vt 0.69233053922653 0.0796822309494 0
vt 0.008460954763 0.79396796226501 0
vt 0.008460954763 0.84888923168182 0
vt 0.63965916633606 0.84888923168182 0
vt 0.63965916633606 0.79396796226501 0
vt 0.35885670781136 0.15111076831818 0
vt 0.35885670781136 0.20603215694427 0
vt 0.69233053922653 0.20603215694427 0
vt 0.69233053922653 0.15111076831818 0
vt 0.99153906106949 0.84888923168182 0
vt 0.99153906106949 0.79396796226501 0
# 136 texture coordinates

o 配电大楼玻璃
usemtl 玻璃
f 45/4/1 46/3/1 42/2/1 41/1/1
f 53/8/1 54/7/1 50/6/1 49/5/1
f 7/12/1 8/11/1 4/10/1 3/9/1
f 15/16/1 16/15/1 12/14/1 11/13/1
f 23/20/1 24/19/1 20/18/1 19/17/1
f 31/24/1 32/23/1 28/22/1 27/21/1
f 39/28/1 40/27/1 36/26/1 35/25/1
f 47/32/1 48/31/1 44/30/1 43/29/1
f 55/36/1 56/35/1 52/34/1 51/33/1
f 57/40/2 58/39/2 54/38/2 53/37/2
f 61/42/2 62/41/2 58/39/2 57/40/2
f 59/46/2 60/45/2 56/44/2 55/43/2
f 63/48/2 64/47/2 60/45/2 59/46/2
f 65/52/3 66/51/3 62/50/3 61/49/3
f 73/56/3 74/55/3 70/54/3 69/53/3
f 81/60/3 82/59/3 78/58/3 77/57/3
f 89/64/3 90/63/3 86/62/3 85/61/3
f 97/68/3 98/67/3 94/66/3 93/65/3
f 105/72/3 106/71/3 102/70/3 101/69/3
f 113/76/3 114/75/3 110/74/3 109/73/3
f 67/80/3 68/79/3 64/78/3 63/77/3
f 75/84/3 76/83/3 72/82/3 71/81/3
f 83/88/3 84/87/3 80/86/3 79/85/3
f 91/92/3 92/91/3 88/90/3 87/89/3
f 99/96/3 100/95/3 96/94/3 95/93/3
f 107/100/3 108/99/3 104/98/3 103/97/3
f 5/104/1 6/103/1 2/102/1 1/101/1
f 115/108/3 116/107/3 112/106/3 111/105/3
f 13/112/1 14/111/1 10/110/1 9/109/1
f 117/116/4 118/115/4 114/114/4 113/113/4
f 21/120/1 22/119/1 18/118/1 17/117/1
f 1/122/4 2/121/4 118/115/4 117/116/4
f 29/126/1 30/125/1 26/124/1 25/123/1
f 119/130/4 120/129/4 116/128/4 115/127/4
f 37/134/1 38/133/1 34/132/1 33/131/1
f 3/136/4 4/135/4 120/129/4 119/130/4

