<?xml version="1.0" encoding="UTF-8"?>
<svg width="37px" height="36px" viewBox="0 0 37 36" version="1.1" xmlns="http://www.w3.org/2000/svg" xmlns:xlink="http://www.w3.org/1999/xlink">
    <!-- Generator: Sketch 53.1 (72631) - https://sketchapp.com -->
    <title>icon</title>
    <desc>Created with Sketch.</desc>
    <g id="Page-1" stroke="none" stroke-width="1" fill="none" fill-rule="evenodd" stroke-linecap="round" stroke-linejoin="round">
        <g id="设备详情" transform="translate(-941.000000, -942.000000)" stroke="#F4F7FF" stroke-width="2">
            <g id="中间电机" transform="translate(590.000000, 357.000000)">
                <g id="旋转电机" transform="translate(334.000000, 584.000000)">
                    <g id="icon" transform="translate(18.000000, 0.000000)">
                        <path d="M5.15425263,8.26427368 L5.15425263,23.3596421" id="Stroke-1"></path>
                        <g id="Group-6" transform="translate(3.789474, 1.490211)">
                            <path d="M1.36477895,6.77406316 L10.4917263,0.879536842" id="Stroke-2"></path>
                            <path d="M25.3856842,4.4352 L10.4930526,0.878778947" id="Stroke-4"></path>
                        </g>
                        <path d="M5.15425263,8.26427368 L19.3325684,12.4232211" id="Stroke-7"></path>
                        <path d="M19.3333263,12.4237895 L29.1745895,5.92484211" id="Stroke-8"></path>
                        <path d="M29.1751579,5.92541053 L29.1751579,21.1230947" id="Stroke-9"></path>
                        <path d="M19.3333263,12.4237895 L19.3333263,26.7896842" id="Stroke-10"></path>
                        <path d="M29.1751579,21.1240421 L19.3338947,26.7893053" id="Stroke-11"></path>
                        <path d="M5.15425263,23.3592632 L19.3325684,26.7906316" id="Stroke-12"></path>
                        <path d="M14.2817684,2.36917895 L14.2817684,16.5020211" id="Stroke-13"></path>
                        <path d="M5.15425263,23.3592632 L14.2812,16.5022105" id="Stroke-15"></path>
                        <path d="M29.1751579,21.1240421 L14.2825263,16.5027789" id="Stroke-16"></path>
                        <g id="Group-25" transform="translate(0.000000, 16.648105)">
                            <path d="M31.9136211,0.0388421053 C33.6018316,1.68536842 34.5776211,3.64073684 34.5776211,5.73821053 C34.5776211,10.9070526 28.6376211,15.2137895 20.7744632,16.1573684" id="Stroke-17"></path>
                            <path d="M16.7852842,16.3402105 C15.9326526,16.3174737 15.0970737,16.2568421 14.2823368,16.1583158 C6.41538947,15.2147368 0.473494737,10.9098947 0.473494737,5.73726316 C0.473494737,3.81789474 1.29391579,2.01221053 2.73012632,0.458526316" id="Stroke-19"></path>
                            <path d="M16.7852842,16.3402105 L15.0345474,14.2067368" id="Stroke-21"></path>
                            <path d="M16.7852842,16.3402105 L15.0345474,18.4736842" id="Stroke-23"></path>
                        </g>
                    </g>
                </g>
            </g>
        </g>
    </g>
</svg>