<?xml version="1.0" encoding="UTF-8"?>
<svg width="36px" height="36px" viewBox="0 0 36 36" version="1.1" xmlns="http://www.w3.org/2000/svg" xmlns:xlink="http://www.w3.org/1999/xlink">
    <!-- Generator: Sketch 53.1 (72631) - https://sketchapp.com -->
    <title>icon</title>
    <desc>Created with Sketch.</desc>
    <g id="Page-1" stroke="none" stroke-width="1" fill="none" fill-rule="evenodd">
        <g id="设备详情" transform="translate(-806.000000, -941.000000)">
            <g id="中间电机" transform="translate(590.000000, 357.000000)">
                <g id="返回设备列表" transform="translate(180.000000, 584.000000)">
                    <g id="icon" transform="translate(36.000000, 0.000000)">
                        <path d="M24.6433611,15.1213203 C25.0226961,14.9147705 25.5074954,14.9719615 25.8284271,15.2928932 C26.2189514,15.6834175 26.2189514,16.3165825 25.8284271,16.7071068 L21.5857864,20.9497475 C21.1952621,21.3402718 20.5620972,21.3402718 20.1715729,20.9497475 C19.7810486,20.5592232 19.7810486,19.9260582 20.1715729,19.5355339 L22.5857864,17.1213203 L11,17.1213203 C10.4477153,17.1213203 10,16.6736051 10,16.1213203 C10,15.5690356 10.4477153,15.1213203 11,15.1213203 L24.6433611,15.1213203 Z" fill="#F4F7FF" transform="translate(18.060660, 18.121320) rotate(-180.000000) translate(-18.060660, -18.121320) "></path>
                        <rect id="Rectangle" stroke="#ECEFF8" stroke-width="2" x="1" y="1" width="34" height="34" rx="4"></rect>
                    </g>
                </g>
            </g>
        </g>
    </g>
</svg>