# WaveFront *.obj file (generated by CINEMA 4D)

mtllib ./净水池.mtl

v -64.20314788818359 -53.36561584472656 82.07923889160156
v -64.20314788818359 35.80083084106445 82.07923889160156
v 65.58782196044922 -53.36561584472656 82.07923889160156
v 65.58782196044922 35.80083084106445 82.07923889160156
v 65.58782196044922 -53.36561584472656 -137.47523498535156
v 65.58782196044922 35.80083084106445 -137.47523498535156
v -64.20314788818359 -53.36561584472656 -137.47523498535156
v -64.20314788818359 35.80083084106445 -137.47523498535156
v -40.90314865112305 35.80083084106445 58.77923583984375
v 42.28782272338867 35.80083084106445 58.77923583984375
v 42.28782272338867 35.80083084106445 -114.17523956298828
v -40.90314865112305 35.80083084106445 -114.17523956298828
v -40.90314865112305 53.30202484130859 58.77923583984375
v 42.28782272338867 53.30202484130859 58.77923583984375
v 42.28782272338867 53.30202484130859 -114.17523956298828
v -40.90314865112305 53.30202484130859 -114.17523956298828
v -49.70314788818359 -53.36561584472656 82.07923889160156
v -49.70314788818359 6.79488706588745 82.07923889160156
v 51.08782196044922 -53.36561584472656 82.07923889160156
v 51.08782196044922 6.79488706588745 82.07923889160156
v -49.70314788818359 -53.36561584472656 131.19146728515625
v -49.70314788818359 6.79488706588745 131.19146728515625
v 51.08782196044922 -53.36561584472656 131.19146728515625
v 51.08782196044922 6.79488706588745 131.19146728515625
v -41.1031494140625 -53.36561584472656 131.19146728515625
v -41.1031494140625 -10.50467014312744 131.19146728515625
v 42.48782348632812 -53.36561584472656 131.19146728515625
v 42.48782348632812 -10.50467014312744 131.19146728515625
v -41.1031494140625 -53.36561584472656 123.29661560058594
v -41.1031494140625 -10.50467014312744 123.29661560058594
v 42.48782348632812 -53.36561584472656 123.29661560058594
v 42.48782348632812 -10.50467014312744 123.29661560058594
# 32 vertices

vn 0 0 1
vn 1 0 0
vn 0 0 -1
vn -1 0 0
vn 0 1 0
vn 0 -1 0
vn 0 0 0
# 7 normals

vt 0.78260040283203 0.89710468053818 0
vt 0.78260040283203 0.9909679889679 0
vt 0.95862501859665 0.9909679889679 0
vt 0.95862501859665 0.89710468053818 0
vt 0.00868489127606 0.08348679542542 0
vt 0.00868489127606 0.27875685691833 0
vt 0.47101947665215 0.27875685691833 0
vt 0.47101947665215 0.08348679542542 0
vt 0.48838925361633 0.08348679542542 0
vt 0.48838925361633 0.27875685691833 0
vt 0.76170116662979 0.27875685691833 0
vt 0.76170116662979 0.08348679542542 0
vt 0.00868489127606 0.29682087898254 0
vt 0.00868489127606 0.49209082126617 0
vt 0.47101947665215 0.49209082126617 0
vt 0.47101947665215 0.29682087898254 0
vt 0.59004831314087 0.61220645904541 0
vt 0.59004831314087 0.9909679889679 0
vt 0.76523059606552 0.9909679889679 0
vt 0.76523059606552 0.61220645904541 0
vt 0.2993665933609 0.51015484333038 0
vt 0.2993665933609 0.9909679889679 0
vt 0.57267850637436 0.9909679889679 0
vt 0.57267850637436 0.51015484333038 0
vt 0.00868489127606 0.51015484333038 0
vt 0.05774968862534 0.5611806511879 0
vt 0.23293201625347 0.5611806511879 0
vt 0.28199681639671 0.51015484333038 0
vt 0.23293201625347 0.93994218111038 0
vt 0.28199681639671 0.9909679889679 0
vt 0.05774968862534 0.93994218111038 0
vt 0.00868489127606 0.9909679889679 0
vt 0.59004831314087 0.55581569671631 0
vt 0.59004831314087 0.5941424369812 0
vt 0.76523059606552 0.5941424369812 0
vt 0.76523059606552 0.55581569671631 0
vt 0.00868489127606 0.02709603309631 0
vt 0.00868489127606 0.06542277336121 0
vt 0.37288987636566 0.06542277336121 0
vt 0.37288987636566 0.02709603309631 0
vt 0.77183443307877 0.02709603309631 0
vt 0.77183443307877 0.06542277336121 0
vt 0.94701677560806 0.06542277336121 0
vt 0.94701677560806 0.02709603309631 0
vt 0.39025965332985 0.02709603309631 0
vt 0.39025965332985 0.06542277336121 0
vt 0.7544646859169 0.06542277336121 0
vt 0.7544646859169 0.02709603309631 0
vt 0.00868489127606 0.0090320110321 0
vt 0.18386721611023 0.0090320110321 0
vt 0.7790709733963 0.09104371070862 0
vt 0.37641933560371 0.0090320110321 0
vt 0.20123699307442 0.0090320110321 0
vt 0.79644072055817 0.09104371070862 0
vt 0.3937891125679 0.0090320110321 0
vt 0.42432299256325 0.0090320110321 0
vt 0.63656711578369 0.0090320110321 0
vt 0.66710102558136 0.0090320110321 0
vt 0.76170116662979 0.29682087898254 0
vt 0.73116731643677 0.29682087898254 0
vt 0.73116731643677 0.42856931686401 0
vt 0.76170116662979 0.49209082126617 0
vt 0.518923163414 0.42856931686401 0
vt 0.48838925361633 0.49209082126617 0
vt 0.518923163414 0.29682087898254 0
vt 0.48838925361633 0.29682087898254 0
vt 0.7790709733963 0.10910773277283 0
vt 0.7790709733963 0.21666097640991 0
vt 0.99131512641907 0.21666097640991 0
vt 0.99131512641907 0.10910773277283 0
vt 0.88602024316788 0.59747976064682 0
vt 0.78260040283203 0.59747976064682 0
vt 0.78260040283203 0.72922819852829 0
vt 0.88602024316788 0.72922819852829 0
vt 0.99131512641907 0.3422783613205 0
vt 0.99131512641907 0.23472499847412 0
vt 0.7790709733963 0.23472499847412 0
vt 0.7790709733963 0.3422783613205 0
vt 0.78260040283203 0.87904065847397 0
vt 0.88602024316788 0.87904065847397 0
vt 0.88602024316788 0.7472922205925 0
vt 0.78260040283203 0.7472922205925 0
vt 0.68447083234787 0.0090320110321 0
vt 0.70258057117462 0.0090320110321 0
vt 0.87860518693924 0.0090320110321 0
vt 0.89671492576599 0.0090320110321 0
vt 0.99131512641907 0.3603423833847 0
vt 0.97320532798767 0.3603423833847 0
vt 0.97320532798767 0.45420563220978 0
vt 0.99131512641907 0.49209082126617 0
vt 0.79718071222305 0.45420563220978 0
vt 0.7790709733963 0.49209082126617 0
vt 0.79718071222305 0.3603423833847 0
vt 0.7790709733963 0.3603423833847 0
vt 0.59004831314087 0.52046239376068 0
vt 0.59004831314087 0.53775173425674 0
vt 0.76607292890549 0.53775173425674 0
vt 0.76607292890549 0.52046239376068 0
vt 0.92001485824585 0.78517735004425 0
vt 0.90338999032974 0.78517735004425 0
vt 0.90338999032974 0.87904065847397 0
vt 0.92001485824585 0.87904065847397 0
vt 0.95946735143662 0.53775173425674 0
vt 0.95946735143662 0.52046239376068 0
vt 0.783442735672 0.52046239376068 0
vt 0.783442735672 0.53775173425674 0
vt 0.90338999032974 0.76711332798004 0
vt 0.92001485824585 0.76711332798004 0
vt 0.92001485824585 0.67325007915497 0
vt 0.90338999032974 0.67325007915497 0
vt 0.783442735672 0.55581569671631 0
vt 0.95946735143662 0.55581569671631 0
vt 0.93738466501236 0.78517735004425 0
vt 0.93738466501236 0.87904065847397 0
vt 0.95946735143662 0.57387971878052 0
vt 0.783442735672 0.57387971878052 0
vt 0.93738466501236 0.76711332798004 0
vt 0.93738466501236 0.67325007915497 0
# 118 texture coordinates

o 净水池
usemtl 净水池
f 31/4/1 32/3/1 30/2/1 29/1/1
f 5/8/2 6/7/2 4/6/2 3/5/2
f 7/12/3 8/11/3 6/10/3 5/9/3
f 1/16/4 2/15/4 8/14/4 7/13/4
f 14/20/5 15/19/5 16/18/5 13/17/5
f 5/24/6 3/23/6 1/22/6 7/21/6
f 4/28/5 10/27/5 9/26/5 2/25/5
f 6/30/5 11/29/5 10/27/5 4/28/5
f 8/32/5 12/31/5 11/29/5 6/30/5
f 2/25/5 9/26/5 12/31/5 8/32/5
f 10/36/1 14/35/1 13/34/1 9/33/1
f 11/40/2 15/39/2 14/38/2 10/37/2
f 12/44/3 16/43/3 15/42/3 11/41/3
f 9/48/4 13/47/4 16/46/4 12/45/4
f 14/50/7 13/49/7 13/49/7
f 15/51/7 14/51/7 14/51/7
f 16/53/7 15/52/7 15/52/7
f 13/54/7 16/54/7 16/54/7
f 3/58/7 19/57/7 17/56/7 1/55/7
f 4/62/1 20/61/1 19/60/1 3/59/1
f 2/64/1 18/63/1 20/61/1 4/62/1
f 1/66/1 17/65/1 18/63/1 2/64/1
f 19/70/6 23/69/6 21/68/6 17/67/6
f 20/74/2 24/73/2 23/72/2 19/71/2
f 18/78/5 22/77/5 24/76/5 20/75/5
f 17/82/4 21/81/4 22/80/4 18/79/4
f 23/86/7 27/85/7 25/84/7 21/83/7
f 24/90/1 28/89/1 27/88/1 23/87/1
f 22/92/1 26/91/1 28/89/1 24/90/1
f 21/94/1 25/93/1 26/91/1 22/92/1
f 27/98/5 31/97/5 29/96/5 25/95/5
f 28/102/4 32/101/4 31/100/4 27/99/4
f 26/106/6 30/105/6 32/104/6 28/103/6
f 25/110/2 29/109/2 30/108/2 26/107/2
f 31/112/7 29/111/7 29/111/7
f 32/114/7 31/113/7 31/113/7
f 30/116/7 32/115/7 32/115/7
f 29/118/7 30/117/7 30/117/7

