# WaveFront *.obj file (generated by CINEMA 4D)

mtllib ./大楼柱子.mtl

v -16.34627151489258 -0.05803367868066 13.95994758605957
v -16.34627151489258 27.80286598205566 13.95994758605957
v -16.34627151489258 53.51715087890625 13.95994758605957
v -16.34627151489258 79.23143768310547 13.95994758605957
v -16.34627151489258 104.94572448730469 13.95994758605957
v -16.34627151489258 130.66000366210938 13.95994758605957
v -16.34627151489258 156.37429809570312 13.95994758605957
v -16.34627151489258 182.08857727050781 13.95994758605957
v 13.65372848510742 -0.05803367868066 13.95994758605957
v 13.65372848510742 27.80286598205566 13.95994758605957
v 13.65372848510742 53.51715087890625 13.95994758605957
v 13.65372848510742 79.23143768310547 13.95994758605957
v 13.65372848510742 104.94572448730469 13.95994758605957
v 13.65372848510742 130.66000366210938 13.95994758605957
v 13.65372848510742 156.37429809570312 13.95994758605957
v 13.65372848510742 182.08857727050781 13.95994758605957
v 13.65372848510742 -0.05803367868066 -16.04005241394043
v 13.65372848510742 27.80286598205566 -16.04005241394043
v 13.65372848510742 53.51715087890625 -16.04005241394043
v 13.65372848510742 79.23143768310547 -16.04005241394043
v 13.65372848510742 104.94572448730469 -16.04005241394043
v 13.65372848510742 130.66000366210938 -16.04005241394043
v 13.65372848510742 156.37429809570312 -16.04005241394043
v 13.65372848510742 182.08857727050781 -16.04005241394043
v -16.34627151489258 -0.05803367868066 -16.04005241394043
v -16.34627151489258 27.80286598205566 -16.04005241394043
v -16.34627151489258 53.51715087890625 -16.04005241394043
v -16.34627151489258 79.23143768310547 -16.04005241394043
v -16.34627151489258 104.94572448730469 -16.04005241394043
v -16.34627151489258 130.66000366210938 -16.04005241394043
v -16.34627151489258 156.37429809570312 -16.04005241394043
v -16.34627151489258 182.08857727050781 -16.04005241394043
v -16.34627151489258 10.78858089447021 -7.34005212783813
v -16.34627151489258 19.10286712646484 -7.34005212783813
v -16.34627151489258 19.10286712646484 5.25994777679443
v -16.34627151489258 10.78858089447021 5.25994777679443
v -16.34627151489258 36.50286483764648 -7.34005212783813
v -16.34627151489258 44.81715393066406 -7.34005212783813
v -16.34627151489258 44.81715393066406 5.25994777679443
v -16.34627151489258 36.50286483764648 5.25994777679443
v -16.34627151489258 62.2171516418457 -7.34005212783813
v -16.34627151489258 70.53144073486328 -7.34005212783813
v -16.34627151489258 70.53144073486328 5.25994777679443
v -16.34627151489258 62.2171516418457 5.25994777679443
v -16.34627151489258 87.93143463134766 -7.34005212783813
v -16.34627151489258 96.24571990966797 -7.34005212783813
v -16.34627151489258 96.24571990966797 5.25994777679443
v -16.34627151489258 87.93143463134766 5.25994777679443
v -16.34627151489258 113.64572143554688 -7.34005212783813
v -16.34627151489258 121.96000671386719 -7.34005212783813
v -16.34627151489258 121.96000671386719 5.25994777679443
v -16.34627151489258 113.64572143554688 5.25994777679443
v -16.34627151489258 139.36001586914062 -7.34005212783813
v -16.34627151489258 147.67430114746094 -7.34005212783813
v -16.34627151489258 147.67430114746094 5.25994777679443
v -16.34627151489258 139.36001586914062 5.25994777679443
v -16.34627151489258 165.07429504394531 -7.34005212783813
v -16.34627151489258 173.38858032226562 -7.34005212783813
v -16.34627151489258 173.38858032226562 5.25994777679443
v -16.34627151489258 165.07429504394531 5.25994777679443
v -13.97948455810547 10.78858089447021 -6.14327764511108
v -13.97948455810547 19.10286712646484 -6.14327764511108
v -13.97948455810547 19.10286712646484 6.45672225952148
v -13.97948455810547 10.78858089447021 6.45672225952148
v -13.97948455810547 36.50286483764648 -6.14327764511108
v -13.97948455810547 44.81715393066406 -6.14327764511108
v -13.97948455810547 44.81715393066406 6.45672225952148
v -13.97948455810547 36.50286483764648 6.45672225952148
v -13.97948455810547 62.2171516418457 -6.14327764511108
v -13.97948455810547 70.53144073486328 -6.14327764511108
v -13.97948455810547 70.53144073486328 6.45672225952148
v -13.97948455810547 62.2171516418457 6.45672225952148
v -13.97948455810547 87.93143463134766 -6.14327764511108
v -13.97948455810547 96.24571990966797 -6.14327764511108
v -13.97948455810547 96.24571990966797 6.45672225952148
v -13.97948455810547 87.93143463134766 6.45672225952148
v -13.97948455810547 113.64572143554688 -6.14327764511108
v -13.97948455810547 121.96000671386719 -6.14327764511108
v -13.97948455810547 121.96000671386719 6.45672225952148
v -13.97948455810547 113.64572143554688 6.45672225952148
v -13.97948455810547 139.36001586914062 -6.14327764511108
v -13.97948455810547 147.67430114746094 -6.14327764511108
v -13.97948455810547 147.67430114746094 6.45672225952148
v -13.97948455810547 139.36001586914062 6.45672225952148
v -13.97948455810547 165.07429504394531 -6.14327764511108
v -13.97948455810547 173.38858032226562 -6.14327764511108
v -13.97948455810547 173.38858032226562 6.45672225952148
v -13.97948455810547 165.07429504394531 6.45672225952148
v -15.37999057769775 -0.05803367868066 13.95994758605957
v -15.37999057769775 17.99707794189453 13.95994758605957
v -0.93640226125717 17.99707794189453 13.95994758605957
v -0.93640226125717 -0.05803367868066 13.95994758605957
v -0.93640226125717 -0.05803367868066 -16.04005241394043
v -0.93640226125717 17.99707794189453 -16.04005241394043
v -15.37999057769775 17.99707794189453 -16.04005241394043
v -15.37999057769775 -0.05803367868066 -16.04005241394043
v -15.37999057769775 -0.05803367868066 18.88994789123535
v -15.37999057769775 17.99707794189453 18.88994789123535
v -0.93640226125717 17.99707794189453 18.88994789123535
v -0.93640226125717 -0.05803367868066 18.88994789123535
v -0.93640226125717 -0.05803367868066 -20.97005271911621
v -0.93640226125717 17.99707794189453 -20.97005271911621
v -15.37999057769775 17.99707794189453 -20.97005271911621
v -15.37999057769775 -0.05803367868066 -20.97005271911621
v -12.84998989105225 -0.05803367868066 18.88994789123535
v -12.84998989105225 12.92737579345703 18.88994789123535
v -3.46640229225159 12.92737579345703 18.88994789123535
v -3.46640229225159 -0.05803367868066 18.88994789123535
v -3.46640229225159 -0.05803367868066 -20.97005271911621
v -3.46640229225159 12.92737579345703 -20.97005271911621
v -12.84998989105225 12.92737579345703 -20.97005271911621
v -12.84998989105225 -0.05803367868066 -20.97005271911621
v -12.84998989105225 -0.05803367868066 12.88994789123535
v -12.84998989105225 12.92737579345703 12.88994789123535
v -3.46640229225159 12.92737579345703 12.88994789123535
v -3.46640229225159 -0.05803367868066 12.88994789123535
v -3.46640229225159 -0.05803367868066 -14.97005176544189
v -3.46640229225159 12.92737579345703 -14.97005176544189
v -12.84998989105225 12.92737579345703 -14.97005176544189
v -12.84998989105225 -0.05803367868066 -14.97005176544189
# 120 vertices

vn 0 -1 0
vn 0 0 1
vn 1 0 0
vn -1 0 0
vn 0 0 -1
vn 0 1 0
vn 0.45124533772469 0 -0.89239996671677
vn -0.45124533772469 0 0.89239996671677
vn 0.45124530792236 0 -0.89239996671677
vn -0.45124530792236 0 0.89239996671677
vn 0.45124527812004 0 -0.89239996671677
vn -0.45124527812004 0 0.89239996671677
vn 0 0 0
# 13 normals

vt 0.90978914499283 0.7751053571701 0
vt 0.90978914499283 0.80690366029739 0
vt 0.96060734987259 0.80690366029739 0
vt 0.96060734987259 0.7751053571701 0
vt 0.00885831657797 0.17366087436676 0
vt 0.00885831657797 0.30993938446045 0
vt 0.17132784426212 0.30993938446045 0
vt 0.17132784426212 0.17366087436676 0
vt 0.00885831657797 0.44621777534485 0
vt 0.17132784426212 0.44621777534485 0
vt 0.00885831657797 0.5824961066246 0
vt 0.17132784426212 0.5824961066246 0
vt 0.00885831657797 0.718774497509 0
vt 0.17132784426212 0.718774497509 0
vt 0.00885831657797 0.85505294799805 0
vt 0.17132784426212 0.85505294799805 0
vt 0.00885831657797 0.99133133888245 0
vt 0.17132784426212 0.99133133888245 0
vt 0.5494167804718 0.02600610256195 0
vt 0.5494167804718 0.17366087436676 0
vt 0.71188634634018 0.17366087436676 0
vt 0.71188634634018 0.02600610256195 0
vt 0.5494167804718 0.30993938446045 0
vt 0.71188634634018 0.30993938446045 0
vt 0.5494167804718 0.44621777534485 0
vt 0.71188634634018 0.44621777534485 0
vt 0.5494167804718 0.5824961066246 0
vt 0.71188634634018 0.5824961066246 0
vt 0.5494167804718 0.718774497509 0
vt 0.71188634634018 0.718774497509 0
vt 0.5494167804718 0.85505294799805 0
vt 0.71188634634018 0.85505294799805 0
vt 0.5494167804718 0.99133133888245 0
vt 0.71188634634018 0.99133133888245 0
vt 0.86995679140091 0.63867366313934 0
vt 0.90245074033737 0.63867366313934 0
vt 0.90245074033737 0.56985467672348 0
vt 0.86995679140091 0.56985467672348 0
vt 0.18904447555542 0.17366087436676 0
vt 0.18904447555542 0.30993938446045 0
vt 0.35151401162148 0.30993938446045 0
vt 0.35151401162148 0.17366087436676 0
vt 0.18904447555542 0.44621777534485 0
vt 0.35151401162148 0.44621777534485 0
vt 0.18904447555542 0.5824961066246 0
vt 0.35151401162148 0.5824961066246 0
vt 0.18904447555542 0.718774497509 0
vt 0.35151401162148 0.718774497509 0
vt 0.18904447555542 0.85505294799805 0
vt 0.35151401162148 0.85505294799805 0
vt 0.18904447555542 0.99133133888245 0
vt 0.35151401162148 0.99133133888245 0
vt 0.82851940393448 0.36856162548065 0
vt 0.82851940393448 0.4126250743866 0
vt 0.89675664901733 0.4126250743866 0
vt 0.89675664901733 0.36856162548065 0
vt 0.73608428239822 0.18435955047607 0
vt 0.73608428239822 0.22842288017273 0
vt 0.80432146787643 0.22842288017273 0
vt 0.80432146787643 0.18435955047607 0
vt 0.73608428239822 0.24576020240784 0
vt 0.73608428239822 0.28982365131378 0
vt 0.80432146787643 0.28982365131378 0
vt 0.80432146787643 0.24576020240784 0
vt 0.82851940393448 0.30716097354889 0
vt 0.82851940393448 0.35122430324554 0
vt 0.89675664901733 0.35122430324554 0
vt 0.89675664901733 0.30716097354889 0
vt 0.73608428239822 0.12295877933502 0
vt 0.73608428239822 0.16702210903168 0
vt 0.80432146787643 0.16702210903168 0
vt 0.80432146787643 0.12295877933502 0
vt 0.73608428239822 0.30716097354889 0
vt 0.73608428239822 0.35122430324554 0
vt 0.80432146787643 0.35122430324554 0
vt 0.80432146787643 0.30716097354889 0
vt 0.73608428239822 0.36856162548065 0
vt 0.73608428239822 0.4126250743866 0
vt 0.80432146787643 0.4126250743866 0
vt 0.80432146787643 0.36856162548065 0
vt 0.72960293292999 0.6560110449791 0
vt 0.72960293292999 0.81500250101089 0
vt 0.89207249879837 0.81500250101089 0
vt 0.89207249879837 0.6560110449791 0
vt 0.72960293292999 0.83233988285065 0
vt 0.72960293292999 0.99133133888245 0
vt 0.89207249879837 0.99133133888245 0
vt 0.89207249879837 0.83233988285065 0
vt 0.36923062801361 0.02600610256195 0
vt 0.41634678840637 0.08349001407623 0
vt 0.4845840036869 0.08349001407623 0
vt 0.53170019388199 0.02600610256195 0
vt 0.36923062801361 0.17366087436676 0
vt 0.41634678840637 0.12755334377289 0
vt 0.53170019388199 0.17366087436676 0
vt 0.4845840036869 0.12755334377289 0
vt 0.41634678840637 0.21976840496063 0
vt 0.4845840036869 0.21976840496063 0
vt 0.36923062801361 0.30993938446045 0
vt 0.41634678840637 0.26383185386658 0
vt 0.53170019388199 0.30993938446045 0
vt 0.4845840036869 0.26383185386658 0
vt 0.41634678840637 0.35604691505432 0
vt 0.4845840036869 0.35604691505432 0
vt 0.36923062801361 0.44621777534485 0
vt 0.41634678840637 0.40011024475098 0
vt 0.53170019388199 0.44621777534485 0
vt 0.4845840036869 0.40011024475098 0
vt 0.41634678840637 0.49232530593872 0
vt 0.4845840036869 0.49232530593872 0
vt 0.36923062801361 0.5824961066246 0
vt 0.41634678840637 0.53638857603073 0
vt 0.53170019388199 0.5824961066246 0
vt 0.4845840036869 0.53638857603073 0
vt 0.41634678840637 0.62860363721848 0
vt 0.4845840036869 0.62860363721848 0
vt 0.36923062801361 0.718774497509 0
vt 0.41634678840637 0.67266702651978 0
vt 0.53170019388199 0.718774497509 0
vt 0.4845840036869 0.67266702651978 0
vt 0.41634678840637 0.76488208770752 0
vt 0.4845840036869 0.76488208770752 0
vt 0.36923062801361 0.85505294799805 0
vt 0.41634678840637 0.80894541740417 0
vt 0.53170019388199 0.85505294799805 0
vt 0.4845840036869 0.80894541740417 0
vt 0.41634678840637 0.90116047859192 0
vt 0.4845840036869 0.90116047859192 0
vt 0.36923062801361 0.99133133888245 0
vt 0.41634678840637 0.94522380828857 0
vt 0.53170019388199 0.99133133888245 0
vt 0.4845840036869 0.94522380828857 0
vt 0.91086971759796 0.28982365131378 0
vt 0.92368739843369 0.28348100185394 0
vt 0.92368739843369 0.21670460700989 0
vt 0.91086971759796 0.22304713726044 0
vt 0.99114167690277 0.81197595596313 0
vt 0.97832399606705 0.81197595596313 0
vt 0.97832399606705 0.85603928565979 0
vt 0.99114167690277 0.85603928565979 0
vt 0.91086971759796 0.19302463531494 0
vt 0.92368739843369 0.19936728477478 0
vt 0.92368739843369 0.13259077072144 0
vt 0.91086971759796 0.12624824047089 0
vt 0.82203811407089 0.4126250743866 0
vt 0.82203811407089 0.36856162548065 0
vt 0.93536055088043 0.55681729316711 0
vt 0.94817823171616 0.55047476291656 0
vt 0.94817823171616 0.48369836807251 0
vt 0.93536055088043 0.49004089832306 0
vt 0.99114167690277 0.87337672710419 0
vt 0.97832399606705 0.87337672710419 0
vt 0.97832399606705 0.91744005680084 0
vt 0.99114167690277 0.91744005680084 0
vt 0.93536055088043 0.64093112945557 0
vt 0.94817823171616 0.64727365970612 0
vt 0.94817823171616 0.58049726486206 0
vt 0.93536055088043 0.57415467500687 0
vt 0.72960293292999 0.22842288017273 0
vt 0.72960293292999 0.18435955047607 0
vt 0.8255410194397 0.15261280536652 0
vt 0.83835870027542 0.14627027511597 0
vt 0.83835870027542 0.07949388027191 0
vt 0.8255410194397 0.08583641052246 0
vt 0.98475605249405 0.06484758853912 0
vt 0.97193837165833 0.06484758853912 0
vt 0.97193837165833 0.10891091823578 0
vt 0.98475605249405 0.10891091823578 0
vt 0.94140404462814 0.19302463531494 0
vt 0.95422172546387 0.19936728477478 0
vt 0.95422172546387 0.13259077072144 0
vt 0.94140404462814 0.12624824047089 0
vt 0.72960293292999 0.28982365131378 0
vt 0.72960293292999 0.24576020240784 0
vt 0.96589487791061 0.46636092662811 0
vt 0.97871255874634 0.46001839637756 0
vt 0.97871255874634 0.39324200153351 0
vt 0.96589487791061 0.39958453178406 0
vt 0.99114167690277 0.68917453289032 0
vt 0.97832399606705 0.68917453289032 0
vt 0.97832399606705 0.73323792219162 0
vt 0.99114167690277 0.73323792219162 0
vt 0.97193837165833 0.28348100185394 0
vt 0.98475605249405 0.28982365131378 0
vt 0.98475605249405 0.22304713726044 0
vt 0.97193837165833 0.21670460700989 0
vt 0.82203811407089 0.35122430324554 0
vt 0.82203811407089 0.30716097354889 0
vt 0.96589487791061 0.64727365970612 0
vt 0.97871255874634 0.64093112945557 0
vt 0.97871255874634 0.57415467500687 0
vt 0.96589487791061 0.58049726486206 0
vt 0.99114167690277 0.75057524442673 0
vt 0.97832399606705 0.75057524442673 0
vt 0.97832399606705 0.79463863372803 0
vt 0.99114167690277 0.79463863372803 0
vt 0.96589487791061 0.55047476291656 0
vt 0.97871255874634 0.55681729316711 0
vt 0.97871255874634 0.49004089832306 0
vt 0.96589487791061 0.48369836807251 0
vt 0.72960293292999 0.16702210903168 0
vt 0.72960293292999 0.12295877933502 0
vt 0.97193837165833 0.19936728477478 0
vt 0.98475605249405 0.19302463531494 0
vt 0.98475605249405 0.12624824047089 0
vt 0.97193837165833 0.13259077072144 0
vt 0.97281736135483 0.94726794958115 0
vt 0.9599996805191 0.94726794958115 0
vt 0.9599996805191 0.99133133888245 0
vt 0.97281736135483 0.99133133888245 0
vt 0.94140404462814 0.10256838798523 0
vt 0.95422172546387 0.10891091823578 0
vt 0.95422172546387 0.04213452339172 0
vt 0.94140404462814 0.03579187393188 0
vt 0.72960293292999 0.35122430324554 0
vt 0.72960293292999 0.30716097354889 0
vt 0.93536055088043 0.422896027565 0
vt 0.94817823171616 0.41655349731445 0
vt 0.94817823171616 0.34977698326111 0
vt 0.93536055088043 0.35611963272095 0
vt 0.97871255874634 0.33184123039246 0
vt 0.96589487791061 0.33184123039246 0
vt 0.96589487791061 0.3759046792984 0
vt 0.97871255874634 0.3759046792984 0
vt 0.94140404462814 0.28348100185394 0
vt 0.95422172546387 0.28982365131378 0
vt 0.95422172546387 0.22304713726044 0
vt 0.94140404462814 0.21670460700989 0
vt 0.72960293292999 0.4126250743866 0
vt 0.72960293292999 0.36856162548065 0
vt 0.72960293292999 0.0186915397644 0
vt 0.73483598232269 0.0186915397644 0
vt 0.81305742263794 0.0186915397644 0
vt 0.89207249879837 0.0186915397644 0
vt 0.01409136131406 0.12169301509857 0
vt 0.01409136131406 0.02600610256195 0
vt 0.00885831657797 0.02600610256195 0
vt 0.09231279045343 0.12169301509857 0
vt 0.17132784426212 0.02600610256195 0
vt 0.09231279045343 0.02600610256195 0
vt 0.17132784426212 0.00866866111755 0
vt 0.09231279045343 0.00866866111755 0
vt 0.01409136131406 0.00866866111755 0
vt 0.00885831657797 0.00866866111755 0
vt 0.26805952191353 0.12169301509857 0
vt 0.26805952191353 0.02600610256195 0
vt 0.18904447555542 0.02600610256195 0
vt 0.34628096222878 0.12169301509857 0
vt 0.35151401162148 0.02600610256195 0
vt 0.34628096222878 0.02600610256195 0
vt 0.72960293292999 0.07949388027191 0
vt 0.72960293292999 0.10562145709991 0
vt 0.80782437324524 0.10562145709991 0
vt 0.80782437324524 0.07949388027191 0
vt 0.8522402048111 0.54298669099808 0
vt 0.8255410194397 0.54298669099808 0
vt 0.8255410194397 0.63867366313934 0
vt 0.8522402048111 0.63867366313934 0
vt 0.90376245975494 0.06215643882751 0
vt 0.90376245975494 0.03602886199951 0
vt 0.8255410194397 0.03602886199951 0
vt 0.8255410194397 0.06215643882751 0
vt 0.8255410194397 0.52564930915833 0
vt 0.8522402048111 0.52564930915833 0
vt 0.8522402048111 0.4299623966217 0
vt 0.8255410194397 0.4299623966217 0
vt 0.80782437324524 0.06215643882751 0
vt 0.80782437324524 0.03602886199951 0
vt 0.72960293292999 0.03602886199951 0
vt 0.72960293292999 0.06215643882751 0
vt 0.8931530714035 0.19413661956787 0
vt 0.8664538860321 0.19413661956787 0
vt 0.8664538860321 0.28982365131378 0
vt 0.8931530714035 0.28982365131378 0
vt 0.86995679140091 0.44023334980011 0
vt 0.86995679140091 0.46636092662811 0
vt 0.94817823171616 0.46636092662811 0
vt 0.94817823171616 0.44023334980011 0
vt 0.82203811407089 0.28982365131378 0
vt 0.84873723983765 0.28982365131378 0
vt 0.84873723983765 0.19413661956787 0
vt 0.82203811407089 0.19413661956787 0
vt 0.72960293292999 0.4299623966217 0
vt 0.74330455064774 0.4299623966217 0
vt 0.79412281513214 0.4299623966217 0
vt 0.80782437324524 0.4299623966217 0
vt 0.72960293292999 0.52564930915833 0
vt 0.74330455064774 0.49878132343292 0
vt 0.80782437324524 0.52564930915833 0
vt 0.79412281513214 0.49878132343292 0
vt 0.99114167690277 0.67183715105057 0
vt 0.97744005918503 0.67183715105057 0
vt 0.92662185430527 0.67183715105057 0
vt 0.91292023658752 0.67183715105057 0
vt 0.72960293292999 0.63867366313934 0
vt 0.74330455064774 0.61180567741394 0
vt 0.74330455064774 0.54298669099808 0
vt 0.72960293292999 0.54298669099808 0
vt 0.80782437324524 0.63867366313934 0
vt 0.79412281513214 0.61180567741394 0
vt 0.80782437324524 0.54298669099808 0
vt 0.79412281513214 0.54298669099808 0
vt 0.90978914499283 0.72596973180771 0
vt 0.90978914499283 0.757768034935 0
vt 0.96060734987259 0.757768034935 0
vt 0.96060734987259 0.72596973180771 0
vt 0.94228303432465 0.92251235246658 0
vt 0.90978914499283 0.92251235246658 0
vt 0.90978914499283 0.99133133888245 0
vt 0.94228303432465 0.99133133888245 0
vt 0.96060734987259 0.90517497062683 0
vt 0.96060734987259 0.87337672710419 0
vt 0.90978914499283 0.87337672710419 0
vt 0.90978914499283 0.90517497062683 0
vt 0.86995679140091 0.55251729488373 0
vt 0.90245074033737 0.55251729488373 0
vt 0.90245074033737 0.48369836807251 0
vt 0.86995679140091 0.48369836807251 0
vt 0.96060734987259 0.85603928565979 0
vt 0.96060734987259 0.82424104213715 0
vt 0.90978914499283 0.82424104213715 0
vt 0.90978914499283 0.85603928565979 0
vt 0.8931530714035 0.10798025131226 0
vt 0.86065912246704 0.10798025131226 0
vt 0.86065912246704 0.17679929733276 0
vt 0.8931530714035 0.17679929733276 0
# 326 texture coordinates

o 大楼柱子
usemtl 大楼柱子.1
f 110/4/1 118/3/1 119/2/1 111/1/1
f 10/8/2 11/7/2 3/6/2 2/5/2
f 11/7/2 12/10/2 4/9/2 3/6/2
f 12/10/2 13/12/2 5/11/2 4/9/2
f 13/12/2 14/14/2 6/13/2 5/11/2
f 14/14/2 15/16/2 7/15/2 6/13/2
f 15/16/2 16/18/2 8/17/2 7/15/2
f 17/22/3 18/21/3 10/20/3 9/19/3
f 18/21/3 19/24/3 11/23/3 10/20/3
f 19/24/3 20/26/3 12/25/3 11/23/3
f 20/26/3 21/28/3 13/27/3 12/25/3
f 21/28/3 22/30/3 14/29/3 13/27/3
f 22/30/3 23/32/3 15/31/3 14/29/3
f 23/32/3 24/34/3 16/33/3 15/31/3
f 109/38/4 117/37/4 118/36/4 110/35/4
f 26/42/5 27/41/5 19/40/5 18/39/5
f 27/41/5 28/44/5 20/43/5 19/40/5
f 28/44/5 29/46/5 21/45/5 20/43/5
f 29/46/5 30/48/5 22/47/5 21/45/5
f 30/48/5 31/50/5 23/49/5 22/47/5
f 31/50/5 32/52/5 24/51/5 23/49/5
f 64/56/4 63/55/4 62/54/4 61/53/4
f 68/60/4 67/59/4 66/58/4 65/57/4
f 72/64/4 71/63/4 70/62/4 69/61/4
f 76/68/4 75/67/4 74/66/4 73/65/4
f 80/72/4 79/71/4 78/70/4 77/69/4
f 84/76/4 83/75/4 82/74/4 81/73/4
f 88/80/4 87/79/4 86/78/4 85/77/4
f 16/84/6 24/83/6 32/82/6 8/81/6
f 17/88/1 9/87/1 1/86/1 25/85/1
f 1/92/4 36/91/4 33/90/4 25/89/4
f 25/89/4 33/90/4 34/94/4 26/93/4
f 26/93/4 34/94/4 35/96/4 2/95/4
f 2/95/4 35/96/4 36/91/4 1/92/4
f 2/95/4 40/98/4 37/97/4 26/93/4
f 26/93/4 37/97/4 38/100/4 27/99/4
f 27/99/4 38/100/4 39/102/4 3/101/4
f 3/101/4 39/102/4 40/98/4 2/95/4
f 3/101/4 44/104/4 41/103/4 27/99/4
f 27/99/4 41/103/4 42/106/4 28/105/4
f 28/105/4 42/106/4 43/108/4 4/107/4
f 4/107/4 43/108/4 44/104/4 3/101/4
f 4/107/4 48/110/4 45/109/4 28/105/4
f 28/105/4 45/109/4 46/112/4 29/111/4
f 29/111/4 46/112/4 47/114/4 5/113/4
f 5/113/4 47/114/4 48/110/4 4/107/4
f 5/113/4 52/116/4 49/115/4 29/111/4
f 29/111/4 49/115/4 50/118/4 30/117/4
f 30/117/4 50/118/4 51/120/4 6/119/4
f 6/119/4 51/120/4 52/116/4 5/113/4
f 6/119/4 56/122/4 53/121/4 30/117/4
f 30/117/4 53/121/4 54/124/4 31/123/4
f 31/123/4 54/124/4 55/126/4 7/125/4
f 7/125/4 55/126/4 56/122/4 6/119/4
f 7/125/4 60/128/4 57/127/4 31/123/4
f 31/123/4 57/127/4 58/130/4 32/129/4
f 32/129/4 58/130/4 59/132/4 8/131/4
f 8/131/4 59/132/4 60/128/4 7/125/4
f 36/136/6 64/135/6 61/134/6 33/133/6
f 35/140/7 63/139/7 64/138/7 36/137/7
f 34/144/1 62/143/1 63/142/1 35/141/1
f 33/146/8 61/53/8 62/54/8 34/145/8
f 40/150/6 68/149/6 65/148/6 37/147/6
f 39/154/9 67/153/9 68/152/9 40/151/9
f 38/158/1 66/157/1 67/156/1 39/155/1
f 37/160/10 65/57/10 66/58/10 38/159/10
f 44/164/6 72/163/6 69/162/6 41/161/6
f 43/168/9 71/167/9 72/166/9 44/165/9
f 42/172/1 70/171/1 71/170/1 43/169/1
f 41/174/10 69/61/10 70/62/10 42/173/10
f 48/178/6 76/177/6 73/176/6 45/175/6
f 47/182/11 75/181/11 76/180/11 48/179/11
f 46/186/1 74/185/1 75/184/1 47/183/1
f 45/188/12 73/65/12 74/66/12 46/187/12
f 52/192/6 80/191/6 77/190/6 49/189/6
f 51/196/11 79/195/11 80/194/11 52/193/11
f 50/200/1 78/199/1 79/198/1 51/197/1
f 49/202/12 77/69/12 78/70/12 50/201/12
f 56/206/6 84/205/6 81/204/6 53/203/6
f 55/210/11 83/209/11 84/208/11 56/207/11
f 54/214/1 82/213/1 83/212/1 55/211/1
f 53/216/12 81/73/12 82/74/12 54/215/12
f 60/220/6 88/219/6 85/218/6 57/217/6
f 59/224/11 87/223/11 88/222/11 60/221/11
f 58/228/1 86/227/1 87/226/1 59/225/1
f 57/230/12 85/77/12 86/78/12 58/229/12
f 9/234/13 92/233/13 89/232/13 1/231/13
f 1/237/2 89/236/2 90/235/2 2/5/2
f 2/5/2 90/235/2 91/238/2 10/8/2
f 10/8/2 91/238/2 92/240/2 9/239/2
f 25/244/13 96/243/13 93/242/13 17/241/13
f 17/247/5 93/246/5 94/245/5 18/39/5
f 18/39/5 94/245/5 95/248/5 26/42/5
f 26/42/5 95/248/5 96/250/5 25/249/5
f 92/254/1 100/253/1 97/252/1 89/251/1
f 91/258/3 99/257/3 100/256/3 92/255/3
f 90/262/6 98/261/6 99/260/6 91/259/6
f 89/266/4 97/265/4 98/264/4 90/263/4
f 96/270/1 104/269/1 101/268/1 93/267/1
f 95/274/4 103/273/4 104/272/4 96/271/4
f 94/278/6 102/277/6 103/276/6 95/275/6
f 93/282/3 101/281/3 102/280/3 94/279/3
f 100/286/13 108/285/13 105/284/13 97/283/13
f 97/283/2 105/284/2 106/288/2 98/287/2
f 98/287/2 106/288/2 107/290/2 99/289/2
f 99/289/2 107/290/2 108/285/2 100/286/2
f 104/294/13 112/293/13 109/292/13 101/291/13
f 101/298/5 109/297/5 110/296/5 102/295/5
f 102/295/5 110/296/5 111/300/5 103/299/5
f 103/299/5 111/300/5 112/302/5 104/301/5
f 108/306/6 116/305/6 113/304/6 105/303/6
f 107/310/4 115/309/4 116/308/4 108/307/4
f 106/314/1 114/313/1 115/312/1 107/311/1
f 105/318/3 113/317/3 114/316/3 106/315/3
f 112/322/6 120/321/6 117/320/6 109/319/6
f 111/326/3 119/325/3 120/324/3 112/323/3

