<?xml version="1.0" encoding="utf-8"?>
<!-- Generator: Adobe Illustrator 23.0.1, SVG Export Plug-In . SVG Version: 6.00 Build 0)  -->
<svg version="1.0" id="图层_1" xmlns="http://www.w3.org/2000/svg" xmlns:xlink="http://www.w3.org/1999/xlink" x="0px" y="0px"
	 viewBox="0 0 50 50" style="enable-background:new 0 0 50 50;" xml:space="preserve">
<style type="text/css">
	.st0{fill:#323333;}
	.st1{fill:#222222;}
	.st2{fill:#1E9F55;}
	.st3{fill:#FFFFFF;}
</style>
<g>
	<circle class="st0" cx="25" cy="25" r="25"/>
	<circle class="st1" cx="25" cy="25" r="23"/>
	<path class="st2" d="M35.4,31H15.8c-0.6,0-1-0.4-1-1V17.1c0-0.6,0.4-1,1-1h19.6c0.6,0,1,0.4,1,1V30C36.4,30.5,35.9,31,35.4,31z"/>
	<path class="st3" d="M34.5,18.1c-0.2-0.2-0.5-0.2-0.7,0l-1.4,1.4l-1.2-1c0,0,0,0,0,0c0,0,0,0,0,0l0,0c0,0-0.1,0-0.1-0.1
		c0,0,0,0-0.1,0c-0.2-0.1-0.4,0-0.5,0.1c0,0,0,0,0,0L28.4,21L27.3,20c0,0,0,0,0,0c0,0,0,0,0,0c0,0,0,0-0.1,0c0,0-0.1,0-0.1-0.1
		c0,0-0.1,0-0.1,0c0,0-0.1,0-0.1,0c0,0-0.1,0-0.1,0c0,0-0.1,0-0.1,0c0,0-0.1,0-0.1,0.1c0,0-0.1,0-0.1,0c0,0,0,0,0,0c0,0,0,0,0,0
		l-1.7,1.7c-0.2,0.2-0.2,0.5,0,0.7c0.1,0.1,0.2,0.1,0.4,0.1s0.3,0,0.4-0.1L27,21l1.1,1.1c0,0,0,0,0,0c0,0,0,0,0,0c0,0,0.1,0,0.1,0.1
		c0,0,0,0,0.1,0c0.1,0,0.1,0,0.2,0c0.1,0,0.1,0,0.2,0c0,0,0,0,0.1,0c0,0,0.1,0,0.1-0.1c0,0,0,0,0,0c0,0,0,0,0,0l2.1-2.5l1.2,1
		c0,0,0.1,0,0.1,0.1c0,0,0,0,0.1,0c0.1,0,0.1,0,0.2,0c0,0,0,0,0,0s0,0,0,0c0.1,0,0.1,0,0.2,0c0,0,0,0,0.1,0c0,0,0.1,0,0.1-0.1
		l1.7-1.8C34.7,18.6,34.7,18.3,34.5,18.1z"/>
	<path class="st3" d="M26.3,30.6c-0.9,0.4-1.2,1.2-1.2,1.2l0-5.5c0,0,0,0,0,0c0-0.5-0.4-0.9-0.9-0.9c-0.5,0-0.9,0.4-0.9,0.9
		c0,0,0,0,0,0l0,3.1c0,0-1-1.3-2.2,0.1c0,0-0.9-1.5-2.1,0.1c0,0-0.9-1.3-1.7,0.1v5.2c0,0,0.1,0.4,0.8,0.9h6.2l3.4-4.3
		C27.7,31.5,27.9,29.9,26.3,30.6z"/>
</g>
</svg>
