<?xml version="1.0" encoding="UTF-8"?>
<svg width="18px" height="18px" viewBox="0 0 18 18" version="1.1" xmlns="http://www.w3.org/2000/svg" xmlns:xlink="http://www.w3.org/1999/xlink">
    <!-- Generator: Sketch 53.1 (72631) - https://sketchapp.com -->
    <title>Slice 1</title>
    <desc>Created with Sketch.</desc>
    <g id="Page-1" stroke="none" stroke-width="1" fill="none" fill-rule="evenodd">
        <g id="icon" transform="translate(1.000000, 1.000000)" stroke="#03143D">
            <path d="M15.7737379,7.95575172 C15.7737379,12.2735448 12.2736,15.7739586 7.9558069,15.7739586 C3.63828966,15.7739586 0.137875862,12.2735448 0.137875862,7.95575172 C0.137875862,3.63823448 3.63828966,0.13782069 7.9558069,0.13782069 C12.2736,0.13782069 15.7737379,3.63823448 15.7737379,7.95575172 Z" id="Stroke-1"></path>
            <path d="M10.6562759,7.95575172 C10.6562759,9.44706207 9.44717241,10.6561655 7.95586207,10.6561655 C6.46455172,10.6561655 5.25544828,9.44706207 5.25544828,7.95575172 C5.25544828,6.46444138 6.46455172,5.25533793 7.95586207,5.25533793 C9.44717241,5.25533793 10.6562759,6.46444138 10.6562759,7.95575172 Z" id="Stroke-3"></path>
            <path d="M9.64281379,5.84772414 L4.70488276,0.844689655" id="Stroke-5" stroke-linecap="round" stroke-linejoin="round"></path>
            <path d="M10.6562759,7.95575172 L10.6562759,0.65782069" id="Stroke-7" stroke-linecap="round" stroke-linejoin="round"></path>
            <path d="M10.1449655,9.5344 L15.0630345,4.69715862" id="Stroke-9" stroke-linecap="round" stroke-linejoin="round"></path>
            <path d="M8.71878621,10.5292966 L15.3085793,10.5292966" id="Stroke-11" stroke-linecap="round" stroke-linejoin="round"></path>
            <path d="M0.603475862,5.25531034 L7.95575172,5.25531034" id="Stroke-13" stroke-linecap="round" stroke-linejoin="round"></path>
            <path d="M6.99597241,10.4789241 L11.3104552,14.8753379" id="Stroke-15" stroke-linecap="round" stroke-linejoin="round"></path>
            <path d="M5.40844138,9.00397241 L5.40844138,15.3490759" id="Stroke-17" stroke-linecap="round" stroke-linejoin="round"></path>
            <path d="M5.57707586,6.67691034 L0.893489655,11.3130483" id="Stroke-19" stroke-linecap="round" stroke-linejoin="round"></path>
        </g>
    </g>
</svg>