# WaveFront *.obj file (generated by CINEMA 4D)

mtllib ./灰色池子.mtl

v -171.68209838867188 0.15998251736164 449.27261352539062
v -171.68209838867188 74.64611053466797 449.27261352539062
v 171.42774963378906 0.15998251736164 449.27261352539062
v 171.42774963378906 74.64611053466797 449.27261352539062
v 171.42774963378906 0.15998251736164 -444.55718994140625
v 171.42774963378906 74.64611053466797 -444.55718994140625
v -171.68209838867188 0.15998251736164 -444.55718994140625
v -171.68209838867188 74.64611053466797 -444.55718994140625
v -158.6024169921875 74.64611053466797 436.19293212890625
v 158.34806823730469 74.64611053466797 436.19293212890625
v 158.34806823730469 74.64611053466797 -431.47750854492188
v -158.6024169921875 74.64611053466797 -431.47750854492188
v -158.6024169921875 41.99888610839844 436.19293212890625
v 158.34806823730469 41.99888610839844 436.19293212890625
v 158.34806823730469 41.99888610839844 -431.47750854492188
v -158.6024169921875 41.99888610839844 -431.47750854492188
v -119.48233795166016 41.99888610839844 427.48455810546875
v 119.22799682617188 41.99888610839844 427.48455810546875
v 119.22799682617188 41.99888610839844 -422.76913452148438
v -119.48233795166016 41.99888610839844 -422.76913452148438
v -119.48233795166016 3.83078575134277 427.48455810546875
v 119.22799682617188 3.83078575134277 427.48455810546875
v 119.22799682617188 3.83078575134277 -422.76913452148438
v -119.48233795166016 3.83078575134277 -422.76913452148438
# 24 vertices

vn 0 0 1
vn 1 0 0
vn 0 0 -1
vn -1 0 0
vn 0 1 0
vn 0 -1 0
# 6 normals

vt 0.66245919466019 0.138352394104 0
vt 0.66245919466019 0.19178414344788 0
vt 0.91894203424454 0.19178414344788 0
vt 0.91894203424454 0.138352394104 0
vt 0.00895807798952 0.27960121631622 0
vt 0.00895807798952 0.33303284645081 0
vt 0.677117228508 0.33303284645081 0
vt 0.677117228508 0.27960121631622 0
vt 0.69503337144852 0.27960121631622 0
vt 0.69503337144852 0.33303284645081 0
vt 0.95151621103287 0.33303284645081 0
vt 0.95151621103287 0.27960121631622 0
vt 0.00895807798952 0.20897674560547 0
vt 0.00895807798952 0.26240849494934 0
vt 0.677117228508 0.26240849494934 0
vt 0.677117228508 0.20897674560547 0
vt 0.81260025501251 0.38148438930511 0
vt 0.81260025501251 0.99140363931656 0
vt 0.99104189872742 0.99140363931656 0
vt 0.99104189872742 0.38148438930511 0
vt 0.28335705399513 0.35022556781769 0
vt 0.28335705399513 0.99140363931656 0
vt 0.53983986377716 0.99140363931656 0
vt 0.53983986377716 0.35022556781769 0
vt 0.00895807798952 0.35022556781769 0
vt 0.01873545721173 0.35960817337036 0
vt 0.25566351413727 0.35960817337036 0
vt 0.26544088125229 0.35022556781769 0
vt 0.25566351413727 0.98202109336853 0
vt 0.26544088125229 0.99140363931656 0
vt 0.01873545721173 0.98202109336853 0
vt 0.00895807798952 0.99140363931656 0
vt 0.93196141719818 0.26240849494934 0
vt 0.93196141719818 0.23898935317993 0
vt 0.69503337144852 0.23898935317993 0
vt 0.69503337144852 0.26240849494934 0
vt 0.65756249427795 0.10263991355896 0
vt 0.65756249427795 0.07922077178955 0
vt 0.00895807798952 0.07922077178955 0
vt 0.00895807798952 0.10263991355896 0
vt 0.91894203424454 0.12115967273712 0
vt 0.91894203424454 0.09774053096771 0
vt 0.68201392889023 0.09774053096771 0
vt 0.68201392889023 0.12115967273712 0
vt 0.65756249427795 0.06202805042267 0
vt 0.65756249427795 0.03860902786255 0
vt 0.00895807798952 0.03860902786255 0
vt 0.00895807798952 0.06202805042267 0
vt 0.55775600671768 0.36899065971375 0
vt 0.58699923753738 0.37523758411407 0
vt 0.76544088125229 0.37523758411407 0
vt 0.79468411207199 0.36899065971375 0
vt 0.76544088125229 0.98515683412552 0
vt 0.79468411207199 0.99140363931656 0
vt 0.58699923753738 0.98515683412552 0
vt 0.55775600671768 0.99140363931656 0
vt 0.91894203424454 0.08054792881012 0
vt 0.91894203424454 0.05316853523254 0
vt 0.74050033092499 0.05316853523254 0
vt 0.74050033092499 0.08054792881012 0
vt 0.64454305171967 0.19178414344788 0
vt 0.64454305171967 0.16440463066101 0
vt 0.00895807798952 0.16440463066101 0
vt 0.00895807798952 0.19178414344788 0
vt 0.91894203424454 0.03597581386566 0
vt 0.91894203424454 0.00859642028809 0
vt 0.74050033092499 0.00859642028809 0
vt 0.74050033092499 0.03597581386566 0
vt 0.64454305171967 0.14721202850342 0
vt 0.64454305171967 0.11983251571655 0
vt 0.00895807798952 0.11983251571655 0
vt 0.00895807798952 0.14721202850342 0
# 72 texture coordinates

o 灰色池子
usemtl 灰色池子
f 3/4/1 4/3/1 2/2/1 1/1/1
f 5/8/2 6/7/2 4/6/2 3/5/2
f 7/12/3 8/11/3 6/10/3 5/9/3
f 1/16/4 2/15/4 8/14/4 7/13/4
f 22/20/5 23/19/5 24/18/5 21/17/5
f 5/24/6 3/23/6 1/22/6 7/21/6
f 4/28/5 10/27/5 9/26/5 2/25/5
f 6/30/5 11/29/5 10/27/5 4/28/5
f 8/32/5 12/31/5 11/29/5 6/30/5
f 2/25/5 9/26/5 12/31/5 8/32/5
f 10/36/3 14/35/3 13/34/3 9/33/3
f 11/40/4 15/39/4 14/38/4 10/37/4
f 12/44/1 16/43/1 15/42/1 11/41/1
f 9/48/2 13/47/2 16/46/2 12/45/2
f 14/52/5 18/51/5 17/50/5 13/49/5
f 15/54/5 19/53/5 18/51/5 14/52/5
f 16/56/5 20/55/5 19/53/5 15/54/5
f 13/49/5 17/50/5 20/55/5 16/56/5
f 18/60/3 22/59/3 21/58/3 17/57/3
f 19/64/4 23/63/4 22/62/4 18/61/4
f 20/68/1 24/67/1 23/66/1 19/65/1
f 17/72/2 21/71/2 24/70/2 20/69/2

