<?xml version="1.0" encoding="UTF-8"?>
<svg width="30px" height="32px" viewBox="0 0 30 32" version="1.1" xmlns="http://www.w3.org/2000/svg" xmlns:xlink="http://www.w3.org/1999/xlink">
    <!-- Generator: Sketch 53.1 (72631) - https://sketchapp.com -->
    <title>icon</title>
    <desc>Created with Sketch.</desc>
    <g id="Page-1" stroke="none" stroke-width="1" fill="none" fill-rule="evenodd">
        <g id="设备详情" transform="translate(-1265.000000, -161.000000)">
            <g id="快速进入设备" transform="translate(592.000000, 149.000000)">
                <g id="ABC三相电流" transform="translate(639.000000, 0.000000)">
                    <g id="icon" transform="translate(35.000000, 13.000000)">
                        <path d="M19.5966,5.5092 C19.5966,8.3442 17.2986,10.6422 14.4621,10.6422 C11.6286,10.6422 9.3291,8.3442 9.3291,5.5092 C9.3291,2.6727 11.6286,0.3747 14.4621,0.3747 C17.2986,0.3747 19.5966,2.6727 19.5966,5.5092" id="Fill-1" fill-opacity="0.3" fill="#10AAFF"></path>
                        <path d="M19.5966,5.5092 C19.5966,8.3442 17.2986,10.6422 14.4621,10.6422 C11.6286,10.6422 9.3291,8.3442 9.3291,5.5092 C9.3291,2.6727 11.6286,0.3747 14.4621,0.3747 C17.2986,0.3747 19.5966,2.6727 19.5966,5.5092 Z" id="Stroke-3" stroke="#10AAFF" stroke-linecap="round" stroke-linejoin="round"></path>
                        <path d="M10.64205,24.5142 C10.64205,27.3507 8.34405,29.6487 5.50905,29.6487 C2.67405,29.6487 0.37455,27.3507 0.37455,24.5142 C0.37455,21.6792 2.67405,19.3812 5.50905,19.3812 C8.34405,19.3812 10.64205,21.6792 10.64205,24.5142" id="Fill-5" fill-opacity="0.3" fill="#10AAFF"></path>
                        <path d="M10.64205,24.5142 C10.64205,27.3507 8.34405,29.6487 5.50905,29.6487 C2.67405,29.6487 0.37455,27.3507 0.37455,24.5142 C0.37455,21.6792 2.67405,19.3812 5.50905,19.3812 C8.34405,19.3812 10.64205,21.6792 10.64205,24.5142 Z" id="Stroke-7" stroke="#10AAFF" stroke-linecap="round" stroke-linejoin="round"></path>
                        <path d="M27.93885,24.5142 C27.93885,27.3507 25.64085,29.6487 22.80435,29.6487 C19.97085,29.6487 17.67135,27.3507 17.67135,24.5142 C17.67135,21.6792 19.97085,19.3812 22.80435,19.3812 C25.64085,19.3812 27.93885,21.6792 27.93885,24.5142" id="Fill-9" fill-opacity="0.3" fill="#10AAFF"></path>
                        <path d="M27.93885,24.5142 C27.93885,27.3507 25.64085,29.6487 22.80435,29.6487 C19.97085,29.6487 17.67135,27.3507 17.67135,24.5142 C17.67135,21.6792 19.97085,19.3812 22.80435,19.3812 C25.64085,19.3812 27.93885,21.6792 27.93885,24.5142 Z" id="Stroke-11" stroke="#10AAFF" stroke-linecap="round" stroke-linejoin="round"></path>
                        <path d="M14.4624,10.64205 L14.4624,15.84855" id="Stroke-13" stroke="#10AAFF" stroke-linecap="round" stroke-linejoin="round"></path>
                        <path d="M14.4624,15.8481 L19.8909,20.2881" id="Stroke-15" stroke="#10AAFF" stroke-linecap="round" stroke-linejoin="round"></path>
                        <path d="M14.4624,15.8481 L9.0354,20.2881" id="Stroke-17" stroke="#10AAFF" stroke-linecap="round" stroke-linejoin="round"></path>
                    </g>
                </g>
            </g>
        </g>
    </g>
</svg>