<?xml version="1.0" encoding="UTF-8"?>
<svg width="32px" height="31px" viewBox="0 0 32 31" version="1.1" xmlns="http://www.w3.org/2000/svg" xmlns:xlink="http://www.w3.org/1999/xlink">
    <!-- Generator: Sketch 53.1 (72631) - https://sketchapp.com -->
    <title>icon</title>
    <desc>Created with Sketch.</desc>
    <g id="Page-1" stroke="none" stroke-width="1" fill="none" fill-rule="evenodd">
        <g id="设备详情" transform="translate(-624.000000, -161.000000)">
            <g id="快速进入设备" transform="translate(592.000000, 149.000000)">
                <g id="环境声音">
                    <g id="icon" transform="translate(33.000000, 13.000000)">
                        <path d="M28.6246667,29.0135 L20.2213333,29.0135 L20.2213333,0.416833333 L29.3196667,3.9585 C29.983,4.23683333 30.4163333,4.88683333 30.4163333,5.6085 L30.4163333,27.2218333 C30.4163333,28.2118333 29.6146667,29.0135 28.6246667,29.0135" id="Fill-1" fill-opacity="0.3" fill="#10AAFF"></path>
                        <path d="M20.2213333,29.0135 L20.2213333,0.416833333 L10.7063333,6.7235 C10.043,7.00183333 9.60966667,7.6535 9.60966667,8.3735 L9.60966667,11.1535" id="Stroke-3" stroke="#10AAFF" stroke-linecap="round" stroke-linejoin="round"></path>
                        <path d="M12.8726667,29.0135 L7.36766667,29.0135 L7.36766667,10.2818333 L13.326,12.6018333 C13.7626667,12.7851667 14.046,13.2118333 14.046,13.6835 L14.046,27.8401667 C14.046,28.4885 13.521,29.0135 12.8726667,29.0135" id="Fill-5" fill-opacity="0.3" fill="#10AAFF"></path>
                        <path d="M12.8726667,29.0135 L7.36766667,29.0135 L7.36766667,10.2818333 L13.326,12.6018333 C13.7626667,12.7851667 14.046,13.2118333 14.046,13.6835 L14.046,27.8401667 C14.046,28.4885 13.521,29.0135 12.8726667,29.0135 Z" id="Stroke-7" stroke="#10AAFF" stroke-linecap="round" stroke-linejoin="round"></path>
                        <path d="M7.36816667,29.0135 L7.36816667,10.2818333 L1.1365,14.4118333 C0.699833333,14.5968333 0.4165,15.0218333 0.4165,15.4951667 L0.4165,29.0135" id="Stroke-9" stroke="#10AAFF" stroke-linecap="round" stroke-linejoin="round"></path>
                        <path d="M28.6246667,29.0135 L20.2213333,29.0135 L20.2213333,0.416833333 L29.3196667,3.9585 C29.983,4.23683333 30.4163333,4.88683333 30.4163333,5.6085 L30.4163333,27.2218333 C30.4163333,28.2118333 29.6146667,29.0135 28.6246667,29.0135 Z" id="Stroke-11" stroke="#10AAFF" stroke-linecap="round" stroke-linejoin="round"></path>
                    </g>
                </g>
            </g>
        </g>
    </g>
</svg>