<?xml version="1.0" encoding="UTF-8"?>
<svg width="41px" height="31px" viewBox="0 0 41 31" version="1.1" xmlns="http://www.w3.org/2000/svg" xmlns:xlink="http://www.w3.org/1999/xlink">
    <!-- Generator: Sketch 53.1 (72631) - https://sketchapp.com -->
    <title>icon</title>
    <desc>Created with Sketch.</desc>
    <g id="Page-1" stroke="none" stroke-width="1" fill="none" fill-rule="evenodd">
        <g id="设备详情" transform="translate(-1156.000000, -161.000000)">
            <g id="快速进入设备" transform="translate(592.000000, 149.000000)">
                <g id="设备2XYZ轴震动" transform="translate(532.000000, 0.000000)">
                    <g id="icon" transform="translate(33.000000, 9.000000)">
                        <path d="M28.8151579,18.6047895 C28.8151579,26.4537368 22.4535789,32.8153158 14.6046316,32.8153158 C6.75726316,32.8153158 0.394105263,26.4537368 0.394105263,18.6047895 C0.394105263,10.7558421 6.75726316,4.39426316 14.6046316,4.39426316 C22.4535789,4.39426316 28.8151579,10.7558421 28.8151579,18.6047895 Z" id="Stroke-1" stroke="#10AAFF" stroke-linecap="round" stroke-linejoin="round"></path>
                        <path d="M7.28810526,27.5435263 L9.52231579,25.3093158" id="Stroke-3" stroke="#10AAFF" stroke-linecap="round" stroke-linejoin="round"></path>
                        <path d="M7.28810526,23.0749474 L9.52231579,25.3091579" id="Stroke-5" stroke="#10AAFF" stroke-linecap="round" stroke-linejoin="round"></path>
                        <path d="M7.28810526,23.0749474 L9.52231579,20.8407368" id="Stroke-7" stroke="#10AAFF" stroke-linecap="round" stroke-linejoin="round"></path>
                        <path d="M7.28810526,18.6047895 L9.52231579,20.8405789" id="Stroke-9" stroke="#10AAFF" stroke-linecap="round" stroke-linejoin="round"></path>
                        <path d="M7.28810526,18.6047895 L9.52231579,16.3705789" id="Stroke-11" stroke="#10AAFF" stroke-linecap="round" stroke-linejoin="round"></path>
                        <path d="M7.28810526,14.1362105 L9.52231579,16.3704211" id="Stroke-13" stroke="#10AAFF" stroke-linecap="round" stroke-linejoin="round"></path>
                        <path d="M7.28810526,14.1362105 L9.52231579,11.9004211" id="Stroke-15" stroke="#10AAFF" stroke-linecap="round" stroke-linejoin="round"></path>
                        <path d="M7.28810526,9.66621053 L9.52231579,11.9004211" id="Stroke-17" stroke="#10AAFF" stroke-linecap="round" stroke-linejoin="round"></path>
                        <path d="M20.0523158,9.66621053 L22.2865263,11.9004211" id="Stroke-19" stroke="#10AAFF" stroke-linecap="round" stroke-linejoin="round"></path>
                        <path d="M20.0523158,14.1362105 L22.2865263,11.9004211" id="Stroke-21" stroke="#10AAFF" stroke-linecap="round" stroke-linejoin="round"></path>
                        <path d="M20.0523158,14.1362105 L22.2865263,16.3704211" id="Stroke-23" stroke="#10AAFF" stroke-linecap="round" stroke-linejoin="round"></path>
                        <path d="M20.0523158,18.6047895 L22.2865263,16.3705789" id="Stroke-25" stroke="#10AAFF" stroke-linecap="round" stroke-linejoin="round"></path>
                        <path d="M20.0523158,18.6047895 L22.2865263,20.8405789" id="Stroke-27" stroke="#10AAFF" stroke-linecap="round" stroke-linejoin="round"></path>
                        <path d="M20.0523158,23.0749474 L22.2865263,20.8407368" id="Stroke-29" stroke="#10AAFF" stroke-linecap="round" stroke-linejoin="round"></path>
                        <path d="M20.0523158,23.0749474 L22.2865263,25.3091579" id="Stroke-31" stroke="#10AAFF" stroke-linecap="round" stroke-linejoin="round"></path>
                        <path d="M20.0523158,27.5435263 L22.2865263,25.3093158" id="Stroke-33" stroke="#10AAFF" stroke-linecap="round" stroke-linejoin="round"></path>
                        <path d="M16.9545789,32.6226842 C16.9545789,32.6226842 15.4940526,32.8153158 14.6051053,32.8153158 C13.5740526,32.8153158 12.2556316,32.6226842 12.2556316,32.6226842 L12.2556316,4.58847368 C12.2556316,4.58847368 13.5093158,4.39426316 14.6051053,4.39426316 C15.6614211,4.39426316 16.9545789,4.58847368 16.9545789,4.58847368 L16.9545789,32.6226842 Z" id="Stroke-35" stroke="#10AAFF" stroke-linecap="round" stroke-linejoin="round"></path>
                        <path d="M16.9545789,32.6226842 C16.9545789,32.6226842 15.4940526,32.8153158 14.6051053,32.8153158 C13.5740526,32.8153158 12.2556316,32.6226842 12.2556316,32.6226842 L12.2556316,4.58847368 C12.2556316,4.58847368 13.5093158,4.39426316 14.6051053,4.39426316 C15.6614211,4.39426316 16.9545789,4.58847368 16.9545789,4.58847368 L16.9545789,32.6226842 Z" id="Fill-37" fill-opacity="0.3" fill="#10AAFF"></path>
                        <text id="2" font-family="PingFangSC-Regular, PingFang SC" font-size="14" font-weight="normal" fill="#00A7FF">
                            <tspan x="32" y="15">2</tspan>
                        </text>
                    </g>
                </g>
            </g>
        </g>
    </g>
</svg>